<?xml version="1.0" standalone="no"?>
<!DOCTYPE svg PUBLIC "-//W3C//DTD SVG 1.1//EN" "http://www.w3.org/Graphics/SVG/1.1/DTD/svg11.dtd" >
<svg xmlns="http://www.w3.org/2000/svg">
<metadata>
This is a custom SVG webfont generated by Font Squirrel.
Copyright   : Copyright (c) 2007 by George Triantafyllakos. All rights reserved.
Designer    : George Triantafyllakos
Foundry     : George Triantafyllakos
Foundry URL : http://www.backpacker.gr
</metadata>
<defs>
<font id="webfont" horiz-adv-x="600" >
<font-face units-per-em="1000" ascent="800" descent="-200" />
<missing-glyph horiz-adv-x="500" />
<glyph unicode=" " />
<glyph unicode="!" d="M245 -4l-42 42l42 44l43 -44zM245 572l-42 42l42 43l43 -43zM245 92l-42 42l42 44l43 -44zM245 380l-42 42l42 43l43 -43zM245 284l-42 42l42 43l43 -43zM245 476l-42 42l42 43l43 -43z" />
<glyph unicode="&#x22;" d="M246 572l-42 42l42 43l43 -43zM439 572l-42 42l42 43l43 -43zM246 476l-42 42l42 43l43 -43zM150 380l-42 42l42 43l43 -43zM342 380l-42 42l42 43l43 -43zM439 476l-42 42l42 43l43 -43z" />
<glyph unicode="#" d="M149 -4l-42 42l42 44l43 -44zM149 572l-42 42l42 43l43 -43zM341 572l-42 42l42 43l43 -43zM149 380l-42 42l42 43l43 -43zM341 92l-42 42l42 44l43 -44zM341 476l-42 42l42 43l43 -43zM149 476l-42 42l42 43l43 -43zM53 380l-42 42l42 43l43 -43zM53 188l-42 42l42 43 l43 -43zM341 188l-42 42l42 43l43 -43zM149 92l-42 42l42 44l43 -44zM245 188l-42 42l42 43l43 -43zM341 284l-42 42l42 43l43 -43zM149 188l-42 42l42 43l43 -43zM437 188l-42 42l42 43l43 -43zM149 284l-42 42l42 43l43 -43zM341 -4l-42 42l42 44l43 -44zM341 380l-42 42 l42 43l43 -43zM437 380l-42 42l42 43l43 -43zM245 380l-42 42l42 43l43 -43z" />
<glyph unicode="$" d="M53 -4l-42 42l42 44l43 -44zM149 -4l-42 42l42 44l43 -44zM245 -100l-42 42l42 44l43 -44zM149 380l-42 42l42 43l43 -43zM341 380l-42 42l42 43l43 -43zM149 188l-42 42l42 43l43 -43zM437 380l-42 42l42 43l43 -43zM437 92l-42 42l42 44l43 -44zM245 92l-42 42l42 44 l43 -44zM341 188l-42 42l42 43l43 -43zM245 380l-42 42l42 43l43 -43zM341 -4l-42 42l42 44l43 -44zM245 476l-42 42l42 43l43 -43zM245 284l-42 42l42 43l43 -43zM53 284l-42 42l42 43l43 -43zM245 188l-42 42l42 43l43 -43zM245 -4l-42 42l42 44l43 -44z" />
<glyph unicode="%" d="M52 -4l-42 42l42 44l43 -44zM244 -4l-42 42l42 44l43 -44zM52 476l-42 42l42 43l43 -43zM244 380l-42 42l42 43l43 -43zM340 -4l-42 42l42 44l43 -44zM148 284l-42 42l42 43l43 -43zM52 572l-42 42l42 43l43 -43zM340 476l-42 42l42 43l43 -43zM244 92l-42 42l42 44 l43 -44zM148 572l-42 42l42 43l43 -43zM52 92l-42 42l42 44l43 -44zM148 476l-42 42l42 43l43 -43zM340 572l-42 42l42 43l43 -43zM148 188l-42 42l42 43l43 -43zM340 92l-42 42l42 44l43 -44z" />
<glyph unicode="&#x26;" d="M245 -4l-42 42l42 44l43 -44zM53 476l-42 42l42 43l43 -43zM341 284l-42 42l42 43l43 -43zM245 572l-42 42l42 43l43 -43zM245 284l-42 42l42 43l43 -43zM53 188l-42 42l42 43l43 -43zM437 284l-42 42l42 43l43 -43zM341 92l-42 42l42 44l43 -44zM149 572l-42 42l42 43 l43 -43zM53 380l-42 42l42 43l43 -43zM341 188l-42 42l42 43l43 -43zM149 284l-42 42l42 43l43 -43zM53 92l-42 42l42 44l43 -44zM149 -4l-42 42l42 44l43 -44z" />
<glyph unicode="'" d="M246 381l-42 42l42 43l43 -43zM342 476l-42 42l42 43l43 -43zM342 573l-42 42l42 43l43 -43z" />
<glyph unicode="(" d="M342 -4l-42 42l42 44l43 -44zM246 284l-42 42l42 43l43 -43zM342 572l-42 42l42 43l43 -43zM246 188l-42 42l42 43l43 -43zM246 380l-42 42l42 43l43 -43zM246 476l-42 42l42 43l43 -43zM246 92l-42 42l42 44l43 -44z" />
<glyph unicode=")" d="M246 -4l-42 42l42 44l43 -44zM342 284l-42 42l42 43l43 -43zM246 572l-42 42l42 43l43 -43zM342 188l-42 42l42 43l43 -43zM342 380l-42 42l42 43l43 -43zM342 476l-42 42l42 43l43 -43zM342 92l-42 42l42 44l43 -44z" />
<glyph unicode="*" d="M51 380l-42 42l42 43l43 -43zM243 572l-42 42l42 43l43 -43zM51 572l-42 42l42 43l43 -43zM147 476l-42 42l42 43l43 -43zM243 380l-42 42l42 43l43 -43z" />
<glyph unicode="+" d="M245 -4l-42 42l42 44l43 -44zM149 188l-42 42l42 43l43 -43zM245 380l-42 42l42 43l43 -43zM245 92l-42 42l42 44l43 -44zM341 188l-42 42l42 43l43 -43zM53 188l-42 42l42 43l43 -43zM437 188l-42 42l42 43l43 -43zM245 188l-42 42l42 43l43 -43zM245 284l-42 42l42 43 l43 -43z" />
<glyph unicode="," d="M244 -4l-42 42l42 44l43 -44zM244 92l-42 42l42 44l43 -44zM148 -100l-42 42l42 44l43 -44z" />
<glyph unicode="-" d="M149 188l-42 42l42 43l43 -43zM245 188l-42 42l42 43l43 -43zM341 188l-42 42l42 43l43 -43z" />
<glyph unicode="." d="M245 -4l-42 42l42 44l43 -44zM245 92l-42 42l42 44l43 -44z" />
<glyph unicode="/" d="M150 -4l-42 42l42 44l43 -44zM246 284l-42 42l42 43l43 -43zM438 572l-42 42l42 43l43 -43zM246 188l-42 42l42 43l43 -43zM342 380l-42 42l42 43l43 -43zM150 92l-42 42l42 44l43 -44zM438 476l-42 42l42 43l43 -43z" />
<glyph unicode="0" d="M149 -4l-42 42l42 44l43 -44zM341 380l-42 42l42 43l43 -43zM437 92l-42 42l42 44l43 -44zM53 188l-42 42l42 43l43 -43zM341 -4l-42 42l42 44l43 -44zM245 188l-42 42l42 43l43 -43zM149 380l-42 42l42 43l43 -43zM437 284l-42 42l42 43l43 -43zM149 92l-42 42l42 44 l43 -44zM53 284l-42 42l42 43l43 -43zM53 92l-42 42l42 44l43 -44zM341 284l-42 42l42 43l43 -43zM437 188l-42 42l42 43l43 -43zM245 -4l-42 42l42 44l43 -44zM245 380l-42 42l42 43l43 -43z" />
<glyph unicode="1" d="M53 -4l-42 42l42 44l43 -44zM149 380l-42 42l42 43l43 -43zM53 380l-42 42l42 43l43 -43zM149 -4l-42 42l42 44l43 -44zM437 -4l-42 42l42 44l43 -44zM245 92l-42 42l42 44l43 -44zM245 188l-42 42l42 43l43 -43zM341 -4l-42 42l42 44l43 -44zM245 284l-42 42l42 43 l43 -43zM245 -4l-42 42l42 44l43 -44zM245 380l-42 42l42 43l43 -43z" />
<glyph unicode="2" d="M53 -4l-42 42l42 44l43 -44zM341 -4l-42 42l42 44l43 -44zM341 380l-42 42l42 43l43 -43zM437 -4l-42 42l42 44l43 -44zM245 380l-42 42l42 43l43 -43zM149 92l-42 42l42 44l43 -44zM245 -4l-42 42l42 44l43 -44zM341 188l-42 42l42 43l43 -43zM53 284l-42 42l42 43 l43 -43zM149 380l-42 42l42 43l43 -43zM245 188l-42 42l42 43l43 -43zM437 284l-42 42l42 43l43 -43zM149 -4l-42 42l42 44l43 -44z" />
<glyph unicode="3" d="M437 -4l-42 42l42 44l43 -44zM245 92l-42 42l42 44l43 -44zM149 92l-42 42l42 44l43 -44zM245 380l-42 42l42 43l43 -43zM437 -100l-42 42l42 44l43 -44zM341 380l-42 42l42 43l43 -43zM341 -196l-42 42l42 44l43 -44zM341 92l-42 42l42 44l43 -44zM437 284l-42 42l42 43 l43 -43zM149 380l-42 42l42 43l43 -43zM53 284l-42 42l42 43l43 -43zM437 188l-42 42l42 43l43 -43zM149 -196l-42 42l42 44l43 -44zM53 -100l-42 42l42 44l43 -44zM245 -196l-42 42l42 44l43 -44z" />
<glyph unicode="4" d="M341 -196l-42 42l42 44l43 -44zM341 380l-42 42l42 43l43 -43zM341 92l-42 42l42 44l43 -44zM53 92l-42 42l42 44l43 -44zM341 188l-42 42l42 43l43 -43zM245 284l-42 42l42 43l43 -43zM341 -100l-42 42l42 44l43 -44zM341 -4l-42 42l42 44l43 -44zM53 -4l-42 42l42 44 l43 -44zM149 188l-42 42l42 43l43 -43zM149 -4l-42 42l42 44l43 -44zM245 -4l-42 42l42 44l43 -44zM437 -4l-42 42l42 44l43 -44zM341 284l-42 42l42 43l43 -43z" />
<glyph unicode="5" d="M53 -196l-42 42l42 44l43 -44zM437 -4l-42 42l42 44l43 -44zM53 92l-42 42l42 44l43 -44zM53 284l-42 42l42 43l43 -43zM245 380l-42 42l42 43l43 -43zM149 -196l-42 42l42 44l43 -44zM149 92l-42 42l42 44l43 -44zM341 380l-42 42l42 43l43 -43zM341 -196l-42 42l42 44 l43 -44zM245 92l-42 42l42 44l43 -44zM149 380l-42 42l42 43l43 -43zM53 188l-42 42l42 43l43 -43zM53 380l-42 42l42 43l43 -43zM437 380l-42 42l42 43l43 -43zM341 92l-42 42l42 44l43 -44zM245 -196l-42 42l42 44l43 -44zM437 -100l-42 42l42 44l43 -44z" />
<glyph unicode="6" d="M149 -4l-42 42l42 44l43 -44zM245 -4l-42 42l42 44l43 -44zM341 572l-42 42l42 43l43 -43zM53 284l-42 42l42 43l43 -43zM53 188l-42 42l42 43l43 -43zM149 476l-42 42l42 43l43 -43zM437 188l-42 42l42 43l43 -43zM341 -4l-42 42l42 44l43 -44zM437 92l-42 42l42 44 l43 -44zM53 380l-42 42l42 43l43 -43zM53 92l-42 42l42 44l43 -44zM341 284l-42 42l42 43l43 -43zM149 284l-42 42l42 43l43 -43zM245 572l-42 42l42 43l43 -43zM245 284l-42 42l42 43l43 -43z" />
<glyph unicode="7" d="M149 -196l-42 42l42 44l43 -44zM149 380l-42 42l42 43l43 -43zM437 380l-42 42l42 43l43 -43zM149 -100l-42 42l42 44l43 -44zM245 380l-42 42l42 43l43 -43zM437 284l-42 42l42 43l43 -43zM53 380l-42 42l42 43l43 -43zM341 380l-42 42l42 43l43 -43zM341 188l-42 42 l42 43l43 -43zM149 -4l-42 42l42 44l43 -44zM245 92l-42 42l42 44l43 -44z" />
<glyph unicode="8" d="M149 -4l-42 42l42 44l43 -44zM53 188l-42 42l42 43l43 -43zM341 572l-42 42l42 43l43 -43zM341 284l-42 42l42 43l43 -43zM437 476l-42 42l42 43l43 -43zM149 284l-42 42l42 43l43 -43zM437 188l-42 42l42 43l43 -43zM53 476l-42 42l42 43l43 -43zM53 92l-42 42l42 44 l43 -44zM437 380l-42 42l42 43l43 -43zM53 380l-42 42l42 43l43 -43zM149 572l-42 42l42 43l43 -43zM437 92l-42 42l42 44l43 -44zM245 -4l-42 42l42 44l43 -44zM245 572l-42 42l42 43l43 -43zM341 -4l-42 42l42 44l43 -44zM245 284l-42 42l42 43l43 -43z" />
<glyph unicode="9" d="M149 -196l-42 42l42 44l43 -44zM245 380l-42 42l42 43l43 -43zM341 380l-42 42l42 43l43 -43zM437 92l-42 42l42 44l43 -44zM437 284l-42 42l42 43l43 -43zM149 92l-42 42l42 44l43 -44zM341 92l-42 42l42 44l43 -44zM341 -100l-42 42l42 44l43 -44zM149 380l-42 42 l42 43l43 -43zM245 92l-42 42l42 44l43 -44zM245 -196l-42 42l42 44l43 -44zM53 284l-42 42l42 43l43 -43zM53 188l-42 42l42 43l43 -43zM437 -4l-42 42l42 44l43 -44zM437 188l-42 42l42 43l43 -43z" />
<glyph unicode=":" d="M245 -4l-42 42l42 44l43 -44zM245 380l-42 42l42 43l43 -43zM245 92l-42 42l42 44l43 -44zM245 284l-42 42l42 43l43 -43z" />
<glyph unicode=";" d="M244 -4l-42 42l42 44l43 -44zM244 284l-42 42l42 43l43 -43zM244 380l-42 42l42 43l43 -43zM148 -100l-42 42l42 44l43 -44zM244 92l-42 42l42 44l43 -44z" />
<glyph unicode="&#x3c;" d="M341 -4l-42 42l42 44l43 -44zM245 284l-42 42l42 43l43 -43zM341 380l-42 42l42 43l43 -43zM149 188l-42 42l42 43l43 -43zM245 92l-42 42l42 44l43 -44z" />
<glyph unicode="=" d="M149 284l-42 42l42 43l43 -43zM437 92l-42 42l42 44l43 -44zM53 92l-42 42l42 44l43 -44zM245 92l-42 42l42 44l43 -44zM149 92l-42 42l42 44l43 -44zM53 284l-42 42l42 43l43 -43zM341 92l-42 42l42 44l43 -44zM437 284l-42 42l42 43l43 -43zM341 284l-42 42l42 43 l43 -43zM245 284l-42 42l42 43l43 -43z" />
<glyph unicode="&#x3e;" d="M247 -4l-42 42l42 44l43 -44zM343 284l-42 42l42 43l43 -43zM247 380l-42 42l42 43l43 -43zM439 188l-42 42l42 43l43 -43zM343 92l-42 42l42 44l43 -44z" />
<glyph unicode="?" d="M245 -4l-42 42l42 44l43 -44zM245 92l-42 42l42 44l43 -44zM341 284l-42 42l42 43l43 -43zM149 572l-42 42l42 43l43 -43zM53 476l-42 42l42 43l43 -43zM437 476l-42 42l42 43l43 -43zM245 572l-42 42l42 43l43 -43zM341 572l-42 42l42 43l43 -43zM245 284l-42 42l42 43 l43 -43zM437 380l-42 42l42 43l43 -43z" />
<glyph unicode="@" d="M149 -4l-42 42l42 44l43 -44zM149 188l-42 42l42 43l43 -43zM341 380l-42 42l42 43l43 -43zM53 92l-42 42l42 44l43 -44zM245 380l-42 42l42 43l43 -43zM341 284l-42 42l42 43l43 -43zM53 476l-42 42l42 43l43 -43zM437 188l-42 42l42 43l43 -43zM53 188l-42 42l42 43 l43 -43zM437 380l-42 42l42 43l43 -43zM149 572l-42 42l42 43l43 -43zM245 188l-42 42l42 43l43 -43zM437 -4l-42 42l42 44l43 -44zM149 284l-42 42l42 43l43 -43zM341 572l-42 42l42 43l43 -43zM245 572l-42 42l42 43l43 -43zM437 476l-42 42l42 43l43 -43zM341 -4l-42 42 l42 44l43 -44zM53 380l-42 42l42 43l43 -43zM341 188l-42 42l42 43l43 -43zM53 284l-42 42l42 43l43 -43zM245 -4l-42 42l42 44l43 -44zM437 284l-42 42l42 43l43 -43z" />
<glyph unicode="A" d="M52 -4l-43 43l43 44l44 -44zM344 190l-43 43l43 44l43 -44zM52 482l-43 42l43 44l44 -44zM441 190l-43 43l43 44l43 -44zM441 287l-43 43l43 44l43 -44zM246 190l-42 43l42 44l44 -44zM441 385l-43 42l43 44l43 -44zM149 190l-42 43l42 44l44 -44zM149 579l-42 43l42 43 l44 -43zM52 287l-43 43l43 44l44 -44zM441 482l-43 42l43 44l43 -44zM246 579l-42 43l42 43l44 -43zM52 385l-43 42l43 44l44 -44zM441 -4l-43 43l43 44l43 -44zM441 93l-43 43l43 44l43 -44zM52 190l-43 43l43 44l44 -44zM344 579l-43 43l43 43l43 -43zM52 93l-43 43l43 44 l44 -44z" />
<glyph unicode="B" d="M52 -4l-43 43l43 44l44 -44zM344 579l-43 43l43 43l43 -43zM441 190l-43 43l43 44l43 -44zM441 385l-43 42l43 44l43 -44zM52 287l-43 43l43 44l44 -44zM344 -4l-43 43l43 44l43 -44zM52 482l-43 42l43 44l44 -44zM344 287l-43 43l43 44l43 -44zM149 579l-42 43l42 43 l44 -43zM52 579l-43 43l43 43l44 -43zM52 190l-43 43l43 44l44 -44zM246 -4l-42 43l42 44l44 -44zM441 482l-43 42l43 44l43 -44zM149 -4l-42 43l42 44l44 -44zM246 579l-42 43l42 43l44 -43zM149 287l-42 43l42 44l44 -44zM52 385l-43 42l43 44l44 -44zM246 287l-42 43 l42 44l44 -44zM52 93l-43 43l43 44l44 -44zM441 93l-43 43l43 44l43 -44z" />
<glyph unicode="C" d="M149 -4l-42 43l42 44l44 -44zM344 579l-43 43l43 43l43 -43zM52 190l-43 43l43 44l44 -44zM441 93l-43 43l43 44l43 -44zM246 579l-42 43l42 43l44 -43zM344 -4l-43 43l43 44l43 -44zM52 287l-43 43l43 44l44 -44zM246 -4l-42 43l42 44l44 -44zM149 579l-42 43l42 43 l44 -43zM441 482l-43 42l43 44l43 -44zM52 482l-43 42l43 44l44 -44zM52 385l-43 42l43 44l44 -44zM52 93l-43 43l43 44l44 -44z" />
<glyph unicode="D" d="M52 -4l-43 43l43 44l44 -44zM344 579l-43 43l43 43l43 -43zM344 -4l-43 43l43 44l43 -44zM246 -4l-42 43l42 44l44 -44zM441 482l-43 42l43 44l43 -44zM246 579l-42 43l42 43l44 -43zM441 287l-43 43l43 44l43 -44zM52 93l-43 43l43 44l44 -44zM149 579l-42 43l42 43 l44 -43zM52 190l-43 43l43 44l44 -44zM441 385l-43 42l43 44l43 -44zM441 93l-43 43l43 44l43 -44zM149 -4l-42 43l42 44l44 -44zM52 385l-43 42l43 44l44 -44zM52 287l-43 43l43 44l44 -44zM441 190l-43 43l43 44l43 -44zM52 482l-43 42l43 44l44 -44zM52 579l-43 43l43 43 l44 -43z" />
<glyph unicode="E" d="M52 -4l-43 43l43 44l44 -44zM52 287l-43 43l43 44l44 -44zM52 482l-43 42l43 44l44 -44zM246 -4l-42 43l42 44l44 -44zM441 579l-43 43l43 43l43 -43zM52 190l-43 43l43 44l44 -44zM52 93l-43 43l43 44l44 -44zM246 579l-42 43l42 43l44 -43zM149 579l-42 43l42 43 l44 -43zM344 579l-43 43l43 43l43 -43zM52 385l-43 42l43 44l44 -44zM344 287l-43 43l43 44l43 -44zM149 -4l-42 43l42 44l44 -44zM441 -4l-43 43l43 44l43 -44zM149 287l-42 43l42 44l44 -44zM246 287l-42 43l42 44l44 -44zM344 -4l-43 43l43 44l43 -44zM52 579l-43 43 l43 43l44 -43z" />
<glyph unicode="F" d="M52 -4l-43 43l43 44l44 -44zM52 287l-43 43l43 44l44 -44zM441 579l-43 43l43 43l43 -43zM52 385l-43 42l43 44l44 -44zM52 93l-43 43l43 44l44 -44zM246 579l-42 43l42 43l44 -43zM52 482l-43 42l43 44l44 -44zM344 579l-43 43l43 43l43 -43zM149 579l-42 43l42 43 l44 -43zM52 579l-43 43l43 43l44 -43zM246 287l-42 43l42 44l44 -44zM149 287l-42 43l42 44l44 -44zM344 287l-43 43l43 44l43 -44zM52 190l-43 43l43 44l44 -44z" />
<glyph unicode="G" d="M149 -4l-42 43l42 44l44 -44zM344 579l-43 43l43 43l43 -43zM52 482l-43 42l43 44l44 -44zM246 579l-42 43l42 43l44 -43zM441 190l-43 43l43 44l43 -44zM52 190l-43 43l43 44l44 -44zM52 287l-43 43l43 44l44 -44zM52 93l-43 43l43 44l44 -44zM246 -4l-42 43l42 44 l44 -44zM149 579l-42 43l42 43l44 -43zM344 190l-43 43l43 44l43 -44zM344 -4l-43 43l43 44l43 -44zM441 -4l-43 43l43 44l43 -44zM52 385l-43 42l43 44l44 -44zM441 93l-43 43l43 44l43 -44zM441 482l-43 42l43 44l43 -44z" />
<glyph unicode="H" d="M52 -4l-43 43l43 44l44 -44zM441 190l-43 43l43 44l43 -44zM344 287l-43 43l43 44l43 -44zM441 385l-43 42l43 44l43 -44zM246 287l-42 43l42 44l44 -44zM441 287l-43 43l43 44l43 -44zM52 579l-43 43l43 43l44 -43zM149 287l-42 43l42 44l44 -44zM441 93l-43 43l43 44 l43 -44zM441 482l-43 42l43 44l43 -44zM52 482l-43 42l43 44l44 -44zM441 -4l-43 43l43 44l43 -44zM441 579l-43 43l43 43l43 -43zM52 190l-43 43l43 44l44 -44zM52 93l-43 43l43 44l44 -44zM52 287l-43 43l43 44l44 -44zM52 385l-43 42l43 44l44 -44z" />
<glyph unicode="I" d="M149 -4l-42 43l42 44l44 -44zM246 -4l-42 43l42 44l44 -44zM441 579l-43 43l43 43l43 -43zM246 287l-42 43l42 44l44 -44zM246 190l-42 43l42 44l44 -44zM246 385l-42 42l42 44l44 -44zM52 -4l-43 43l43 44l44 -44zM52 579l-43 43l43 43l44 -43zM344 579l-43 43l43 43 l43 -43zM441 -4l-43 43l43 44l43 -44zM246 93l-42 43l42 44l44 -44zM344 -4l-43 43l43 44l43 -44zM246 482l-42 42l42 44l44 -44zM246 579l-42 43l42 43l44 -43zM149 579l-42 43l42 43l44 -43z" />
<glyph unicode="J" d="M149 -4l-43 43l43 44l43 -44zM343 287l-43 43l43 44l44 -44zM246 -4l-43 43l43 44l43 -44zM149 579l-43 43l43 43l43 -43zM343 579l-43 43l43 43l44 -43zM343 385l-43 42l43 44l44 -44zM343 482l-43 42l43 44l44 -44zM246 579l-43 43l43 43l43 -43zM51 579l-42 43l42 43 l44 -43zM51 93l-42 43l42 44l44 -44zM343 190l-43 43l43 44l44 -44zM343 93l-43 43l43 44l44 -44z" />
<glyph unicode="K" d="M52 -4l-43 43l43 44l44 -44zM149 287l-42 43l42 44l44 -44zM52 93l-43 43l43 44l44 -44zM52 190l-43 43l43 44l44 -44zM441 482l-43 42l43 44l43 -44zM344 385l-43 42l43 44l43 -44zM52 579l-43 43l43 43l44 -43zM344 190l-43 43l43 44l43 -44zM52 287l-43 43l43 44 l44 -44zM441 579l-43 43l43 43l43 -43zM246 287l-42 43l42 44l44 -44zM441 93l-43 43l43 44l43 -44zM52 482l-43 42l43 44l44 -44zM52 385l-43 42l43 44l44 -44zM441 -4l-43 43l43 44l43 -44z" />
<glyph unicode="L" d="M52 -4l-43 43l43 44l44 -44zM52 579l-43 43l43 43l44 -43zM52 287l-43 43l43 44l44 -44zM149 -4l-42 43l42 44l44 -44zM344 -4l-43 43l43 44l43 -44zM52 93l-43 43l43 44l44 -44zM52 190l-43 43l43 44l44 -44zM52 482l-43 42l43 44l44 -44zM441 -4l-43 43l43 44l43 -44z M246 -4l-42 43l42 44l44 -44zM52 385l-43 42l43 44l44 -44z" />
<glyph unicode="M" d="M52 -4l-43 43l43 44l44 -44zM52 287l-43 43l43 44l44 -44zM441 579l-43 43l43 43l43 -43zM441 385l-43 42l43 44l43 -44zM441 482l-43 42l43 44l43 -44zM52 482l-43 42l43 44l44 -44zM344 482l-43 42l43 44l43 -44zM149 385l-42 42l42 44l44 -44zM441 -4l-43 43l43 44 l43 -44zM441 287l-43 43l43 44l43 -44zM52 93l-43 43l43 44l44 -44zM441 190l-43 43l43 44l43 -44zM52 385l-43 42l43 44l44 -44zM246 190l-42 43l42 44l44 -44zM344 385l-43 42l43 44l43 -44zM52 190l-43 43l43 44l44 -44zM52 579l-43 43l43 43l44 -43zM246 287l-42 43 l42 44l44 -44zM149 482l-42 42l42 44l44 -44zM441 93l-43 43l43 44l43 -44z" />
<glyph unicode="N" d="M52 -4l-43 43l43 44l44 -44zM441 93l-43 43l43 44l43 -44zM52 579l-43 43l43 43l44 -43zM344 190l-43 43l43 44l43 -44zM52 482l-43 42l43 44l44 -44zM441 190l-43 43l43 44l43 -44zM441 287l-43 43l43 44l43 -44zM441 482l-43 42l43 44l43 -44zM52 287l-43 43l43 44 l44 -44zM52 190l-43 43l43 44l44 -44zM246 385l-42 42l42 44l44 -44zM52 385l-43 42l43 44l44 -44zM52 93l-43 43l43 44l44 -44zM441 -4l-43 43l43 44l43 -44zM246 287l-42 43l42 44l44 -44zM441 579l-43 43l43 43l43 -43zM149 482l-42 42l42 44l44 -44zM441 385l-43 42 l43 44l43 -44z" />
<glyph unicode="O" d="M149 -4l-42 43l42 44l44 -44zM246 -4l-42 43l42 44l44 -44zM344 579l-43 43l43 43l43 -43zM441 287l-43 43l43 44l43 -44zM441 93l-43 43l43 44l43 -44zM441 385l-43 42l43 44l43 -44zM344 -4l-43 43l43 44l43 -44zM149 579l-42 43l42 43l44 -43zM441 482l-43 42l43 44 l43 -44zM52 482l-43 42l43 44l44 -44zM52 385l-43 42l43 44l44 -44zM52 93l-43 43l43 44l44 -44zM52 190l-43 43l43 44l44 -44zM441 190l-43 43l43 44l43 -44zM52 287l-43 43l43 44l44 -44zM246 579l-42 43l42 43l44 -43z" />
<glyph unicode="P" d="M52 -4l-43 43l43 44l44 -44zM344 579l-43 43l43 43l43 -43zM441 385l-43 42l43 44l43 -44zM52 385l-43 42l43 44l44 -44zM149 579l-42 43l42 43l44 -43zM52 482l-43 42l43 44l44 -44zM52 190l-43 43l43 44l44 -44zM246 190l-42 43l42 44l44 -44zM52 579l-43 43l43 43 l44 -43zM441 482l-43 42l43 44l43 -44zM149 190l-42 43l42 44l44 -44zM52 287l-43 43l43 44l44 -44zM441 287l-43 43l43 44l43 -44zM246 579l-42 43l42 43l44 -43zM52 93l-43 43l43 44l44 -44zM344 190l-43 43l43 44l43 -44z" />
<glyph unicode="Q" d="M149 -4l-42 43l42 44l44 -44zM441 385l-43 42l43 44l43 -44zM344 -198l-43 43l43 43l43 -43zM344 579l-43 43l43 43l43 -43zM246 -101l-42 43l42 43l44 -43zM246 579l-42 43l42 43l44 -43zM441 190l-43 43l43 44l43 -44zM149 579l-42 43l42 43l44 -43zM52 190l-43 43 l43 44l44 -44zM246 -4l-42 43l42 44l44 -44zM52 287l-43 43l43 44l44 -44zM52 482l-43 42l43 44l44 -44zM52 385l-43 42l43 44l44 -44zM441 482l-43 42l43 44l43 -44zM441 287l-43 43l43 44l43 -44zM344 -4l-43 43l43 44l43 -44zM246 93l-42 43l42 44l44 -44zM441 93l-43 43 l43 44l43 -44zM52 93l-43 43l43 44l44 -44z" />
<glyph unicode="R" d="M52 -4l-43 43l43 44l44 -44zM344 579l-43 43l43 43l43 -43zM441 -4l-43 43l43 44l43 -44zM52 93l-43 43l43 44l44 -44zM441 482l-43 42l43 44l43 -44zM246 579l-42 43l42 43l44 -43zM149 287l-42 43l42 44l44 -44zM149 579l-42 43l42 43l44 -43zM52 190l-43 43l43 44 l44 -44zM52 287l-43 43l43 44l44 -44zM441 385l-43 42l43 44l43 -44zM344 190l-43 43l43 44l43 -44zM441 93l-43 43l43 44l43 -44zM52 385l-43 42l43 44l44 -44zM246 287l-42 43l42 44l44 -44zM344 287l-43 43l43 44l43 -44zM52 482l-43 42l43 44l44 -44zM52 579l-43 43 l43 43l44 -43z" />
<glyph unicode="S" d="M52 -4l-43 43l43 44l44 -44zM149 -4l-42 43l42 44l44 -44zM441 579l-43 43l43 43l43 -43zM149 287l-42 43l42 44l44 -44zM441 190l-43 43l43 44l43 -44zM246 287l-42 43l42 44l44 -44zM441 93l-43 43l43 44l43 -44zM246 -4l-42 43l42 44l44 -44zM246 579l-42 43l42 43 l44 -43zM52 385l-43 42l43 44l44 -44zM344 579l-43 43l43 43l43 -43zM52 482l-43 42l43 44l44 -44zM344 287l-43 43l43 44l43 -44zM344 -4l-43 43l43 44l43 -44zM149 579l-42 43l42 43l44 -43z" />
<glyph unicode="T" d="M246 -4l-42 43l42 44l44 -44zM246 287l-42 43l42 44l44 -44zM441 579l-43 43l43 43l43 -43zM149 579l-42 43l42 43l44 -43zM52 579l-43 43l43 43l44 -43zM246 482l-42 42l42 44l44 -44zM344 579l-43 43l43 43l43 -43zM246 190l-42 43l42 44l44 -44zM246 385l-42 42l42 44 l44 -44zM246 579l-42 43l42 43l44 -43zM246 93l-42 43l42 44l44 -44z" />
<glyph unicode="U" d="M149 -4l-42 43l42 44l44 -44zM52 93l-43 43l43 44l44 -44zM441 579l-43 43l43 43l43 -43zM52 287l-43 43l43 44l44 -44zM246 -4l-42 43l42 44l44 -44zM441 385l-43 42l43 44l43 -44zM344 -4l-43 43l43 44l43 -44zM441 93l-43 43l43 44l43 -44zM441 482l-43 42l43 44 l43 -44zM52 579l-43 43l43 43l44 -43zM52 190l-43 43l43 44l44 -44zM441 190l-43 43l43 44l43 -44zM441 287l-43 43l43 44l43 -44zM52 482l-43 42l43 44l44 -44zM52 385l-43 42l43 44l44 -44z" />
<glyph unicode="V" d="M246 -4l-42 43l42 44l44 -44zM52 287l-43 43l43 44l44 -44zM441 579l-43 43l43 43l43 -43zM441 482l-43 42l43 44l43 -44zM149 190l-42 43l42 44l44 -44zM149 93l-42 43l42 44l44 -44zM344 93l-43 43l43 44l43 -44zM52 385l-43 42l43 44l44 -44zM52 482l-43 42l43 44 l44 -44zM441 385l-43 42l43 44l43 -44zM441 287l-43 43l43 44l43 -44zM344 190l-43 43l43 44l43 -44zM52 579l-43 43l43 43l44 -43z" />
<glyph unicode="W" d="M149 -4l-42 43l42 44l44 -44zM344 93l-43 43l43 44l43 -44zM441 579l-43 43l43 43l43 -43zM52 385l-43 42l43 44l44 -44zM149 93l-42 43l42 44l44 -44zM441 287l-43 43l43 44l43 -44zM52 287l-43 43l43 44l44 -44zM441 482l-43 42l43 44l43 -44zM52 190l-43 43l43 44 l44 -44zM441 190l-43 43l43 44l43 -44zM246 385l-42 42l42 44l44 -44zM52 482l-43 42l43 44l44 -44zM344 -4l-43 43l43 44l43 -44zM441 385l-43 42l43 44l43 -44zM246 287l-42 43l42 44l44 -44zM246 190l-42 43l42 44l44 -44zM52 579l-43 43l43 43l44 -43zM246 482l-42 42 l42 44l44 -44z" />
<glyph unicode="X" d="M52 -4l-43 43l43 44l44 -44zM52 482l-43 42l43 44l44 -44zM441 93l-43 43l43 44l43 -44zM149 190l-42 43l42 44l44 -44zM441 482l-43 42l43 44l43 -44zM52 579l-43 43l43 43l44 -43zM149 385l-42 42l42 44l44 -44zM344 190l-43 43l43 44l43 -44zM441 579l-43 43l43 43 l43 -43zM52 93l-43 43l43 44l44 -44zM344 385l-43 42l43 44l43 -44zM441 -4l-43 43l43 44l43 -44zM246 287l-42 43l42 44l44 -44z" />
<glyph unicode="Y" d="M246 -4l-42 43l42 44l44 -44zM344 287l-43 43l43 44l43 -44zM246 93l-42 43l42 44l44 -44zM441 482l-43 42l43 44l43 -44zM441 385l-43 42l43 44l43 -44zM52 482l-43 42l43 44l44 -44zM441 579l-43 43l43 43l43 -43zM149 287l-42 43l42 44l44 -44zM52 385l-43 42l43 44 l44 -44zM52 579l-43 43l43 43l44 -43zM246 190l-42 43l42 44l44 -44z" />
<glyph unicode="Z" d="M52 -4l-43 43l43 44l44 -44zM344 579l-43 43l43 43l43 -43zM246 287l-42 43l42 44l44 -44zM149 190l-42 43l42 44l44 -44zM52 93l-43 43l43 44l44 -44zM149 579l-42 43l42 43l44 -43zM441 -4l-43 43l43 44l43 -44zM246 -4l-42 43l42 44l44 -44zM441 579l-43 43l43 43 l43 -43zM344 385l-43 42l43 44l43 -44zM149 -4l-42 43l42 44l44 -44zM52 579l-43 43l43 43l44 -43zM246 579l-42 43l42 43l44 -43zM344 -4l-43 43l43 44l43 -44zM441 482l-43 42l43 44l43 -44z" />
<glyph unicode="[" d="M246 -4l-42 42l42 44l43 -44zM246 188l-42 42l42 43l43 -43zM342 572l-42 42l42 43l43 -43zM246 572l-42 42l42 43l43 -43zM246 380l-42 42l42 43l43 -43zM342 -4l-42 42l42 44l43 -44zM246 476l-42 42l42 43l43 -43zM246 284l-42 42l42 43l43 -43zM246 92l-42 42l42 44 l43 -44z" />
<glyph unicode="\" d="M438 -4l-42 42l42 44l43 -44zM150 572l-42 42l42 43l43 -43zM342 284l-42 42l42 43l43 -43zM342 188l-42 42l42 43l43 -43zM246 380l-42 42l42 43l43 -43zM150 476l-42 42l42 43l43 -43zM438 92l-42 42l42 44l43 -44z" />
<glyph unicode="]" d="M246 -4l-42 42l42 44l43 -44zM342 -4l-42 42l42 44l43 -44zM342 572l-42 42l42 43l43 -43zM246 572l-42 42l42 43l43 -43zM342 188l-42 42l42 43l43 -43zM342 92l-42 42l42 44l43 -44zM342 284l-42 42l42 43l43 -43zM342 476l-42 42l42 43l43 -43zM342 380l-42 42l42 43 l43 -43z" />
<glyph unicode="^" d="M149 572l-42 42l42 43l43 -43zM341 572l-42 42l42 43l43 -43zM245 668l-42 42l42 43l43 -43z" />
<glyph unicode="_" d="M53 -4l-42 42l42 44l43 -44zM341 -4l-42 42l42 44l43 -44zM437 -4l-42 42l42 44l43 -44zM245 -4l-42 42l42 44l43 -44zM149 -4l-42 42l42 44l43 -44z" />
<glyph unicode="`" d="M243 572l-42 42l42 43l43 -43zM51 668l-42 42l42 43l43 -43zM147 572l-42 42l42 43l43 -43z" />
<glyph unicode="a" d="M149 -4l-42 42l42 44l43 -44zM437 -4l-42 42l42 44l43 -44zM341 380l-42 42l42 43l43 -43zM245 188l-42 42l42 43l43 -43zM341 -4l-42 42l42 44l43 -44zM149 380l-42 42l42 43l43 -43zM341 188l-42 42l42 43l43 -43zM245 380l-42 42l42 43l43 -43zM245 -4l-42 42l42 44 l43 -44zM437 188l-42 42l42 43l43 -43zM437 92l-42 42l42 44l43 -44zM53 92l-42 42l42 44l43 -44zM149 188l-42 42l42 43l43 -43zM437 284l-42 42l42 43l43 -43z" />
<glyph unicode="b" d="M53 -4l-42 42l42 44l43 -44zM53 380l-42 42l42 43l43 -43zM437 284l-42 42l42 43l43 -43zM245 -4l-42 42l42 44l43 -44zM437 92l-42 42l42 44l43 -44zM245 380l-42 42l42 43l43 -43zM53 284l-42 42l42 43l43 -43zM53 476l-42 42l42 43l43 -43zM53 572l-42 42l42 43 l43 -43zM341 380l-42 42l42 43l43 -43zM149 284l-42 42l42 43l43 -43zM341 -4l-42 42l42 44l43 -44zM437 188l-42 42l42 43l43 -43zM53 188l-42 42l42 43l43 -43zM149 -4l-42 42l42 44l43 -44zM53 92l-42 42l42 44l43 -44z" />
<glyph unicode="c" d="M149 -4l-42 42l42 44l43 -44zM437 284l-42 42l42 43l43 -43zM341 380l-42 42l42 43l43 -43zM245 -4l-42 42l42 44l43 -44zM245 380l-42 42l42 43l43 -43zM53 188l-42 42l42 43l43 -43zM53 284l-42 42l42 43l43 -43zM53 92l-42 42l42 44l43 -44zM149 380l-42 42l42 43 l43 -43zM341 -4l-42 42l42 44l43 -44zM437 92l-42 42l42 44l43 -44z" />
<glyph unicode="d" d="M149 -4l-42 42l42 44l43 -44zM437 572l-42 42l42 43l43 -43zM437 476l-42 42l42 43l43 -43zM437 -4l-42 42l42 44l43 -44zM437 92l-42 42l42 44l43 -44zM53 284l-42 42l42 43l43 -43zM149 380l-42 42l42 43l43 -43zM437 380l-42 42l42 43l43 -43zM437 284l-42 42l42 43 l43 -43zM245 380l-42 42l42 43l43 -43zM437 188l-42 42l42 43l43 -43zM53 92l-42 42l42 44l43 -44zM245 -4l-42 42l42 44l43 -44zM53 188l-42 42l42 43l43 -43zM341 380l-42 42l42 43l43 -43zM341 92l-42 42l42 44l43 -44z" />
<glyph unicode="e" d="M149 -4l-42 42l42 44l43 -44zM245 380l-42 42l42 43l43 -43zM341 380l-42 42l42 43l43 -43zM149 188l-42 42l42 43l43 -43zM245 -4l-42 42l42 44l43 -44zM245 188l-42 42l42 43l43 -43zM149 380l-42 42l42 43l43 -43zM437 284l-42 42l42 43l43 -43zM53 92l-42 42l42 44 l43 -44zM53 188l-42 42l42 43l43 -43zM437 -4l-42 42l42 44l43 -44zM437 188l-42 42l42 43l43 -43zM341 188l-42 42l42 43l43 -43zM53 284l-42 42l42 43l43 -43zM341 -4l-42 42l42 44l43 -44z" />
<glyph unicode="f" d="M245 -4l-42 42l42 44l43 -44zM437 380l-42 42l42 43l43 -43zM245 92l-42 42l42 44l43 -44zM245 380l-42 42l42 43l43 -43zM437 572l-42 42l42 43l43 -43zM341 -4l-42 42l42 44l43 -44zM341 380l-42 42l42 43l43 -43zM245 188l-42 42l42 43l43 -43zM53 -4l-42 42l42 44 l43 -44zM149 -4l-42 42l42 44l43 -44zM245 284l-42 42l42 43l43 -43zM341 572l-42 42l42 43l43 -43zM437 -4l-42 42l42 44l43 -44zM149 380l-42 42l42 43l43 -43zM245 476l-42 42l42 43l43 -43z" />
<glyph unicode="g" d="M149 -4l-42 42l42 44l43 -44zM245 -4l-42 42l42 44l43 -44zM341 -196l-42 42l42 44l43 -44zM149 380l-42 42l42 43l43 -43zM437 92l-42 42l42 44l43 -44zM437 188l-42 42l42 43l43 -43zM437 284l-42 42l42 43l43 -43zM341 92l-42 42l42 44l43 -44zM437 -100l-42 42l42 44 l43 -44zM53 188l-42 42l42 43l43 -43zM245 380l-42 42l42 43l43 -43zM437 380l-42 42l42 43l43 -43zM149 -196l-42 42l42 44l43 -44zM341 380l-42 42l42 43l43 -43zM53 284l-42 42l42 43l43 -43zM245 -196l-42 42l42 44l43 -44zM53 92l-42 42l42 44l43 -44zM437 -4l-42 42 l42 44l43 -44z" />
<glyph unicode="h" d="M53 -4l-42 42l42 44l43 -44zM53 572l-42 42l42 43l43 -43zM245 380l-42 42l42 43l43 -43zM437 284l-42 42l42 43l43 -43zM437 188l-42 42l42 43l43 -43zM53 92l-42 42l42 44l43 -44zM53 380l-42 42l42 43l43 -43zM53 476l-42 42l42 43l43 -43zM53 284l-42 42l42 43 l43 -43zM341 380l-42 42l42 43l43 -43zM437 92l-42 42l42 44l43 -44zM53 188l-42 42l42 43l43 -43zM149 380l-42 42l42 43l43 -43zM437 -4l-42 42l42 44l43 -44z" />
<glyph unicode="i" d="M53 -4l-42 42l42 44l43 -44zM341 -4l-42 42l42 44l43 -44zM149 -4l-42 42l42 44l43 -44zM245 284l-42 42l42 43l43 -43zM245 92l-42 42l42 44l43 -44zM437 -4l-42 42l42 44l43 -44zM53 380l-42 42l42 43l43 -43zM245 380l-42 42l42 43l43 -43zM245 188l-42 42l42 43 l43 -43zM149 380l-42 42l42 43l43 -43zM245 -4l-42 42l42 44l43 -44zM245 572l-42 42l42 43l43 -43z" />
<glyph unicode="j" d="M53 -100l-42 42l42 44l43 -44zM437 380l-42 42l42 43l43 -43zM341 -196l-42 42l42 44l43 -44zM341 380l-42 42l42 43l43 -43zM437 284l-42 42l42 43l43 -43zM437 -100l-42 42l42 44l43 -44zM437 572l-42 42l42 43l43 -43zM149 -196l-42 42l42 44l43 -44zM245 380l-42 42 l42 43l43 -43zM149 380l-42 42l42 43l43 -43zM437 -4l-42 42l42 44l43 -44zM437 92l-42 42l42 44l43 -44zM245 -196l-42 42l42 44l43 -44zM437 188l-42 42l42 43l43 -43z" />
<glyph unicode="k" d="M53 -4l-42 42l42 44l43 -44zM53 572l-42 42l42 43l43 -43zM53 476l-42 42l42 43l43 -43zM53 188l-42 42l42 43l43 -43zM437 -4l-42 42l42 44l43 -44zM341 380l-42 42l42 43l43 -43zM53 92l-42 42l42 44l43 -44zM149 188l-42 42l42 43l43 -43zM53 284l-42 42l42 43l43 -43 zM341 284l-42 42l42 43l43 -43zM245 188l-42 42l42 43l43 -43zM341 92l-42 42l42 44l43 -44zM53 380l-42 42l42 43l43 -43z" />
<glyph unicode="l" d="M53 -4l-42 42l42 44l43 -44zM245 92l-42 42l42 44l43 -44zM245 476l-42 42l42 43l43 -43zM149 572l-42 42l42 43l43 -43zM341 -4l-42 42l42 44l43 -44zM245 -4l-42 42l42 44l43 -44zM245 188l-42 42l42 43l43 -43zM149 -4l-42 42l42 44l43 -44zM245 284l-42 42l42 43 l43 -43zM437 -4l-42 42l42 44l43 -44zM245 572l-42 42l42 43l43 -43zM53 572l-42 42l42 43l43 -43zM245 380l-42 42l42 43l43 -43z" />
<glyph unicode="m" d="M53 -4l-42 42l42 44l43 -44zM437 380l-42 42l42 43l43 -43zM437 92l-42 42l42 44l43 -44zM53 284l-42 42l42 43l43 -43zM245 -4l-42 42l42 44l43 -44zM245 188l-42 42l42 43l43 -43zM341 284l-42 42l42 43l43 -43zM53 380l-42 42l42 43l43 -43zM53 92l-42 42l42 44 l43 -44zM245 284l-42 42l42 43l43 -43zM149 284l-42 42l42 43l43 -43zM245 380l-42 42l42 43l43 -43zM437 284l-42 42l42 43l43 -43zM245 92l-42 42l42 44l43 -44zM437 -4l-42 42l42 44l43 -44zM53 188l-42 42l42 43l43 -43zM437 188l-42 42l42 43l43 -43z" />
<glyph unicode="n" d="M53 -4l-42 42l42 44l43 -44zM437 284l-42 42l42 43l43 -43zM437 -4l-42 42l42 44l43 -44zM149 284l-42 42l42 43l43 -43zM53 380l-42 42l42 43l43 -43zM53 188l-42 42l42 43l43 -43zM245 380l-42 42l42 43l43 -43zM53 92l-42 42l42 44l43 -44zM341 380l-42 42l42 43 l43 -43zM53 284l-42 42l42 43l43 -43zM437 92l-42 42l42 44l43 -44zM437 188l-42 42l42 43l43 -43z" />
<glyph unicode="o" d="M149 -4l-42 42l42 44l43 -44zM437 284l-42 42l42 43l43 -43zM149 380l-42 42l42 43l43 -43zM437 188l-42 42l42 43l43 -43zM53 188l-42 42l42 43l43 -43zM245 380l-42 42l42 43l43 -43zM53 284l-42 42l42 43l43 -43zM341 380l-42 42l42 43l43 -43zM341 -4l-42 42l42 44 l43 -44zM53 92l-42 42l42 44l43 -44zM437 92l-42 42l42 44l43 -44zM245 -4l-42 42l42 44l43 -44z" />
<glyph unicode="p" d="M53 -4l-42 42l42 44l43 -44zM53 -196l-42 42l42 44l43 -44zM53 -100l-42 42l42 44l43 -44zM437 284l-42 42l42 43l43 -43zM341 380l-42 42l42 43l43 -43zM245 380l-42 42l42 43l43 -43zM53 284l-42 42l42 43l43 -43zM53 92l-42 42l42 44l43 -44zM149 284l-42 42l42 43 l43 -43zM53 188l-42 42l42 43l43 -43zM437 92l-42 42l42 44l43 -44zM53 380l-42 42l42 43l43 -43zM437 188l-42 42l42 43l43 -43zM245 -4l-42 42l42 44l43 -44zM341 -4l-42 42l42 44l43 -44zM149 -4l-42 42l42 44l43 -44z" />
<glyph unicode="q" d="M149 -4l-42 42l42 44l43 -44zM437 92l-42 42l42 44l43 -44zM437 -100l-42 42l42 44l43 -44zM437 -4l-42 42l42 44l43 -44zM437 188l-42 42l42 43l43 -43zM53 284l-42 42l42 43l43 -43zM149 380l-42 42l42 43l43 -43zM341 92l-42 42l42 44l43 -44zM437 -196l-42 42l42 44 l43 -44zM245 380l-42 42l42 43l43 -43zM437 284l-42 42l42 43l43 -43zM53 188l-42 42l42 43l43 -43zM53 92l-42 42l42 44l43 -44zM245 -4l-42 42l42 44l43 -44zM341 380l-42 42l42 43l43 -43zM437 380l-42 42l42 43l43 -43z" />
<glyph unicode="r" d="M149 -4l-42 42l42 44l43 -44zM341 -4l-42 42l42 44l43 -44zM149 92l-42 42l42 44l43 -44zM437 380l-42 42l42 43l43 -43zM245 284l-42 42l42 43l43 -43zM245 -4l-42 42l42 44l43 -44zM149 380l-42 42l42 43l43 -43zM53 -4l-42 42l42 44l43 -44zM341 380l-42 42l42 43 l43 -43zM149 284l-42 42l42 43l43 -43zM149 188l-42 42l42 43l43 -43zM53 380l-42 42l42 43l43 -43z" />
<glyph unicode="s" d="M53 -4l-42 42l42 44l43 -44zM149 188l-42 42l42 43l43 -43zM437 380l-42 42l42 43l43 -43zM437 92l-42 42l42 44l43 -44zM341 380l-42 42l42 43l43 -43zM245 -4l-42 42l42 44l43 -44zM245 188l-42 42l42 43l43 -43zM149 -4l-42 42l42 44l43 -44zM245 380l-42 42l42 43 l43 -43zM149 380l-42 42l42 43l43 -43zM53 284l-42 42l42 43l43 -43zM341 188l-42 42l42 43l43 -43zM341 -4l-42 42l42 44l43 -44z" />
<glyph unicode="t" d="M341 -4l-42 42l42 44l43 -44zM245 380l-42 42l42 43l43 -43zM245 476l-42 42l42 43l43 -43zM437 380l-42 42l42 43l43 -43zM341 380l-42 42l42 43l43 -43zM245 188l-42 42l42 43l43 -43zM149 380l-42 42l42 43l43 -43zM437 -4l-42 42l42 44l43 -44zM245 284l-42 42l42 43 l43 -43zM245 92l-42 42l42 44l43 -44zM53 380l-42 42l42 43l43 -43z" />
<glyph unicode="u" d="M149 -4l-42 42l42 44l43 -44zM53 92l-42 42l42 44l43 -44zM437 380l-42 42l42 43l43 -43zM437 188l-42 42l42 43l43 -43zM437 92l-42 42l42 44l43 -44zM341 92l-42 42l42 44l43 -44zM437 284l-42 42l42 43l43 -43zM53 284l-42 42l42 43l43 -43zM53 188l-42 42l42 43 l43 -43zM245 -4l-42 42l42 44l43 -44zM437 -4l-42 42l42 44l43 -44zM53 380l-42 42l42 43l43 -43z" />
<glyph unicode="v" d="M245 -4l-42 42l42 44l43 -44zM437 380l-42 42l42 43l43 -43zM53 380l-42 42l42 43l43 -43zM149 188l-42 42l42 43l43 -43zM149 92l-42 42l42 44l43 -44zM341 92l-42 42l42 44l43 -44zM437 284l-42 42l42 43l43 -43zM341 188l-42 42l42 43l43 -43zM53 284l-42 42l42 43 l43 -43z" />
<glyph unicode="w" d="M149 -4l-42 42l42 44l43 -44zM437 380l-42 42l42 43l43 -43zM341 -4l-42 42l42 44l43 -44zM53 284l-42 42l42 43l43 -43zM437 284l-42 42l42 43l43 -43zM53 188l-42 42l42 43l43 -43zM245 188l-42 42l42 43l43 -43zM149 92l-42 42l42 44l43 -44zM437 188l-42 42l42 43 l43 -43zM53 380l-42 42l42 43l43 -43zM245 284l-42 42l42 43l43 -43zM341 92l-42 42l42 44l43 -44z" />
<glyph unicode="x" d="M53 -4l-42 42l42 44l43 -44zM437 380l-42 42l42 43l43 -43zM437 284l-42 42l42 43l43 -43zM53 284l-42 42l42 43l43 -43zM437 92l-42 42l42 44l43 -44zM245 188l-42 42l42 43l43 -43zM53 380l-42 42l42 43l43 -43zM437 -4l-42 42l42 44l43 -44zM149 188l-42 42l42 43 l43 -43zM53 92l-42 42l42 44l43 -44zM341 188l-42 42l42 43l43 -43z" />
<glyph unicode="y" d="M245 -4l-42 42l42 44l43 -44zM53 -196l-42 42l42 44l43 -44zM437 380l-42 42l42 43l43 -43zM437 284l-42 42l42 43l43 -43zM149 92l-42 42l42 44l43 -44zM245 -100l-42 42l42 44l43 -44zM53 380l-42 42l42 43l43 -43zM53 284l-42 42l42 43l43 -43zM341 92l-42 42l42 44 l43 -44zM149 188l-42 42l42 43l43 -43zM341 188l-42 42l42 43l43 -43zM149 -196l-42 42l42 44l43 -44z" />
<glyph unicode="z" d="M53 -4l-42 42l42 44l43 -44zM149 92l-42 42l42 44l43 -44zM437 380l-42 42l42 43l43 -43zM437 -4l-42 42l42 44l43 -44zM341 380l-42 42l42 43l43 -43zM245 -4l-42 42l42 44l43 -44zM245 188l-42 42l42 43l43 -43zM149 -4l-42 42l42 44l43 -44zM245 380l-42 42l42 43 l43 -43zM149 380l-42 42l42 43l43 -43zM53 380l-42 42l42 43l43 -43zM341 284l-42 42l42 43l43 -43zM341 -4l-42 42l42 44l43 -44z" />
<glyph unicode="{" d="M341 -4l-42 42l42 44l43 -44zM149 284l-42 42l42 43l43 -43zM341 572l-42 42l42 43l43 -43zM245 188l-42 42l42 43l43 -43zM245 380l-42 42l42 43l43 -43zM245 476l-42 42l42 43l43 -43zM245 92l-42 42l42 44l43 -44z" />
<glyph unicode="|" d="M245 -4l-42 42l42 44l43 -44zM245 284l-42 42l42 43l43 -43zM245 572l-42 42l42 43l43 -43zM245 188l-42 42l42 43l43 -43zM245 380l-42 42l42 43l43 -43zM245 92l-42 42l42 44l43 -44zM245 476l-42 42l42 43l43 -43z" />
<glyph unicode="}" d="M247 -4l-42 42l42 44l43 -44zM439 284l-42 42l42 43l43 -43zM247 572l-42 42l42 43l43 -43zM343 188l-42 42l42 43l43 -43zM343 380l-42 42l42 43l43 -43zM343 476l-42 42l42 43l43 -43zM343 92l-42 42l42 44l43 -44z" />
<glyph unicode="~" d="M341 188l-42 42l42 43l43 -43zM437 284l-42 42l42 43l43 -43zM149 380l-42 42l42 43l43 -43zM245 284l-42 42l42 43l43 -43zM53 284l-42 42l42 43l43 -43z" />
<glyph unicode="&#xa0;" />
<glyph unicode="&#xa1;" d="M253 637l42 42l43 -42l-43 -44zM253 61l42 42l43 -42l-43 -43zM253 541l42 42l43 -42l-43 -44zM253 253l42 42l43 -42l-43 -43zM253 349l42 42l43 -42l-43 -43zM253 157l42 42l43 -42l-43 -43z" />
<glyph unicode="&#xa2;" d="M149 -4l-42 42l42 44l43 -44zM341 -4l-42 42l42 44l43 -44zM245 476l-42 42l42 43l43 -43zM53 188l-42 42l42 43l43 -43zM149 380l-42 42l42 43l43 -43zM341 380l-42 42l42 43l43 -43zM245 -4l-42 42l42 44l43 -44zM245 284l-42 42l42 43l43 -43zM437 92l-42 42l42 44 l43 -44zM437 284l-42 42l42 43l43 -43zM245 -100l-42 42l42 44l43 -44zM53 92l-42 42l42 44l43 -44zM53 284l-42 42l42 43l43 -43zM245 188l-42 42l42 43l43 -43zM245 380l-42 42l42 43l43 -43zM245 92l-42 42l42 44l43 -44z" />
<glyph unicode="&#xa3;" d="M245 -4l-42 42l42 44l43 -44zM149 -4l-42 42l42 44l43 -44zM437 476l-42 42l42 43l43 -43zM149 188l-42 42l42 43l43 -43zM53 284l-42 42l42 43l43 -43zM245 572l-42 42l42 43l43 -43zM437 -4l-42 42l42 44l43 -44zM53 -4l-42 42l42 44l43 -44zM149 92l-42 42l42 44 l43 -44zM341 572l-42 42l42 43l43 -43zM149 476l-42 42l42 43l43 -43zM149 380l-42 42l42 43l43 -43zM245 284l-42 42l42 43l43 -43zM341 284l-42 42l42 43l43 -43zM149 284l-42 42l42 43l43 -43zM341 -4l-42 42l42 44l43 -44z" />
<glyph unicode="&#xa4;" d="M53 -4l-42 42l42 44l43 -44zM245 284l-42 42l42 43l43 -43zM437 380l-42 42l42 43l43 -43zM341 188l-42 42l42 43l43 -43zM437 -4l-42 42l42 44l43 -44zM341 92l-42 42l42 44l43 -44zM149 284l-42 42l42 43l43 -43zM149 188l-42 42l42 43l43 -43zM149 92l-42 42l42 44 l43 -44zM53 380l-42 42l42 43l43 -43zM341 284l-42 42l42 43l43 -43zM245 92l-42 42l42 44l43 -44z" />
<glyph unicode="&#xa5;" d="M245 -4l-42 42l42 44l43 -44zM341 188l-42 42l42 43l43 -43zM437 188l-42 42l42 43l43 -43zM437 572l-42 42l42 43l43 -43zM437 476l-42 42l42 43l43 -43zM149 380l-42 42l42 43l43 -43zM245 92l-42 42l42 44l43 -44zM53 188l-42 42l42 43l43 -43zM245 188l-42 42l42 43 l43 -43zM149 188l-42 42l42 43l43 -43zM341 380l-42 42l42 43l43 -43zM53 476l-42 42l42 43l43 -43zM245 284l-42 42l42 43l43 -43zM53 572l-42 42l42 43l43 -43z" />
<glyph unicode="&#xa6;" d="M245 -4l-42 42l42 44l43 -44zM245 572l-42 42l42 43l43 -43zM245 92l-42 42l42 44l43 -44zM245 380l-42 42l42 43l43 -43zM245 188l-42 42l42 43l43 -43zM245 476l-42 42l42 43l43 -43z" />
<glyph unicode="&#xa7;" d="M246 -4l-42 42l42 44l43 -44zM150 -4l-42 42l42 44l43 -44zM438 572l-42 42l42 43l43 -43zM150 476l-42 42l42 43l43 -43zM438 284l-42 42l42 43l43 -43zM438 92l-42 42l42 44l43 -44zM246 572l-42 42l42 43l43 -43zM342 188l-42 42l42 43l43 -43zM246 188l-42 42l42 43 l43 -43zM150 284l-42 42l42 43l43 -43zM342 -4l-42 42l42 44l43 -44zM342 380l-42 42l42 43l43 -43zM342 572l-42 42l42 43l43 -43zM246 380l-42 42l42 43l43 -43z" />
<glyph unicode="&#xa8;" d="M53 572l-42 42l42 43l43 -43zM437 668l-42 42l42 43l43 -43zM53 668l-42 42l42 43l43 -43zM437 572l-42 42l42 43l43 -43z" />
<glyph unicode="&#xa9;" d="M149 -4l-42 42l42 44l43 -44zM53 92l-42 42l42 44l43 -44zM341 380l-42 42l42 43l43 -43zM53 188l-42 42l42 43l43 -43zM437 284l-42 42l42 43l43 -43zM149 188l-42 42l42 43l43 -43zM245 92l-42 42l42 44l43 -44zM341 -4l-42 42l42 44l43 -44zM149 380l-42 42l42 43 l43 -43zM53 284l-42 42l42 43l43 -43zM245 -4l-42 42l42 44l43 -44zM245 284l-42 42l42 43l43 -43zM437 188l-42 42l42 43l43 -43zM437 92l-42 42l42 44l43 -44zM245 380l-42 42l42 43l43 -43z" />
<glyph unicode="&#xaa;" d="M147 284l-42 42l42 43l43 -43zM147 572l-42 42l42 43l43 -43zM51 380l-42 42l42 43l43 -43zM243 476l-42 42l42 43l43 -43zM243 380l-42 42l42 43l43 -43zM147 380l-42 42l42 43l43 -43zM243 284l-42 42l42 43l43 -43z" />
<glyph unicode="&#xab;" d="M437 -4l-42 42l42 44l43 -44zM245 380l-42 42l42 43l43 -43zM341 92l-42 42l42 44l43 -44zM341 284l-42 42l42 43l43 -43zM149 92l-42 42l42 44l43 -44zM245 -4l-42 42l42 44l43 -44zM437 380l-42 42l42 43l43 -43zM53 188l-42 42l42 43l43 -43zM245 188l-42 42l42 43 l43 -43zM149 284l-42 42l42 43l43 -43z" />
<glyph unicode="&#xac;" d="M437 92l-42 42l42 44l43 -44zM245 188l-42 42l42 43l43 -43zM437 -4l-42 42l42 44l43 -44zM149 188l-42 42l42 43l43 -43zM341 188l-42 42l42 43l43 -43zM437 188l-42 42l42 43l43 -43zM53 188l-42 42l42 43l43 -43z" />
<glyph unicode="&#xad;" d="M149 188l-42 42l42 43l43 -43zM245 188l-42 42l42 43l43 -43zM341 188l-42 42l42 43l43 -43z" />
<glyph unicode="&#xae;" d="M149 188l-42 42l42 43l43 -43zM53 284l-42 42l42 43l43 -43zM245 476l-42 42l42 43l43 -43zM437 380l-42 42l42 43l43 -43zM245 188l-42 42l42 43l43 -43zM341 476l-42 42l42 43l43 -43zM341 188l-42 42l42 43l43 -43zM341 284l-42 42l42 43l43 -43zM53 476l-42 42l42 43 l43 -43zM437 476l-42 42l42 43l43 -43zM149 572l-42 42l42 43l43 -43zM341 572l-42 42l42 43l43 -43zM245 380l-42 42l42 43l43 -43zM53 380l-42 42l42 43l43 -43zM437 284l-42 42l42 43l43 -43zM245 572l-42 42l42 43l43 -43z" />
<glyph unicode="&#xaf;" d="M149 572l-42 42l42 43l43 -43zM341 572l-42 42l42 43l43 -43zM245 572l-42 42l42 43l43 -43z" />
<glyph unicode="&#xb0;" d="M147 380l-42 42l42 43l43 -43zM51 476l-42 42l42 43l43 -43zM147 572l-42 42l42 43l43 -43zM243 476l-42 42l42 43l43 -43z" />
<glyph unicode="&#xb1;" d="M53 -4l-42 42l42 44l43 -44zM245 284l-42 42l42 43l43 -43zM245 380l-42 42l42 43l43 -43zM53 284l-42 42l42 43l43 -43zM149 284l-42 42l42 43l43 -43zM437 -4l-42 42l42 44l43 -44zM149 -4l-42 42l42 44l43 -44zM245 188l-42 42l42 43l43 -43zM245 -4l-42 42l42 44 l43 -44zM437 284l-42 42l42 43l43 -43zM341 284l-42 42l42 43l43 -43zM341 -4l-42 42l42 44l43 -44z" />
<glyph unicode="&#xb2;" d="M50 284l-42 42l42 43l43 -43zM146 284l-42 42l42 43l43 -43zM50 572l-42 42l42 43l43 -43zM50 380l-42 42l42 43l43 -43zM146 476l-42 42l42 43l43 -43z" />
<glyph unicode="&#xb3;" d="M50 284l-42 42l42 43l43 -43zM146 380l-42 42l42 43l43 -43zM146 284l-42 42l42 43l43 -43zM146 476l-42 42l42 43l43 -43zM50 572l-42 42l42 43l43 -43z" />
<glyph unicode="&#xb4;" d="M245 572l-42 42l42 43l43 -43zM149 572l-42 42l42 43l43 -43zM341 668l-42 42l42 43l43 -43z" />
<glyph unicode="&#xb5;" d="M53 -4l-42 42l42 44l43 -44zM53 380l-42 42l42 43l43 -43zM53 -100l-42 42l42 44l43 -44zM53 188l-42 42l42 43l43 -43zM53 284l-42 42l42 43l43 -43zM437 284l-42 42l42 43l43 -43zM341 92l-42 42l42 44l43 -44zM437 380l-42 42l42 43l43 -43zM53 92l-42 42l42 44 l43 -44zM437 -4l-42 42l42 44l43 -44zM149 -4l-42 42l42 44l43 -44zM437 92l-42 42l42 44l43 -44zM437 188l-42 42l42 43l43 -43zM53 -196l-42 42l42 44l43 -44zM245 -4l-42 42l42 44l43 -44z" />
<glyph unicode="&#xb6;" d="M437 -4l-42 42l42 44l43 -44zM149 476l-42 42l42 43l43 -43zM245 -4l-42 42l42 44l43 -44zM245 284l-42 42l42 43l43 -43zM149 284l-42 42l42 43l43 -43zM437 572l-42 42l42 43l43 -43zM245 380l-42 42l42 43l43 -43zM149 572l-42 42l42 43l43 -43zM245 572l-42 42l42 43 l43 -43zM437 380l-42 42l42 43l43 -43zM149 380l-42 42l42 43l43 -43zM437 188l-42 42l42 43l43 -43zM245 476l-42 42l42 43l43 -43zM245 92l-42 42l42 44l43 -44zM437 476l-42 42l42 43l43 -43zM437 284l-42 42l42 43l43 -43zM53 476l-42 42l42 43l43 -43zM437 92l-42 42 l42 44l43 -44zM245 188l-42 42l42 43l43 -43zM53 380l-42 42l42 43l43 -43z" />
<glyph unicode="&#xb7;" d="M147 188l-42 42l42 43l43 -43zM147 284l-42 42l42 43l43 -43z" />
<glyph unicode="&#xb8;" d="M244 -100l-42 42l42 44l43 -44zM148 -196l-42 42l42 44l43 -44z" />
<glyph unicode="&#xb9;" d="M51 284l-42 42l42 43l43 -43zM147 380l-42 42l42 43l43 -43zM51 572l-42 42l42 43l43 -43zM147 284l-42 42l42 43l43 -43zM147 476l-42 42l42 43l43 -43zM243 284l-42 42l42 43l43 -43zM147 572l-42 42l42 43l43 -43z" />
<glyph unicode="&#xba;" d="M147 380l-42 42l42 43l43 -43zM243 476l-42 42l42 43l43 -43zM147 572l-42 42l42 43l43 -43zM51 476l-42 42l42 43l43 -43z" />
<glyph unicode="&#xbb;" d="M53 -4l-42 42l42 44l43 -44zM341 284l-42 42l42 43l43 -43zM245 380l-42 42l42 43l43 -43zM245 188l-42 42l42 43l43 -43zM149 284l-42 42l42 43l43 -43zM245 -4l-42 42l42 44l43 -44zM341 92l-42 42l42 44l43 -44zM437 188l-42 42l42 43l43 -43zM53 380l-42 42l42 43 l43 -43zM149 92l-42 42l42 44l43 -44z" />
<glyph unicode="&#xbc;" d="M150 -4l-42 42l42 44l43 -44zM150 476l-42 42l42 43l43 -43zM150 572l-42 42l42 43l43 -43zM534 188l-42 42l42 43l43 -43zM246 284l-42 42l42 43l43 -43zM438 476l-42 42l42 43l43 -43zM150 380l-42 42l42 43l43 -43zM438 188l-42 42l42 43l43 -43zM534 -4l-42 42l42 44 l43 -44zM54 572l-42 42l42 43l43 -43zM342 380l-42 42l42 43l43 -43zM534 92l-42 42l42 44l43 -44zM150 92l-42 42l42 44l43 -44zM534 284l-42 42l42 43l43 -43zM438 572l-42 42l42 43l43 -43zM246 188l-42 42l42 43l43 -43z" />
<glyph unicode="&#xbd;" d="M150 -4l-42 42l42 44l43 -44zM150 572l-42 42l42 43l43 -43zM438 572l-42 42l42 43l43 -43zM438 92l-42 42l42 44l43 -44zM438 -4l-42 42l42 44l43 -44zM342 380l-42 42l42 43l43 -43zM438 284l-42 42l42 43l43 -43zM54 572l-42 42l42 43l43 -43zM150 380l-42 42l42 43 l43 -43zM534 188l-42 42l42 43l43 -43zM150 92l-42 42l42 44l43 -44zM438 476l-42 42l42 43l43 -43zM246 188l-42 42l42 43l43 -43zM534 -4l-42 42l42 44l43 -44zM246 284l-42 42l42 43l43 -43zM150 476l-42 42l42 43l43 -43z" />
<glyph unicode="&#xbe;" d="M150 -4l-42 42l42 44l43 -44zM534 284l-42 42l42 43l43 -43zM534 188l-42 42l42 43l43 -43zM54 572l-42 42l42 43l43 -43zM150 476l-42 42l42 43l43 -43zM534 92l-42 42l42 44l43 -44zM150 380l-42 42l42 43l43 -43zM438 476l-42 42l42 43l43 -43zM438 572l-42 42l42 43 l43 -43zM246 188l-42 42l42 43l43 -43zM54 284l-42 42l42 43l43 -43zM246 284l-42 42l42 43l43 -43zM438 188l-42 42l42 43l43 -43zM150 92l-42 42l42 44l43 -44zM342 380l-42 42l42 43l43 -43zM150 284l-42 42l42 43l43 -43zM534 -4l-42 42l42 44l43 -44z" />
<glyph unicode="&#xbf;" d="M280 679l42 -42l-42 -44l-43 44zM280 583l42 -42l-42 -44l-43 44zM184 391l42 -42l-42 -43l-43 43zM376 103l42 -42l-42 -43l-43 43zM472 199l42 -42l-42 -43l-43 43zM88 199l42 -42l-42 -43l-43 43zM280 103l42 -42l-42 -43l-43 43zM184 103l42 -42l-42 -43l-43 43z M280 391l42 -42l-42 -43l-43 43zM88 295l42 -42l-42 -43l-43 43z" />
<glyph unicode="&#xc0;" d="M102 -4l-43 43l43 44l44 -44zM394 190l-43 43l43 44l43 -44zM102 482l-43 42l43 44l44 -44zM491 190l-43 43l43 44l43 -44zM491 287l-43 43l43 44l43 -44zM296 190l-42 43l42 44l44 -44zM491 385l-43 42l43 44l43 -44zM199 190l-42 43l42 44l44 -44zM199 579l-42 43 l42 43l44 -43zM102 287l-43 43l43 44l44 -44zM491 482l-43 42l43 44l43 -44zM296 579l-42 43l42 43l44 -43zM102 385l-43 42l43 44l44 -44zM491 -4l-43 43l43 44l43 -44zM491 93l-43 43l43 44l43 -44zM102 190l-43 43l43 44l44 -44zM394 579l-43 43l43 43l43 -43zM102 93 l-43 43l43 44l44 -44zM393 797l-42 42l42 43l43 -43zM201 893l-42 42l42 43l43 -43zM297 797l-42 42l42 43l43 -43z" />
<glyph unicode="&#xc1;" d="M102 -4l-43 43l43 44l44 -44zM394 190l-43 43l43 44l43 -44zM102 482l-43 42l43 44l44 -44zM491 190l-43 43l43 44l43 -44zM491 287l-43 43l43 44l43 -44zM296 190l-42 43l42 44l44 -44zM491 385l-43 42l43 44l43 -44zM199 190l-42 43l42 44l44 -44zM199 579l-42 43 l42 43l44 -43zM102 287l-43 43l43 44l44 -44zM491 482l-43 42l43 44l43 -44zM296 579l-42 43l42 43l44 -43zM102 385l-43 42l43 44l44 -44zM491 -4l-43 43l43 44l43 -44zM491 93l-43 43l43 44l43 -44zM102 190l-43 43l43 44l44 -44zM394 579l-43 43l43 43l43 -43zM102 93 l-43 43l43 44l44 -44zM295 797l-42 42l42 43l43 -43zM199 797l-42 42l42 43l43 -43zM391 893l-42 42l42 43l43 -43z" />
<glyph unicode="&#xc2;" d="M102 -4l-43 43l43 44l44 -44zM394 190l-43 43l43 44l43 -44zM102 482l-43 42l43 44l44 -44zM491 190l-43 43l43 44l43 -44zM491 287l-43 43l43 44l43 -44zM296 190l-42 43l42 44l44 -44zM491 385l-43 42l43 44l43 -44zM199 190l-42 43l42 44l44 -44zM199 579l-42 43 l42 43l44 -43zM102 287l-43 43l43 44l44 -44zM491 482l-43 42l43 44l43 -44zM296 579l-42 43l42 43l44 -43zM102 385l-43 42l43 44l44 -44zM491 -4l-43 43l43 44l43 -44zM491 93l-43 43l43 44l43 -44zM102 190l-43 43l43 44l44 -44zM394 579l-43 43l43 43l43 -43zM102 93 l-43 43l43 44l44 -44zM199 797l-42 42l42 43l43 -43zM391 797l-42 42l42 43l43 -43zM295 893l-42 42l42 43l43 -43z" />
<glyph unicode="&#xc3;" d="M102 -4l-43 43l43 44l44 -44zM394 190l-43 43l43 44l43 -44zM102 482l-43 42l43 44l44 -44zM491 190l-43 43l43 44l43 -44zM491 287l-43 43l43 44l43 -44zM296 190l-42 43l42 44l44 -44zM491 385l-43 42l43 44l43 -44zM199 190l-42 43l42 44l44 -44zM199 579l-42 43 l42 43l44 -43zM102 287l-43 43l43 44l44 -44zM491 482l-43 42l43 44l43 -44zM296 579l-42 43l42 43l44 -43zM102 385l-43 42l43 44l44 -44zM491 -4l-43 43l43 44l43 -44zM491 93l-43 43l43 44l43 -44zM102 190l-43 43l43 44l44 -44zM394 579l-43 43l43 43l43 -43zM102 93 l-43 43l43 44l44 -44zM199 893l-42 42l42 43l43 -43zM391 797l-42 42l42 43l43 -43zM487 893l-42 42l42 43l43 -43zM295 797l-42 42l42 43l43 -43zM103 797l-42 42l42 43l43 -43z" />
<glyph unicode="&#xc4;" d="M102 -4l-43 43l43 44l44 -44zM394 190l-43 43l43 44l43 -44zM102 482l-43 42l43 44l44 -44zM491 190l-43 43l43 44l43 -44zM491 287l-43 43l43 44l43 -44zM296 190l-42 43l42 44l44 -44zM491 385l-43 42l43 44l43 -44zM199 190l-42 43l42 44l44 -44zM199 579l-42 43 l42 43l44 -43zM102 287l-43 43l43 44l44 -44zM491 482l-43 42l43 44l43 -44zM296 579l-42 43l42 43l44 -43zM102 385l-43 42l43 44l44 -44zM491 -4l-43 43l43 44l43 -44zM491 93l-43 43l43 44l43 -44zM102 190l-43 43l43 44l44 -44zM394 579l-43 43l43 43l43 -43zM102 93 l-43 43l43 44l44 -44zM103 797l-42 42l42 43l43 -43zM487 893l-42 42l42 43l43 -43zM103 893l-42 42l42 43l43 -43zM487 797l-42 42l42 43l43 -43z" />
<glyph unicode="&#xc5;" d="M102 -4l-43 43l43 44l44 -44zM394 190l-43 43l43 44l43 -44zM102 482l-43 42l43 44l44 -44zM491 190l-43 43l43 44l43 -44zM491 287l-43 43l43 44l43 -44zM296 190l-42 43l42 44l44 -44zM491 385l-43 42l43 44l43 -44zM199 190l-42 43l42 44l44 -44zM199 579l-42 43 l42 43l44 -43zM102 287l-43 43l43 44l44 -44zM491 482l-43 42l43 44l43 -44zM296 579l-42 43l42 43l44 -43zM102 385l-43 42l43 44l44 -44zM491 -4l-43 43l43 44l43 -44zM491 93l-43 43l43 44l43 -44zM102 190l-43 43l43 44l44 -44zM394 579l-43 43l43 43l43 -43zM102 93 l-43 43l43 44l44 -44zM295 797l-42 42l42 43l43 -43zM391 893l-42 42l42 43l43 -43zM295 989l-42 42l42 43l43 -43zM199 893l-42 42l42 43l43 -43z" />
<glyph unicode="&#xc6;" d="M52 -4l-43 43l43 44l44 -44zM246 -4l-42 43l42 44l44 -44zM344 579l-43 43l43 43l43 -43zM52 93l-43 43l43 44l44 -44zM246 190l-42 43l42 44l44 -44zM52 190l-43 43l43 44l44 -44zM149 579l-42 43l42 43l44 -43zM246 93l-42 43l42 44l44 -44zM52 482l-43 42l43 44 l44 -44zM441 -4l-43 43l43 44l43 -44zM52 287l-43 43l43 44l44 -44zM246 385l-42 42l42 44l44 -44zM441 579l-43 43l43 43l43 -43zM246 482l-42 42l42 44l44 -44zM52 385l-43 42l43 44l44 -44zM246 287l-42 43l42 44l44 -44zM344 287l-43 43l43 44l43 -44zM149 190l-42 43 l42 44l44 -44zM246 579l-42 43l42 43l44 -43zM344 -4l-43 43l43 44l43 -44z" />
<glyph unicode="&#xc7;" d="M199 -4l-42 43l42 44l44 -44zM394 579l-43 43l43 43l43 -43zM102 190l-43 43l43 44l44 -44zM491 93l-43 43l43 44l43 -44zM296 579l-42 43l42 43l44 -43zM394 -4l-43 43l43 44l43 -44zM102 287l-43 43l43 44l44 -44zM296 -4l-42 43l42 44l44 -44zM199 579l-42 43l42 43 l44 -43zM491 482l-43 42l43 44l43 -44zM102 482l-43 42l43 44l44 -44zM102 385l-43 42l43 44l44 -44zM102 93l-43 43l43 44l44 -44zM294 -100l-42 42l42 44l43 -44zM198 -196l-42 42l42 44l43 -44z" />
<glyph unicode="&#xc8;" d="M102 -4l-43 43l43 44l44 -44zM102 287l-43 43l43 44l44 -44zM102 482l-43 42l43 44l44 -44zM296 -4l-42 43l42 44l44 -44zM491 579l-43 43l43 43l43 -43zM102 190l-43 43l43 44l44 -44zM102 93l-43 43l43 44l44 -44zM296 579l-42 43l42 43l44 -43zM199 579l-42 43l42 43 l44 -43zM394 579l-43 43l43 43l43 -43zM102 385l-43 42l43 44l44 -44zM394 287l-43 43l43 44l43 -44zM199 -4l-42 43l42 44l44 -44zM491 -4l-43 43l43 44l43 -44zM199 287l-42 43l42 44l44 -44zM296 287l-42 43l42 44l44 -44zM394 -4l-43 43l43 44l43 -44zM102 579l-43 43 l43 43l44 -43zM393 797l-42 42l42 43l43 -43zM201 893l-42 42l42 43l43 -43zM297 797l-42 42l42 43l43 -43z" />
<glyph unicode="&#xc9;" d="M102 -4l-43 43l43 44l44 -44zM102 287l-43 43l43 44l44 -44zM102 482l-43 42l43 44l44 -44zM296 -4l-42 43l42 44l44 -44zM491 579l-43 43l43 43l43 -43zM102 190l-43 43l43 44l44 -44zM102 93l-43 43l43 44l44 -44zM296 579l-42 43l42 43l44 -43zM199 579l-42 43l42 43 l44 -43zM394 579l-43 43l43 43l43 -43zM102 385l-43 42l43 44l44 -44zM394 287l-43 43l43 44l43 -44zM199 -4l-42 43l42 44l44 -44zM491 -4l-43 43l43 44l43 -44zM199 287l-42 43l42 44l44 -44zM296 287l-42 43l42 44l44 -44zM394 -4l-43 43l43 44l43 -44zM102 579l-43 43 l43 43l44 -43zM295 797l-42 42l42 43l43 -43zM199 797l-42 42l42 43l43 -43zM391 893l-42 42l42 43l43 -43z" />
<glyph unicode="&#xca;" d="M102 -4l-43 43l43 44l44 -44zM102 287l-43 43l43 44l44 -44zM102 482l-43 42l43 44l44 -44zM296 -4l-42 43l42 44l44 -44zM491 579l-43 43l43 43l43 -43zM102 190l-43 43l43 44l44 -44zM102 93l-43 43l43 44l44 -44zM296 579l-42 43l42 43l44 -43zM199 579l-42 43l42 43 l44 -43zM394 579l-43 43l43 43l43 -43zM102 385l-43 42l43 44l44 -44zM394 287l-43 43l43 44l43 -44zM199 -4l-42 43l42 44l44 -44zM491 -4l-43 43l43 44l43 -44zM199 287l-42 43l42 44l44 -44zM296 287l-42 43l42 44l44 -44zM394 -4l-43 43l43 44l43 -44zM102 579l-43 43 l43 43l44 -43zM199 797l-42 42l42 43l43 -43zM391 797l-42 42l42 43l43 -43zM295 893l-42 42l42 43l43 -43z" />
<glyph unicode="&#xcb;" d="M102 -4l-43 43l43 44l44 -44zM102 287l-43 43l43 44l44 -44zM102 482l-43 42l43 44l44 -44zM296 -4l-42 43l42 44l44 -44zM491 579l-43 43l43 43l43 -43zM102 190l-43 43l43 44l44 -44zM102 93l-43 43l43 44l44 -44zM296 579l-42 43l42 43l44 -43zM199 579l-42 43l42 43 l44 -43zM394 579l-43 43l43 43l43 -43zM102 385l-43 42l43 44l44 -44zM394 287l-43 43l43 44l43 -44zM199 -4l-42 43l42 44l44 -44zM491 -4l-43 43l43 44l43 -44zM199 287l-42 43l42 44l44 -44zM296 287l-42 43l42 44l44 -44zM394 -4l-43 43l43 44l43 -44zM102 579l-43 43 l43 43l44 -43zM103 797l-42 42l42 43l43 -43zM487 893l-42 42l42 43l43 -43zM103 893l-42 42l42 43l43 -43zM487 797l-42 42l42 43l43 -43z" />
<glyph unicode="&#xcc;" d="M199 -4l-42 43l42 44l44 -44zM296 -4l-42 43l42 44l44 -44zM491 579l-43 43l43 43l43 -43zM296 287l-42 43l42 44l44 -44zM296 190l-42 43l42 44l44 -44zM296 385l-42 42l42 44l44 -44zM102 -4l-43 43l43 44l44 -44zM102 579l-43 43l43 43l44 -43zM394 579l-43 43l43 43 l43 -43zM491 -4l-43 43l43 44l43 -44zM296 93l-42 43l42 44l44 -44zM394 -4l-43 43l43 44l43 -44zM296 482l-42 42l42 44l44 -44zM296 579l-42 43l42 43l44 -43zM199 579l-42 43l42 43l44 -43zM393 797l-42 42l42 43l43 -43zM201 893l-42 42l42 43l43 -43zM297 797l-42 42 l42 43l43 -43z" />
<glyph unicode="&#xcd;" d="M199 -4l-42 43l42 44l44 -44zM296 -4l-42 43l42 44l44 -44zM491 579l-43 43l43 43l43 -43zM296 287l-42 43l42 44l44 -44zM296 190l-42 43l42 44l44 -44zM296 385l-42 42l42 44l44 -44zM102 -4l-43 43l43 44l44 -44zM102 579l-43 43l43 43l44 -43zM394 579l-43 43l43 43 l43 -43zM491 -4l-43 43l43 44l43 -44zM296 93l-42 43l42 44l44 -44zM394 -4l-43 43l43 44l43 -44zM296 482l-42 42l42 44l44 -44zM296 579l-42 43l42 43l44 -43zM199 579l-42 43l42 43l44 -43zM295 797l-42 42l42 43l43 -43zM199 797l-42 42l42 43l43 -43zM391 893l-42 42 l42 43l43 -43z" />
<glyph unicode="&#xce;" d="M199 -4l-42 43l42 44l44 -44zM296 -4l-42 43l42 44l44 -44zM491 579l-43 43l43 43l43 -43zM296 287l-42 43l42 44l44 -44zM296 190l-42 43l42 44l44 -44zM296 385l-42 42l42 44l44 -44zM102 -4l-43 43l43 44l44 -44zM102 579l-43 43l43 43l44 -43zM394 579l-43 43l43 43 l43 -43zM491 -4l-43 43l43 44l43 -44zM296 93l-42 43l42 44l44 -44zM394 -4l-43 43l43 44l43 -44zM296 482l-42 42l42 44l44 -44zM296 579l-42 43l42 43l44 -43zM199 579l-42 43l42 43l44 -43zM199 797l-42 42l42 43l43 -43zM391 797l-42 42l42 43l43 -43zM295 893l-42 42 l42 43l43 -43z" />
<glyph unicode="&#xcf;" d="M199 -4l-42 43l42 44l44 -44zM296 -4l-42 43l42 44l44 -44zM491 579l-43 43l43 43l43 -43zM296 287l-42 43l42 44l44 -44zM296 190l-42 43l42 44l44 -44zM296 385l-42 42l42 44l44 -44zM102 -4l-43 43l43 44l44 -44zM102 579l-43 43l43 43l44 -43zM394 579l-43 43l43 43 l43 -43zM491 -4l-43 43l43 44l43 -44zM296 93l-42 43l42 44l44 -44zM394 -4l-43 43l43 44l43 -44zM296 482l-42 42l42 44l44 -44zM296 579l-42 43l42 43l44 -43zM199 579l-42 43l42 43l44 -43zM103 797l-42 42l42 43l43 -43zM487 893l-42 42l42 43l43 -43zM103 893l-42 42 l42 43l43 -43zM487 797l-42 42l42 43l43 -43z" />
<glyph unicode="&#xd0;" d="M149 -4l-42 43l42 44l44 -44zM52 287l-43 43l43 44l44 -44zM149 482l-42 42l42 44l44 -44zM441 93l-43 43l43 44l43 -44zM149 385l-42 42l42 44l44 -44zM344 579l-43 43l43 43l43 -43zM149 190l-42 43l42 44l44 -44zM441 190l-43 43l43 44l43 -44zM441 482l-43 42l43 44 l43 -44zM344 -4l-43 43l43 44l43 -44zM149 93l-42 43l42 44l44 -44zM246 579l-42 43l42 43l44 -43zM441 385l-43 42l43 44l43 -44zM149 287l-42 43l42 44l44 -44zM441 287l-43 43l43 44l43 -44zM246 -4l-42 43l42 44l44 -44zM149 579l-42 43l42 43l44 -43zM246 287l-42 43 l42 44l44 -44z" />
<glyph unicode="&#xd1;" d="M102 -4l-43 43l43 44l44 -44zM491 93l-43 43l43 44l43 -44zM102 579l-43 43l43 43l44 -43zM394 190l-43 43l43 44l43 -44zM102 482l-43 42l43 44l44 -44zM491 190l-43 43l43 44l43 -44zM491 287l-43 43l43 44l43 -44zM491 482l-43 42l43 44l43 -44zM102 287l-43 43l43 44 l44 -44zM102 190l-43 43l43 44l44 -44zM296 385l-42 42l42 44l44 -44zM102 385l-43 42l43 44l44 -44zM102 93l-43 43l43 44l44 -44zM491 -4l-43 43l43 44l43 -44zM296 287l-42 43l42 44l44 -44zM491 579l-43 43l43 43l43 -43zM199 482l-42 42l42 44l44 -44zM491 385l-43 42 l43 44l43 -44zM199 893l-42 42l42 43l43 -43zM391 797l-42 42l42 43l43 -43zM487 893l-42 42l42 43l43 -43zM295 797l-42 42l42 43l43 -43zM103 797l-42 42l42 43l43 -43z" />
<glyph unicode="&#xd2;" d="M393 797l-42 42l42 43l43 -43zM201 893l-42 42l42 43l43 -43zM297 797l-42 42l42 43l43 -43zM199 -4l-42 43l42 44l44 -44zM296 -4l-42 43l42 44l44 -44zM394 579l-43 43l43 43l43 -43zM491 287l-43 43l43 44l43 -44zM491 93l-43 43l43 44l43 -44zM491 385l-43 42l43 44 l43 -44zM394 -4l-43 43l43 44l43 -44zM199 579l-42 43l42 43l44 -43zM491 482l-43 42l43 44l43 -44zM102 482l-43 42l43 44l44 -44zM102 385l-43 42l43 44l44 -44zM102 93l-43 43l43 44l44 -44zM102 190l-43 43l43 44l44 -44zM491 190l-43 43l43 44l43 -44zM102 287l-43 43 l43 44l44 -44zM296 579l-42 43l42 43l44 -43z" />
<glyph unicode="&#xd3;" d="M295 797l-42 42l42 43l43 -43zM199 797l-42 42l42 43l43 -43zM391 893l-42 42l42 43l43 -43zM199 -4l-42 43l42 44l44 -44zM296 -4l-42 43l42 44l44 -44zM394 579l-43 43l43 43l43 -43zM491 287l-43 43l43 44l43 -44zM491 93l-43 43l43 44l43 -44zM491 385l-43 42l43 44 l43 -44zM394 -4l-43 43l43 44l43 -44zM199 579l-42 43l42 43l44 -43zM491 482l-43 42l43 44l43 -44zM102 482l-43 42l43 44l44 -44zM102 385l-43 42l43 44l44 -44zM102 93l-43 43l43 44l44 -44zM102 190l-43 43l43 44l44 -44zM491 190l-43 43l43 44l43 -44zM102 287l-43 43 l43 44l44 -44zM296 579l-42 43l42 43l44 -43z" />
<glyph unicode="&#xd4;" d="M199 797l-42 42l42 43l43 -43zM391 797l-42 42l42 43l43 -43zM295 893l-42 42l42 43l43 -43zM199 -4l-42 43l42 44l44 -44zM296 -4l-42 43l42 44l44 -44zM394 579l-43 43l43 43l43 -43zM491 287l-43 43l43 44l43 -44zM491 93l-43 43l43 44l43 -44zM491 385l-43 42l43 44 l43 -44zM394 -4l-43 43l43 44l43 -44zM199 579l-42 43l42 43l44 -43zM491 482l-43 42l43 44l43 -44zM102 482l-43 42l43 44l44 -44zM102 385l-43 42l43 44l44 -44zM102 93l-43 43l43 44l44 -44zM102 190l-43 43l43 44l44 -44zM491 190l-43 43l43 44l43 -44zM102 287l-43 43 l43 44l44 -44zM296 579l-42 43l42 43l44 -43z" />
<glyph unicode="&#xd5;" d="M199 893l-42 42l42 43l43 -43zM391 797l-42 42l42 43l43 -43zM487 893l-42 42l42 43l43 -43zM295 797l-42 42l42 43l43 -43zM103 797l-42 42l42 43l43 -43zM199 -4l-42 43l42 44l44 -44zM296 -4l-42 43l42 44l44 -44zM394 579l-43 43l43 43l43 -43zM491 287l-43 43l43 44 l43 -44zM491 93l-43 43l43 44l43 -44zM491 385l-43 42l43 44l43 -44zM394 -4l-43 43l43 44l43 -44zM199 579l-42 43l42 43l44 -43zM491 482l-43 42l43 44l43 -44zM102 482l-43 42l43 44l44 -44zM102 385l-43 42l43 44l44 -44zM102 93l-43 43l43 44l44 -44zM102 190l-43 43 l43 44l44 -44zM491 190l-43 43l43 44l43 -44zM102 287l-43 43l43 44l44 -44zM296 579l-42 43l42 43l44 -43z" />
<glyph unicode="&#xd6;" d="M103 797l-42 42l42 43l43 -43zM487 893l-42 42l42 43l43 -43zM103 893l-42 42l42 43l43 -43zM487 797l-42 42l42 43l43 -43zM199 -4l-42 43l42 44l44 -44zM296 -4l-42 43l42 44l44 -44zM394 579l-43 43l43 43l43 -43zM491 287l-43 43l43 44l43 -44zM491 93l-43 43l43 44 l43 -44zM491 385l-43 42l43 44l43 -44zM394 -4l-43 43l43 44l43 -44zM199 579l-42 43l42 43l44 -43zM491 482l-43 42l43 44l43 -44zM102 482l-43 42l43 44l44 -44zM102 385l-43 42l43 44l44 -44zM102 93l-43 43l43 44l44 -44zM102 190l-43 43l43 44l44 -44zM491 190l-43 43 l43 44l43 -44zM102 287l-43 43l43 44l44 -44zM296 579l-42 43l42 43l44 -43z" />
<glyph unicode="&#xd7;" d="M149 92l-42 42l42 44l43 -44zM245 188l-42 42l42 43l43 -43zM341 284l-42 42l42 43l43 -43zM53 -4l-42 42l42 44l43 -44zM53 380l-42 42l42 43l43 -43zM437 -4l-42 42l42 44l43 -44zM341 92l-42 42l42 44l43 -44zM437 380l-42 42l42 43l43 -43zM149 284l-42 42l42 43 l43 -43z" />
<glyph unicode="&#xd8;" d="M344 482l-43 42l43 44l43 -44zM52 287l-43 43l43 44l44 -44zM149 -4l-42 43l42 44l44 -44zM52 482l-43 42l43 44l44 -44zM246 -4l-42 43l42 44l44 -44zM344 -4l-43 43l43 44l43 -44zM441 287l-43 43l43 44l43 -44zM247 287l-42 43l42 44l44 -44zM52 93l-43 43l43 44 l44 -44zM52 385l-43 42l43 44l44 -44zM441 93l-43 43l43 44l43 -44zM247 385l-42 42l42 44l44 -44zM52 190l-43 43l43 44l44 -44zM149 579l-42 43l42 43l44 -43zM246 579l-42 43l42 43l44 -43zM441 482l-43 42l43 44l43 -44zM441 190l-43 43l43 44l43 -44zM247 190l-42 43 l42 44l44 -44zM441 385l-43 42l43 44l43 -44zM344 579l-43 43l43 43l43 -43zM151 93l-43 43l43 44l44 -44z" />
<glyph unicode="&#xd9;" d="M199 -4l-42 43l42 44l44 -44zM102 93l-43 43l43 44l44 -44zM491 579l-43 43l43 43l43 -43zM102 287l-43 43l43 44l44 -44zM296 -4l-42 43l42 44l44 -44zM491 385l-43 42l43 44l43 -44zM394 -4l-43 43l43 44l43 -44zM491 93l-43 43l43 44l43 -44zM491 482l-43 42l43 44 l43 -44zM102 579l-43 43l43 43l44 -43zM102 190l-43 43l43 44l44 -44zM491 190l-43 43l43 44l43 -44zM491 287l-43 43l43 44l43 -44zM102 482l-43 42l43 44l44 -44zM102 385l-43 42l43 44l44 -44zM393 797l-42 42l42 43l43 -43zM201 893l-42 42l42 43l43 -43zM297 797 l-42 42l42 43l43 -43z" />
<glyph unicode="&#xda;" d="M199 -4l-42 43l42 44l44 -44zM102 93l-43 43l43 44l44 -44zM491 579l-43 43l43 43l43 -43zM102 287l-43 43l43 44l44 -44zM296 -4l-42 43l42 44l44 -44zM491 385l-43 42l43 44l43 -44zM394 -4l-43 43l43 44l43 -44zM491 93l-43 43l43 44l43 -44zM491 482l-43 42l43 44 l43 -44zM102 579l-43 43l43 43l44 -43zM102 190l-43 43l43 44l44 -44zM491 190l-43 43l43 44l43 -44zM491 287l-43 43l43 44l43 -44zM102 482l-43 42l43 44l44 -44zM102 385l-43 42l43 44l44 -44zM295 797l-42 42l42 43l43 -43zM199 797l-42 42l42 43l43 -43zM391 893 l-42 42l42 43l43 -43z" />
<glyph unicode="&#xdb;" d="M199 -4l-42 43l42 44l44 -44zM102 93l-43 43l43 44l44 -44zM491 579l-43 43l43 43l43 -43zM102 287l-43 43l43 44l44 -44zM296 -4l-42 43l42 44l44 -44zM491 385l-43 42l43 44l43 -44zM394 -4l-43 43l43 44l43 -44zM491 93l-43 43l43 44l43 -44zM491 482l-43 42l43 44 l43 -44zM102 579l-43 43l43 43l44 -43zM102 190l-43 43l43 44l44 -44zM491 190l-43 43l43 44l43 -44zM491 287l-43 43l43 44l43 -44zM102 482l-43 42l43 44l44 -44zM102 385l-43 42l43 44l44 -44zM199 797l-42 42l42 43l43 -43zM391 797l-42 42l42 43l43 -43zM295 893 l-42 42l42 43l43 -43z" />
<glyph unicode="&#xdc;" d="M199 -4l-42 43l42 44l44 -44zM102 93l-43 43l43 44l44 -44zM491 579l-43 43l43 43l43 -43zM102 287l-43 43l43 44l44 -44zM296 -4l-42 43l42 44l44 -44zM491 385l-43 42l43 44l43 -44zM394 -4l-43 43l43 44l43 -44zM491 93l-43 43l43 44l43 -44zM491 482l-43 42l43 44 l43 -44zM102 579l-43 43l43 43l44 -43zM102 190l-43 43l43 44l44 -44zM491 190l-43 43l43 44l43 -44zM491 287l-43 43l43 44l43 -44zM102 482l-43 42l43 44l44 -44zM102 385l-43 42l43 44l44 -44zM103 797l-42 42l42 43l43 -43zM487 893l-42 42l42 43l43 -43zM103 893 l-42 42l42 43l43 -43zM487 797l-42 42l42 43l43 -43z" />
<glyph unicode="&#xdd;" d="M296 -4l-42 43l42 44l44 -44zM394 287l-43 43l43 44l43 -44zM296 93l-42 43l42 44l44 -44zM491 482l-43 42l43 44l43 -44zM491 385l-43 42l43 44l43 -44zM102 482l-43 42l43 44l44 -44zM491 579l-43 43l43 43l43 -43zM199 287l-42 43l42 44l44 -44zM102 385l-43 42l43 44 l44 -44zM102 579l-43 43l43 43l44 -43zM296 190l-42 43l42 44l44 -44zM295 797l-42 42l42 43l43 -43zM199 797l-42 42l42 43l43 -43zM391 893l-42 42l42 43l43 -43z" />
<glyph unicode="&#xde;" d="M52 -4l-43 43l43 44l44 -44zM441 385l-43 42l43 44l43 -44zM246 482l-42 42l42 44l44 -44zM52 385l-43 42l43 44l44 -44zM52 482l-43 42l43 44l44 -44zM149 190l-42 43l42 44l44 -44zM344 190l-43 43l43 44l43 -44zM246 190l-42 43l42 44l44 -44zM52 190l-43 43l43 44 l44 -44zM52 287l-43 43l43 44l44 -44zM149 482l-42 42l42 44l44 -44zM52 579l-43 43l43 43l44 -43zM441 287l-43 43l43 44l43 -44zM52 93l-43 43l43 44l44 -44zM344 482l-43 42l43 44l43 -44z" />
<glyph unicode="&#xdf;" d="M53 -4l-42 42l42 44l43 -44zM341 -4l-42 42l42 44l43 -44zM53 284l-42 42l42 43l43 -43zM437 92l-42 42l42 44l43 -44zM341 476l-42 42l42 43l43 -43zM53 380l-42 42l42 43l43 -43zM341 380l-42 42l42 43l43 -43zM53 188l-42 42l42 43l43 -43zM341 188l-42 42l42 43 l43 -43zM149 476l-42 42l42 43l43 -43zM245 -4l-42 42l42 44l43 -44zM245 284l-42 42l42 43l43 -43zM53 92l-42 42l42 44l43 -44zM245 572l-42 42l42 43l43 -43z" />
<glyph unicode="&#xe0;" d="M199 -4l-42 42l42 44l43 -44zM487 -4l-42 42l42 44l43 -44zM391 380l-42 42l42 43l43 -43zM295 188l-42 42l42 43l43 -43zM391 -4l-42 42l42 44l43 -44zM199 380l-42 42l42 43l43 -43zM391 188l-42 42l42 43l43 -43zM295 380l-42 42l42 43l43 -43zM295 -4l-42 42l42 44 l43 -44zM487 188l-42 42l42 43l43 -43zM487 92l-42 42l42 44l43 -44zM103 92l-42 42l42 44l43 -44zM199 188l-42 42l42 43l43 -43zM487 284l-42 42l42 43l43 -43zM393 572l-42 42l42 43l43 -43zM201 668l-42 42l42 43l43 -43zM297 572l-42 42l42 43l43 -43z" />
<glyph unicode="&#xe1;" d="M199 -4l-42 42l42 44l43 -44zM487 -4l-42 42l42 44l43 -44zM391 380l-42 42l42 43l43 -43zM295 188l-42 42l42 43l43 -43zM391 -4l-42 42l42 44l43 -44zM199 380l-42 42l42 43l43 -43zM391 188l-42 42l42 43l43 -43zM295 380l-42 42l42 43l43 -43zM295 -4l-42 42l42 44 l43 -44zM487 188l-42 42l42 43l43 -43zM487 92l-42 42l42 44l43 -44zM103 92l-42 42l42 44l43 -44zM199 188l-42 42l42 43l43 -43zM487 284l-42 42l42 43l43 -43zM295 572l-42 42l42 43l43 -43zM199 572l-42 42l42 43l43 -43zM391 668l-42 42l42 43l43 -43z" />
<glyph unicode="&#xe2;" d="M199 -4l-42 42l42 44l43 -44zM487 -4l-42 42l42 44l43 -44zM391 380l-42 42l42 43l43 -43zM295 188l-42 42l42 43l43 -43zM391 -4l-42 42l42 44l43 -44zM199 380l-42 42l42 43l43 -43zM391 188l-42 42l42 43l43 -43zM295 380l-42 42l42 43l43 -43zM295 -4l-42 42l42 44 l43 -44zM487 188l-42 42l42 43l43 -43zM487 92l-42 42l42 44l43 -44zM103 92l-42 42l42 44l43 -44zM199 188l-42 42l42 43l43 -43zM487 284l-42 42l42 43l43 -43z" />
<glyph unicode="&#xe3;" d="M199 -4l-42 42l42 44l43 -44zM487 -4l-42 42l42 44l43 -44zM391 380l-42 42l42 43l43 -43zM295 188l-42 42l42 43l43 -43zM391 -4l-42 42l42 44l43 -44zM199 380l-42 42l42 43l43 -43zM391 188l-42 42l42 43l43 -43zM295 380l-42 42l42 43l43 -43zM295 -4l-42 42l42 44 l43 -44zM487 188l-42 42l42 43l43 -43zM487 92l-42 42l42 44l43 -44zM103 92l-42 42l42 44l43 -44zM199 188l-42 42l42 43l43 -43zM487 284l-42 42l42 43l43 -43zM199 668l-42 42l42 43l43 -43zM391 572l-42 42l42 43l43 -43zM487 668l-42 42l42 43l43 -43zM295 572l-42 42 l42 43l43 -43zM103 572l-42 42l42 43l43 -43z" />
<glyph unicode="&#xe4;" d="M199 -4l-42 42l42 44l43 -44zM487 -4l-42 42l42 44l43 -44zM391 380l-42 42l42 43l43 -43zM295 188l-42 42l42 43l43 -43zM391 -4l-42 42l42 44l43 -44zM199 380l-42 42l42 43l43 -43zM391 188l-42 42l42 43l43 -43zM295 380l-42 42l42 43l43 -43zM295 -4l-42 42l42 44 l43 -44zM487 188l-42 42l42 43l43 -43zM487 92l-42 42l42 44l43 -44zM103 92l-42 42l42 44l43 -44zM199 188l-42 42l42 43l43 -43zM487 284l-42 42l42 43l43 -43zM103 572l-42 42l42 43l43 -43zM487 668l-42 42l42 43l43 -43zM103 668l-42 42l42 43l43 -43zM487 572l-42 42 l42 43l43 -43z" />
<glyph unicode="&#xe5;" d="M199 -4l-42 42l42 44l43 -44zM487 -4l-42 42l42 44l43 -44zM391 380l-42 42l42 43l43 -43zM295 188l-42 42l42 43l43 -43zM391 -4l-42 42l42 44l43 -44zM199 380l-42 42l42 43l43 -43zM391 188l-42 42l42 43l43 -43zM295 380l-42 42l42 43l43 -43zM295 -4l-42 42l42 44 l43 -44zM487 188l-42 42l42 43l43 -43zM487 92l-42 42l42 44l43 -44zM103 92l-42 42l42 44l43 -44zM199 188l-42 42l42 43l43 -43zM487 284l-42 42l42 43l43 -43zM295 572l-42 42l42 43l43 -43zM391 668l-42 42l42 43l43 -43zM295 764l-42 42l42 43l43 -43zM199 668l-42 42 l42 43l43 -43z" />
<glyph unicode="&#xe6;" d="M149 -4l-42 42l42 44l43 -44zM245 92l-42 42l42 44l43 -44zM437 -4l-42 42l42 44l43 -44zM341 -4l-42 42l42 44l43 -44zM149 188l-42 42l42 43l43 -43zM149 380l-42 42l42 43l43 -43zM437 284l-42 42l42 43l43 -43zM245 284l-42 42l42 43l43 -43zM53 92l-42 42l42 44 l43 -44zM245 -4l-42 42l42 44l43 -44zM341 188l-42 42l42 43l43 -43zM341 380l-42 42l42 43l43 -43zM245 188l-42 42l42 43l43 -43z" />
<glyph unicode="&#xe7;" d="M199 -4l-42 42l42 44l43 -44zM487 284l-42 42l42 43l43 -43zM391 380l-42 42l42 43l43 -43zM295 -4l-42 42l42 44l43 -44zM295 380l-42 42l42 43l43 -43zM103 188l-42 42l42 43l43 -43zM103 284l-42 42l42 43l43 -43zM103 92l-42 42l42 44l43 -44zM199 380l-42 42l42 43 l43 -43zM391 -4l-42 42l42 44l43 -44zM487 92l-42 42l42 44l43 -44zM294 -100l-42 42l42 44l43 -44zM198 -196l-42 42l42 44l43 -44z" />
<glyph unicode="&#xe8;" d="M199 -4l-42 42l42 44l43 -44zM295 380l-42 42l42 43l43 -43zM391 380l-42 42l42 43l43 -43zM199 188l-42 42l42 43l43 -43zM295 -4l-42 42l42 44l43 -44zM295 188l-42 42l42 43l43 -43zM199 380l-42 42l42 43l43 -43zM487 284l-42 42l42 43l43 -43zM103 92l-42 42l42 44 l43 -44zM103 188l-42 42l42 43l43 -43zM487 -4l-42 42l42 44l43 -44zM487 188l-42 42l42 43l43 -43zM391 188l-42 42l42 43l43 -43zM103 284l-42 42l42 43l43 -43zM391 -4l-42 42l42 44l43 -44zM393 572l-42 42l42 43l43 -43zM201 668l-42 42l42 43l43 -43zM297 572l-42 42 l42 43l43 -43z" />
<glyph unicode="&#xe9;" d="M199 -4l-42 42l42 44l43 -44zM295 380l-42 42l42 43l43 -43zM391 380l-42 42l42 43l43 -43zM199 188l-42 42l42 43l43 -43zM295 -4l-42 42l42 44l43 -44zM295 188l-42 42l42 43l43 -43zM199 380l-42 42l42 43l43 -43zM487 284l-42 42l42 43l43 -43zM103 92l-42 42l42 44 l43 -44zM103 188l-42 42l42 43l43 -43zM487 -4l-42 42l42 44l43 -44zM487 188l-42 42l42 43l43 -43zM391 188l-42 42l42 43l43 -43zM103 284l-42 42l42 43l43 -43zM391 -4l-42 42l42 44l43 -44zM295 572l-42 42l42 43l43 -43zM199 572l-42 42l42 43l43 -43zM391 668l-42 42 l42 43l43 -43z" />
<glyph unicode="&#xea;" d="M199 -4l-42 42l42 44l43 -44zM295 380l-42 42l42 43l43 -43zM391 380l-42 42l42 43l43 -43zM199 188l-42 42l42 43l43 -43zM295 -4l-42 42l42 44l43 -44zM295 188l-42 42l42 43l43 -43zM199 380l-42 42l42 43l43 -43zM487 284l-42 42l42 43l43 -43zM103 92l-42 42l42 44 l43 -44zM103 188l-42 42l42 43l43 -43zM487 -4l-42 42l42 44l43 -44zM487 188l-42 42l42 43l43 -43zM391 188l-42 42l42 43l43 -43zM103 284l-42 42l42 43l43 -43zM391 -4l-42 42l42 44l43 -44zM199 572l-42 42l42 43l43 -43zM391 572l-42 42l42 43l43 -43zM295 668l-42 42 l42 43l43 -43z" />
<glyph unicode="&#xeb;" d="M199 -4l-42 42l42 44l43 -44zM295 380l-42 42l42 43l43 -43zM391 380l-42 42l42 43l43 -43zM199 188l-42 42l42 43l43 -43zM295 -4l-42 42l42 44l43 -44zM295 188l-42 42l42 43l43 -43zM199 380l-42 42l42 43l43 -43zM487 284l-42 42l42 43l43 -43zM103 92l-42 42l42 44 l43 -44zM103 188l-42 42l42 43l43 -43zM487 -4l-42 42l42 44l43 -44zM487 188l-42 42l42 43l43 -43zM391 188l-42 42l42 43l43 -43zM103 284l-42 42l42 43l43 -43zM391 -4l-42 42l42 44l43 -44zM103 572l-42 42l42 43l43 -43zM487 668l-42 42l42 43l43 -43zM103 668l-42 42 l42 43l43 -43zM487 572l-42 42l42 43l43 -43z" />
<glyph unicode="&#xec;" d="M53 -4l-42 42l42 44l43 -44zM245 92l-42 42l42 44l43 -44zM341 572l-42 42l42 43l43 -43zM149 668l-42 42l42 43l43 -43zM149 -4l-42 42l42 44l43 -44zM149 380l-42 42l42 43l43 -43zM245 -4l-42 42l42 44l43 -44zM341 -4l-42 42l42 44l43 -44zM53 380l-42 42l42 43 l43 -43zM245 284l-42 42l42 43l43 -43zM245 380l-42 42l42 43l43 -43zM245 188l-42 42l42 43l43 -43zM245 572l-42 42l42 43l43 -43zM437 -4l-42 42l42 44l43 -44z" />
<glyph unicode="&#xed;" d="M53 -4l-42 42l42 44l43 -44zM245 572l-42 42l42 43l43 -43zM149 -4l-42 42l42 44l43 -44zM437 -4l-42 42l42 44l43 -44zM341 668l-42 42l42 43l43 -43zM53 380l-42 42l42 43l43 -43zM245 380l-42 42l42 43l43 -43zM245 -4l-42 42l42 44l43 -44zM245 92l-42 42l42 44 l43 -44zM245 188l-42 42l42 43l43 -43zM341 -4l-42 42l42 44l43 -44zM245 284l-42 42l42 43l43 -43zM149 572l-42 42l42 43l43 -43zM149 380l-42 42l42 43l43 -43z" />
<glyph unicode="&#xee;" d="M53 -4l-42 42l42 44l43 -44zM437 -4l-42 42l42 44l43 -44zM245 668l-42 42l42 43l43 -43zM245 188l-42 42l42 43l43 -43zM245 380l-42 42l42 43l43 -43zM245 284l-42 42l42 43l43 -43zM53 380l-42 42l42 43l43 -43zM341 -4l-42 42l42 44l43 -44zM245 -4l-42 42l42 44 l43 -44zM149 380l-42 42l42 43l43 -43zM149 -4l-42 42l42 44l43 -44zM341 572l-42 42l42 43l43 -43zM149 572l-42 42l42 43l43 -43zM245 92l-42 42l42 44l43 -44z" />
<glyph unicode="&#xef;" d="M53 -4l-42 42l42 44l43 -44zM437 668l-42 42l42 43l43 -43zM53 380l-42 42l42 43l43 -43zM245 380l-42 42l42 43l43 -43zM245 188l-42 42l42 43l43 -43zM245 92l-42 42l42 44l43 -44zM437 572l-42 42l42 43l43 -43zM341 -4l-42 42l42 44l43 -44zM149 380l-42 42l42 43 l43 -43zM149 -4l-42 42l42 44l43 -44zM53 572l-42 42l42 43l43 -43zM245 -4l-42 42l42 44l43 -44zM53 668l-42 42l42 43l43 -43zM437 -4l-42 42l42 44l43 -44zM245 284l-42 42l42 43l43 -43z" />
<glyph unicode="&#xf0;" d="M340 -4l-42 42l42 44l43 -44zM149 572l-42 42l42 43l43 -43zM245 572l-42 42l42 43l43 -43zM437 572l-42 42l42 43l43 -43zM437 380l-42 42l42 43l43 -43zM437 284l-42 42l42 43l43 -43zM341 476l-42 42l42 43l43 -43zM437 92l-42 42l42 44l43 -44zM245 -4l-42 42l42 44 l43 -44zM437 188l-42 42l42 43l43 -43zM341 284l-42 42l42 43l43 -43zM245 284l-42 42l42 43l43 -43zM53 92l-42 42l42 44l43 -44zM245 380l-42 42l42 43l43 -43zM149 284l-42 42l42 43l43 -43zM53 188l-42 42l42 43l43 -43zM150 -4l-42 42l42 44l43 -44z" />
<glyph unicode="&#xf1;" d="M103 -4l-42 42l42 44l43 -44zM487 284l-42 42l42 43l43 -43zM487 -4l-42 42l42 44l43 -44zM199 284l-42 42l42 43l43 -43zM103 380l-42 42l42 43l43 -43zM103 188l-42 42l42 43l43 -43zM295 380l-42 42l42 43l43 -43zM103 92l-42 42l42 44l43 -44zM391 380l-42 42l42 43 l43 -43zM103 284l-42 42l42 43l43 -43zM487 92l-42 42l42 44l43 -44zM487 188l-42 42l42 43l43 -43zM199 668l-42 42l42 43l43 -43zM391 572l-42 42l42 43l43 -43zM487 668l-42 42l42 43l43 -43zM295 572l-42 42l42 43l43 -43zM103 572l-42 42l42 43l43 -43z" />
<glyph unicode="&#xf2;" d="M199 -4l-42 42l42 44l43 -44zM487 284l-42 42l42 43l43 -43zM199 380l-42 42l42 43l43 -43zM487 188l-42 42l42 43l43 -43zM103 188l-42 42l42 43l43 -43zM295 380l-42 42l42 43l43 -43zM103 284l-42 42l42 43l43 -43zM391 380l-42 42l42 43l43 -43zM391 -4l-42 42l42 44 l43 -44zM103 92l-42 42l42 44l43 -44zM487 92l-42 42l42 44l43 -44zM295 -4l-42 42l42 44l43 -44zM393 572l-42 42l42 43l43 -43zM201 668l-42 42l42 43l43 -43zM297 572l-42 42l42 43l43 -43z" />
<glyph unicode="&#xf3;" d="M199 -4l-42 42l42 44l43 -44zM487 284l-42 42l42 43l43 -43zM199 380l-42 42l42 43l43 -43zM487 188l-42 42l42 43l43 -43zM103 188l-42 42l42 43l43 -43zM295 380l-42 42l42 43l43 -43zM103 284l-42 42l42 43l43 -43zM391 380l-42 42l42 43l43 -43zM391 -4l-42 42l42 44 l43 -44zM103 92l-42 42l42 44l43 -44zM487 92l-42 42l42 44l43 -44zM295 -4l-42 42l42 44l43 -44zM295 572l-42 42l42 43l43 -43zM199 572l-42 42l42 43l43 -43zM391 668l-42 42l42 43l43 -43z" />
<glyph unicode="&#xf4;" d="M199 -4l-42 42l42 44l43 -44zM487 284l-42 42l42 43l43 -43zM199 380l-42 42l42 43l43 -43zM487 188l-42 42l42 43l43 -43zM103 188l-42 42l42 43l43 -43zM295 380l-42 42l42 43l43 -43zM103 284l-42 42l42 43l43 -43zM391 380l-42 42l42 43l43 -43zM391 -4l-42 42l42 44 l43 -44zM103 92l-42 42l42 44l43 -44zM487 92l-42 42l42 44l43 -44zM295 -4l-42 42l42 44l43 -44zM199 572l-42 42l42 43l43 -43zM391 572l-42 42l42 43l43 -43zM295 668l-42 42l42 43l43 -43z" />
<glyph unicode="&#xf5;" d="M199 -4l-42 42l42 44l43 -44zM487 284l-42 42l42 43l43 -43zM199 380l-42 42l42 43l43 -43zM487 188l-42 42l42 43l43 -43zM103 188l-42 42l42 43l43 -43zM295 380l-42 42l42 43l43 -43zM103 284l-42 42l42 43l43 -43zM391 380l-42 42l42 43l43 -43zM391 -4l-42 42l42 44 l43 -44zM103 92l-42 42l42 44l43 -44zM487 92l-42 42l42 44l43 -44zM295 -4l-42 42l42 44l43 -44zM199 668l-42 42l42 43l43 -43zM391 572l-42 42l42 43l43 -43zM487 668l-42 42l42 43l43 -43zM295 572l-42 42l42 43l43 -43zM103 572l-42 42l42 43l43 -43z" />
<glyph unicode="&#xf6;" d="M199 -4l-42 42l42 44l43 -44zM487 284l-42 42l42 43l43 -43zM199 380l-42 42l42 43l43 -43zM487 188l-42 42l42 43l43 -43zM103 188l-42 42l42 43l43 -43zM295 380l-42 42l42 43l43 -43zM103 284l-42 42l42 43l43 -43zM391 380l-42 42l42 43l43 -43zM391 -4l-42 42l42 44 l43 -44zM103 92l-42 42l42 44l43 -44zM487 92l-42 42l42 44l43 -44zM295 -4l-42 42l42 44l43 -44zM103 572l-42 42l42 43l43 -43zM487 668l-42 42l42 43l43 -43zM103 668l-42 42l42 43l43 -43zM487 572l-42 42l42 43l43 -43z" />
<glyph unicode="&#xf7;" d="M245 -4l-42 42l42 44l43 -44zM245 380l-42 42l42 43l43 -43zM437 188l-42 42l42 43l43 -43zM245 188l-42 42l42 43l43 -43zM149 188l-42 42l42 43l43 -43zM341 188l-42 42l42 43l43 -43zM53 188l-42 42l42 43l43 -43z" />
<glyph unicode="&#xf8;" d="M54 -100l-42 42l42 44l43 -44zM53 92l-42 42l42 44l43 -44zM53 284l-42 42l42 43l43 -43zM149 380l-42 42l42 43l43 -43zM149 92l-42 42l42 44l43 -44zM437 92l-42 42l42 44l43 -44zM245 188l-42 42l42 43l43 -43zM341 380l-42 42l42 43l43 -43zM53 188l-42 42l42 43 l43 -43zM149 -4l-42 42l42 44l43 -44zM437 476l-42 42l42 43l43 -43zM245 -4l-42 42l42 44l43 -44zM437 188l-42 42l42 43l43 -43zM341 -4l-42 42l42 44l43 -44zM245 380l-42 42l42 43l43 -43zM437 284l-42 42l42 43l43 -43zM341 284l-42 42l42 43l43 -43z" />
<glyph unicode="&#xf9;" d="M199 -4l-42 42l42 44l43 -44zM103 92l-42 42l42 44l43 -44zM487 380l-42 42l42 43l43 -43zM487 188l-42 42l42 43l43 -43zM487 92l-42 42l42 44l43 -44zM391 92l-42 42l42 44l43 -44zM487 284l-42 42l42 43l43 -43zM103 284l-42 42l42 43l43 -43zM103 188l-42 42l42 43 l43 -43zM295 -4l-42 42l42 44l43 -44zM487 -4l-42 42l42 44l43 -44zM103 380l-42 42l42 43l43 -43zM393 572l-42 42l42 43l43 -43zM201 668l-42 42l42 43l43 -43zM297 572l-42 42l42 43l43 -43z" />
<glyph unicode="&#xfa;" d="M199 -4l-42 42l42 44l43 -44zM103 92l-42 42l42 44l43 -44zM487 380l-42 42l42 43l43 -43zM487 188l-42 42l42 43l43 -43zM487 92l-42 42l42 44l43 -44zM391 92l-42 42l42 44l43 -44zM487 284l-42 42l42 43l43 -43zM103 284l-42 42l42 43l43 -43zM103 188l-42 42l42 43 l43 -43zM295 -4l-42 42l42 44l43 -44zM487 -4l-42 42l42 44l43 -44zM103 380l-42 42l42 43l43 -43zM295 572l-42 42l42 43l43 -43zM199 572l-42 42l42 43l43 -43zM391 668l-42 42l42 43l43 -43z" />
<glyph unicode="&#xfb;" d="M199 -4l-42 42l42 44l43 -44zM103 92l-42 42l42 44l43 -44zM487 380l-42 42l42 43l43 -43zM487 188l-42 42l42 43l43 -43zM487 92l-42 42l42 44l43 -44zM391 92l-42 42l42 44l43 -44zM487 284l-42 42l42 43l43 -43zM103 284l-42 42l42 43l43 -43zM103 188l-42 42l42 43 l43 -43zM295 -4l-42 42l42 44l43 -44zM487 -4l-42 42l42 44l43 -44zM103 380l-42 42l42 43l43 -43zM199 572l-42 42l42 43l43 -43zM391 572l-42 42l42 43l43 -43zM295 668l-42 42l42 43l43 -43z" />
<glyph unicode="&#xfc;" d="M199 -4l-42 42l42 44l43 -44zM103 92l-42 42l42 44l43 -44zM487 380l-42 42l42 43l43 -43zM487 188l-42 42l42 43l43 -43zM487 92l-42 42l42 44l43 -44zM391 92l-42 42l42 44l43 -44zM487 284l-42 42l42 43l43 -43zM103 284l-42 42l42 43l43 -43zM103 188l-42 42l42 43 l43 -43zM295 -4l-42 42l42 44l43 -44zM487 -4l-42 42l42 44l43 -44zM103 380l-42 42l42 43l43 -43zM103 572l-42 42l42 43l43 -43zM487 668l-42 42l42 43l43 -43zM103 668l-42 42l42 43l43 -43zM487 572l-42 42l42 43l43 -43z" />
<glyph unicode="&#xfd;" d="M295 -4l-42 42l42 44l43 -44zM103 -196l-42 42l42 44l43 -44zM487 380l-42 42l42 43l43 -43zM487 284l-42 42l42 43l43 -43zM199 92l-42 42l42 44l43 -44zM295 -100l-42 42l42 44l43 -44zM103 380l-42 42l42 43l43 -43zM103 284l-42 42l42 43l43 -43zM391 92l-42 42 l42 44l43 -44zM199 188l-42 42l42 43l43 -43zM391 188l-42 42l42 43l43 -43zM199 -196l-42 42l42 44l43 -44zM295 572l-42 42l42 43l43 -43zM199 572l-42 42l42 43l43 -43zM391 668l-42 42l42 43l43 -43z" />
<glyph unicode="&#xfe;" d="M53 -4l-42 42l42 44l43 -44zM437 188l-42 42l42 43l43 -43zM341 -4l-42 42l42 44l43 -44zM149 380l-42 42l42 43l43 -43zM53 -196l-42 42l42 44l43 -44zM53 92l-42 42l42 44l43 -44zM53 284l-42 42l42 43l43 -43zM245 380l-42 42l42 43l43 -43zM341 380l-42 42l42 43 l43 -43zM245 -4l-42 42l42 44l43 -44zM53 572l-42 42l42 43l43 -43zM437 284l-42 42l42 43l43 -43zM149 -4l-42 42l42 44l43 -44zM53 380l-42 42l42 43l43 -43zM53 188l-42 42l42 43l43 -43zM53 -100l-42 42l42 44l43 -44zM437 92l-42 42l42 44l43 -44zM53 476l-42 42l42 43 l43 -43z" />
<glyph unicode="&#xff;" d="M295 -4l-42 42l42 44l43 -44zM103 -196l-42 42l42 44l43 -44zM487 380l-42 42l42 43l43 -43zM487 284l-42 42l42 43l43 -43zM199 92l-42 42l42 44l43 -44zM295 -100l-42 42l42 44l43 -44zM103 380l-42 42l42 43l43 -43zM103 284l-42 42l42 43l43 -43zM391 92l-42 42 l42 44l43 -44zM199 188l-42 42l42 43l43 -43zM391 188l-42 42l42 43l43 -43zM199 -196l-42 42l42 44l43 -44zM103 572l-42 42l42 43l43 -43zM487 668l-42 42l42 43l43 -43zM103 668l-42 42l42 43l43 -43zM487 572l-42 42l42 43l43 -43z" />
<glyph unicode="&#x152;" d="M149 -4l-42 43l42 44l44 -44zM52 287l-43 43l43 44l44 -44zM52 385l-43 42l43 44l44 -44zM441 -4l-43 43l43 44l43 -44zM149 579l-42 43l42 43l44 -43zM52 190l-43 43l43 44l44 -44zM52 93l-43 43l43 44l44 -44zM246 190l-42 43l42 44l44 -44zM246 287l-42 43l42 44 l44 -44zM344 -4l-43 43l43 44l43 -44zM52 482l-43 42l43 44l44 -44zM246 93l-42 43l42 44l44 -44zM344 287l-43 43l43 44l43 -44zM246 385l-42 42l42 44l44 -44zM344 579l-43 43l43 43l43 -43zM246 482l-42 42l42 44l44 -44zM246 579l-42 43l42 43l44 -43zM441 579l-43 43 l43 43l43 -43zM246 -4l-42 43l42 44l44 -44z" />
<glyph unicode="&#x153;" d="M149 -4l-42 42l42 44l43 -44zM341 380l-42 42l42 43l43 -43zM53 188l-42 42l42 43l43 -43zM245 284l-42 42l42 43l43 -43zM437 284l-42 42l42 43l43 -43zM437 188l-42 42l42 43l43 -43zM341 -4l-42 42l42 44l43 -44zM53 284l-42 42l42 43l43 -43zM341 188l-42 42l42 43 l43 -43zM437 -4l-42 42l42 44l43 -44zM53 92l-42 42l42 44l43 -44zM245 188l-42 42l42 43l43 -43zM149 380l-42 42l42 43l43 -43zM245 92l-42 42l42 44l43 -44z" />
<glyph unicode="&#x178;" d="M296 -4l-42 43l42 44l44 -44zM394 287l-43 43l43 44l43 -44zM296 93l-42 43l42 44l44 -44zM491 482l-43 42l43 44l43 -44zM491 385l-43 42l43 44l43 -44zM102 482l-43 42l43 44l44 -44zM491 579l-43 43l43 43l43 -43zM199 287l-42 43l42 44l44 -44zM102 385l-43 42l43 44 l44 -44zM102 579l-43 43l43 43l44 -43zM296 190l-42 43l42 44l44 -44zM103 797l-42 42l42 43l43 -43zM487 893l-42 42l42 43l43 -43zM103 893l-42 42l42 43l43 -43zM487 797l-42 42l42 43l43 -43z" />
<glyph unicode="&#x2c6;" d="M149 572l-42 42l42 43l43 -43zM341 572l-42 42l42 43l43 -43zM245 668l-42 42l42 43l43 -43z" />
<glyph unicode="&#x2dc;" d="M149 668l-42 42l42 43l43 -43zM341 572l-42 42l42 43l43 -43zM437 668l-42 42l42 43l43 -43zM245 572l-42 42l42 43l43 -43zM53 572l-42 42l42 43l43 -43z" />
<glyph unicode="&#x2000;" horiz-adv-x="537" />
<glyph unicode="&#x2001;" horiz-adv-x="1074" />
<glyph unicode="&#x2002;" horiz-adv-x="537" />
<glyph unicode="&#x2003;" horiz-adv-x="1074" />
<glyph unicode="&#x2004;" horiz-adv-x="358" />
<glyph unicode="&#x2005;" horiz-adv-x="268" />
<glyph unicode="&#x2006;" horiz-adv-x="179" />
<glyph unicode="&#x2007;" horiz-adv-x="179" />
<glyph unicode="&#x2008;" horiz-adv-x="134" />
<glyph unicode="&#x2009;" horiz-adv-x="214" />
<glyph unicode="&#x200a;" horiz-adv-x="59" />
<glyph unicode="&#x2010;" d="M149 188l-42 42l42 43l43 -43zM245 188l-42 42l42 43l43 -43zM341 188l-42 42l42 43l43 -43z" />
<glyph unicode="&#x2011;" d="M149 188l-42 42l42 43l43 -43zM245 188l-42 42l42 43l43 -43zM341 188l-42 42l42 43l43 -43z" />
<glyph unicode="&#x2013;" d="M149 188l-42 42l42 43l43 -43zM245 188l-42 42l42 43l43 -43zM341 188l-42 42l42 43l43 -43z" />
<glyph unicode="&#x2014;" d="M53 188l-42 42l42 43l43 -43zM341 188l-42 42l42 43l43 -43zM437 188l-42 42l42 43l43 -43zM245 188l-42 42l42 43l43 -43zM149 188l-42 42l42 43l43 -43z" />
<glyph unicode="&#x2018;" d="M246 380l-42 42l42 43l43 -43zM342 572l-42 42l42 43l43 -43zM246 476l-42 42l42 43l43 -43z" />
<glyph unicode="&#x2019;" d="M246 380l-42 42l42 43l43 -43zM342 476l-42 42l42 43l43 -43zM342 572l-42 42l42 43l43 -43z" />
<glyph unicode="&#x201a;" d="M342 -4l-42 42l42 44l43 -44zM342 92l-42 42l42 44l43 -44zM246 -100l-42 42l42 44l43 -44z" />
<glyph unicode="&#x201c;" d="M150 380l-42 42l42 43l43 -43zM246 572l-42 42l42 43l43 -43zM438 572l-42 42l42 43l43 -43zM342 476l-42 42l42 43l43 -43zM342 380l-42 42l42 43l43 -43zM150 476l-42 42l42 43l43 -43z" />
<glyph unicode="&#x201d;" d="M150 380l-42 42l42 43l43 -43zM342 380l-42 42l42 43l43 -43zM438 572l-42 42l42 43l43 -43zM438 476l-42 42l42 43l43 -43zM246 572l-42 42l42 43l43 -43zM246 476l-42 42l42 43l43 -43z" />
<glyph unicode="&#x201e;" d="M150 -100l-42 42l42 44l43 -44zM342 -100l-42 42l42 44l43 -44zM438 92l-42 42l42 44l43 -44zM438 -4l-42 42l42 44l43 -44zM246 92l-42 42l42 44l43 -44zM246 -4l-42 42l42 44l43 -44z" />
<glyph unicode="&#x2022;" d="M51 188l-42 42l42 43l43 -43zM243 380l-42 42l42 43l43 -43zM51 284l-42 42l42 43l43 -43zM147 188l-42 42l42 43l43 -43zM243 284l-42 42l42 43l43 -43zM243 188l-42 42l42 43l43 -43zM51 380l-42 42l42 43l43 -43zM147 284l-42 42l42 43l43 -43zM147 380l-42 42l42 43 l43 -43z" />
<glyph unicode="&#x2026;" d="M53 -4l-42 42l42 44l43 -44zM245 -4l-42 42l42 44l43 -44zM437 92l-42 42l42 44l43 -44zM53 92l-42 42l42 44l43 -44zM437 -4l-42 42l42 44l43 -44zM245 92l-42 42l42 44l43 -44z" />
<glyph unicode="&#x202f;" horiz-adv-x="214" />
<glyph unicode="&#x2039;" d="M341 -4l-42 42l42 44l43 -44zM245 284l-42 42l42 43l43 -43zM341 380l-42 42l42 43l43 -43zM149 188l-42 42l42 43l43 -43zM245 92l-42 42l42 44l43 -44z" />
<glyph unicode="&#x203a;" d="M247 -4l-42 42l42 44l43 -44zM343 284l-42 42l42 43l43 -43zM247 380l-42 42l42 43l43 -43zM439 188l-42 42l42 43l43 -43zM343 92l-42 42l42 44l43 -44z" />
<glyph unicode="&#x205f;" horiz-adv-x="268" />
<glyph unicode="&#x20ac;" d="M245 -4l-42 42l42 44l43 -44zM341 -4l-42 42l42 44l43 -44zM341 572l-42 42l42 43l43 -43zM53 380l-42 42l42 43l43 -43zM437 572l-42 42l42 43l43 -43zM245 380l-42 42l42 43l43 -43zM149 92l-42 42l42 44l43 -44zM53 188l-42 42l42 43l43 -43zM149 476l-42 42l42 43 l43 -43zM341 380l-42 42l42 43l43 -43zM149 380l-42 42l42 43l43 -43zM245 188l-42 42l42 43l43 -43zM437 -4l-42 42l42 44l43 -44zM245 572l-42 42l42 43l43 -43zM149 284l-42 42l42 43l43 -43zM149 188l-42 42l42 43l43 -43z" />
<glyph unicode="&#x2122;" d="M150 380l-42 42l42 43l43 -43zM438 476l-42 42l42 43l43 -43zM534 572l-42 42l42 43l43 -43zM342 380l-42 42l42 43l43 -43zM534 380l-42 42l42 43l43 -43zM54 572l-42 42l42 43l43 -43zM150 476l-42 42l42 43l43 -43zM342 572l-42 42l42 43l43 -43zM246 572l-42 42 l42 43l43 -43zM534 476l-42 42l42 43l43 -43zM342 476l-42 42l42 43l43 -43zM150 572l-42 42l42 43l43 -43z" />
</font>
</defs>
</svg>
