<?xml version="1.0" standalone="no"?>
<!DOCTYPE svg PUBLIC "-//W3C//DTD SVG 1.1//EN" "http://www.w3.org/Graphics/SVG/1.1/DTD/svg11.dtd" >
<svg xmlns="http://www.w3.org/2000/svg">
<metadata>
This is a custom SVG webfont generated by Font Squirrel.
Copyright   : Copyright (c) 2007 by George Triantafyllakos. All rights reserved.
Designer    : George Triantafyllakos
Foundry     : George Triantafyllakos
Foundry URL : http://www.backpacker.gr
</metadata>
<defs>
<font id="webfont" horiz-adv-x="600" >
<font-face units-per-em="1000" ascent="800" descent="-200" />
<missing-glyph horiz-adv-x="500" />
<glyph unicode=" " />
<glyph unicode="!" d="M280 401h-24v-44h24v-50h-24v-24h-50v24h-24v50h24v44h-24v50h24v45h-24v50h24v44h-24v50h24v24h50v-24h24v-50h-24v-44h24v-50h-24v-45h24v-50zM280 118h-24v-44h24v-50h-24v-24h-50v24h-24v50h24v44h-24v50h24v24h50v-24h24v-50z" />
<glyph unicode="&#x22;" d="M543 590h-24v-44h24v-50h-24v-24h-50v24h-24v50h24v44h-24v50h24v24h50v-24h24v-50zM354 590h-24v-44h24v-50h-24v-24h-50v24h-23v50h23v44h-23v50h23v24h50v-24h24v-50zM259 401h-23v-23h-50v23h-24v50h24v24h50v-24h23v-50zM448 401h-23v-23h-50v23h-24v50h24v24h50 v-24h23v-50z" />
<glyph unicode="#" d="M185 118h-24v-44h24v-50h-24v-24h-50v24h-23v50h23v44h-23v50h23v44h-44v-23h-50v23h-24v51h24v23h50v-23h44v44h-23v50h23v44h-44v-23h-50v23h-24v50h24v24h50v-24h44v45h-23v50h23v44h-23v50h23v24h50v-24h24v-50h-24v-44h24v-50h-24v-45h45v24h50v-24h44v45h-23v50h23 v44h-23v50h23v24h50v-24h24v-50h-24v-44h24v-50h-24v-45h45v24h50v-24h23v-50h-23v-23h-50v23h-45v-44h24v-50h-24v-44h45v23h50v-23h23v-51h-23v-23h-50v23h-45v-44h24v-50h-24v-44h24v-50h-24v-24h-50v24h-23v50h23v44h-23v50h23v44h-44v-23h-50v23h-45v-44h24v-50z M185 307h-24v-44h45v23h50v-23h44v44h-23v50h23v44h-44v-23h-50v23h-45v-44h24v-50z" />
<glyph unicode="$" d="M280 -71h-24v-23h-50v23h-24v50h24v45h-45v-24h-50v24h-44v-24h-50v24h-24v50h24v23h50v-23h44v23h50v-23h45v44h-24v50h24v44h-45v-23h-50v23h-23v51h23v23h50v-23h45v44h-24v50h24v44h-45v-23h-50v23h-23v50h23v24h50v-24h45v45h-24v50h24v23h50v-23h24v-50h-24v-45h44 v24h50v-24h45v24h50v-24h23v-50h-23v-23h-50v23h-45v-23h-50v23h-44v-44h24v-50h-24v-44h44v23h50v-23h24v-51h-24v-23h-50v23h-44v-44h24v-50h-24v-44h44v23h50v-23h24v-50h-24v-24h-50v24h-44v-45h24v-50zM91 307h-24v-24h-50v24h-24v50h24v24h50v-24h24v-50zM468 118h-23 v-24h-50v24h-24v50h24v24h50v-24h23v-50z" />
<glyph unicode="%" d="M373 24h-24v-24h-50v24h-44v-24h-51v24h-23v50h23v44h-23v50h23v24h51v-24h44v24h50v-24h24v-50h-24v-44h24v-50zM184 496h-24v-24h-50v24h-44v-24h-50v24h-24v50h24v44h-24v50h24v24h50v-24h44v24h50v-24h24v-50h-24v-44h24v-50zM184 307h-24v-44h24v-51h-24v-23h-50v23 h-24v51h24v44h-24v50h24v24h50v-24h24v-50zM373 590h-24v-44h24v-50h-24v-24h-50v24h-24v50h24v44h-24v50h24v24h50v-24h24v-50zM89 118h-23v-44h23v-50h-23v-24h-50v24h-24v50h24v44h-24v50h24v24h50v-24h23v-50zM278 401h-23v-23h-51v23h-23v50h23v24h51v-24h23v-50z M255 74h44v44h-44v-44zM110 590h-44v-44h44v44z" />
<glyph unicode="&#x26;" d="M374 212h-24v-44h24v-50h-24v-24h-50v24h-23v50h23v44h-23v51h23v44h-44v-24h-50v24h-45v-24h-50v24h-23v50h23v24h50v-24h45v24h50v-24h44v24h50v-24h45v24h50v-24h23v-50h-23v-24h-50v24h-45v-44h24v-51zM91 212h-24v-44h24v-50h-24v-24h-50v24h-24v50h24v44h-24v51h24 v23h50v-23h24v-51zM91 496h-24v-45h24v-50h-24v-23h-50v23h-24v50h24v45h-24v50h24v23h50v-23h24v-50zM280 590h-24v-23h-50v23h-45v-23h-50v23h-23v50h23v24h50v-24h45v24h50v-24h24v-50zM280 24h-24v-24h-50v24h-45v-24h-50v24h-23v50h23v23h50v-23h45v23h50v-23h24v-50z " />
<glyph unicode="'" d="M448 590h-23v-44h23v-50h-23v-24h-50v24h-24v50h24v44h-24v50h24v24h50v-24h23v-50zM354 401h-24v-23h-50v23h-23v50h23v24h50v-24h24v-50z" />
<glyph unicode="(" d="M281 212h-24v-44h24v-50h-24v-24h-50v24h-23v50h23v44h-23v51h23v44h-23v50h23v44h-23v50h23v45h-23v50h23v23h50v-23h24v-50h-24v-45h24v-50h-24v-44h24v-50h-24v-44h24v-51zM375 24h-23v-24h-50v24h-24v50h24v23h50v-23h23v-50zM375 590h-23v-23h-50v23h-24v50h24v24 h50v-24h23v-50z" />
<glyph unicode=")" d="M375 212h-23v-44h23v-50h-23v-24h-50v24h-24v50h24v44h-24v51h24v44h-24v50h24v44h-24v50h24v45h-24v50h24v23h50v-23h23v-50h-23v-45h23v-50h-23v-44h23v-50h-23v-44h23v-51zM281 24h-24v-24h-50v24h-23v50h23v23h50v-23h24v-50zM281 590h-24v-23h-50v23h-23v50h23v24 h50v-24h24v-50z" />
<glyph unicode="*" d="M88 401h-24v-23h-50v23h-23v50h23v24h50v-24h24v-50zM277 401h-24v-23h-50v23h-24v50h24v24h50v-24h24v-50zM182 496h-23v-24h-50v24h-24v50h24v23h50v-23h23v-50zM88 590h-24v-23h-50v23h-23v50h23v24h50v-24h24v-50zM277 590h-24v-23h-50v23h-24v50h24v24h50v-24h24 v-50z" />
<glyph unicode="+" d="M280 118h-24v-44h24v-50h-24v-24h-50v24h-24v50h24v44h-24v50h24v44h-45v-23h-50v23h-44v-23h-50v23h-24v51h24v23h50v-23h44v23h50v-23h45v44h-24v50h24v44h-24v50h24v24h50v-24h24v-50h-24v-44h24v-50h-24v-44h44v23h50v-23h45v23h50v-23h23v-51h-23v-23h-50v23h-45 v-23h-50v23h-44v-44h24v-50z" />
<glyph unicode="," d="M278 118h-23v-44h23v-50h-23v-24h-51v24h-23v50h23v44h-23v50h23v24h51v-24h23v-50zM184 -71h-24v-23h-50v23h-24v50h24v24h50v-24h24v-50z" />
<glyph unicode="-" d="M374 212h-24v-23h-50v23h-44v-23h-50v23h-45v-23h-50v23h-23v51h23v23h50v-23h45v23h50v-23h44v23h50v-23h24v-51z" />
<glyph unicode="." d="M280 118h-24v-44h24v-50h-24v-24h-50v24h-24v50h24v44h-24v50h24v24h50v-24h24v-50z" />
<glyph unicode="/" d="M281 307h-24v-44h24v-51h-24v-23h-50v23h-23v51h23v44h-23v50h23v24h50v-24h24v-50zM186 118h-23v-44h23v-50h-23v-24h-50v24h-24v50h24v44h-24v50h24v24h50v-24h23v-50zM470 590h-24v-44h24v-50h-24v-24h-50v24h-23v50h23v44h-23v50h23v24h50v-24h24v-50zM375 401h-23 v-23h-50v23h-24v50h24v24h50v-24h23v-50z" />
<glyph unicode="0" d="M374 24h-24v-24h-50v24h-44v-24h-50v24h-45v-24h-50v24h-23v50h23v44h-44v-24h-50v24h-24v50h24v44h-24v51h24v44h-24v50h24v24h50v-24h24v-50h-24v-44h24v-51h-24v-44h44v24h50v-24h24v-50h-24v-44h45v23h50v-23h44v23h50v-23h24v-50zM468 212h-23v-44h23v-50h-23v-24 h-50v24h-24v50h24v44h-24v51h24v44h-45v-24h-50v24h-23v50h23v44h-44v-23h-50v23h-45v-23h-50v23h-23v50h23v24h50v-24h45v24h50v-24h44v24h50v-24h24v-50h-24v-44h45v24h50v-24h23v-50h-23v-44h23v-51zM280 212h-24v-23h-50v23h-24v51h24v23h50v-23h24v-51z" />
<glyph unicode="1" d="M468 24h-23v-24h-50v24h-45v-24h-50v24h-44v-24h-50v24h-45v-24h-50v24h-44v-24h-50v24h-24v50h24v23h50v-23h44v23h50v-23h45v44h-24v50h24v44h-24v51h24v44h-24v50h24v44h-45v-23h-50v23h-44v-23h-50v23h-24v50h24v24h50v-24h44v24h50v-24h45v24h50v-24h24v-50h-24v-44 h24v-50h-24v-44h24v-51h-24v-44h24v-50h-24v-44h44v23h50v-23h45v23h50v-23h23v-50z" />
<glyph unicode="2" d="M468 24h-23v-24h-50v24h-45v-24h-50v24h-44v-24h-50v24h-45v-24h-50v24h-44v-24h-50v24h-24v50h24v23h50v-23h44v44h-23v50h23v24h50v-24h24v-50h-24v-44h45v23h50v-23h44v23h50v-23h45v23h50v-23h23v-50zM374 401h-24v-23h-50v23h-44v-23h-50v23h-45v-23h-50v23h-23v50 h23v24h50v-24h45v24h50v-24h44v24h50v-24h24v-50zM374 212h-24v-23h-50v23h-44v-23h-50v23h-24v51h24v23h50v-23h44v23h50v-23h24v-51zM91 307h-24v-24h-50v24h-24v50h24v24h50v-24h24v-50zM468 307h-23v-24h-50v24h-24v50h24v24h50v-24h23v-50z" />
<glyph unicode="3" d="M374 118h-24v-24h-50v24h-44v-24h-50v24h-45v-24h-50v24h-23v50h23v24h50v-24h45v24h50v-24h44v24h50v-24h24v-50zM374 401h-24v-23h-50v23h-44v-23h-50v23h-45v-23h-50v23h-23v50h23v24h50v-24h45v24h50v-24h44v24h50v-24h24v-50zM374 -165h-24v-24h-50v24h-44v-24h-50 v24h-45v-24h-50v24h-23v50h23v23h50v-23h45v23h50v-23h44v23h50v-23h24v-50zM468 212h-23v-23h-50v23h-24v51h24v44h-24v50h24v24h50v-24h23v-50h-23v-44h23v-51zM468 -71h-23v-23h-50v23h-24v50h24v45h-24v50h24v23h50v-23h23v-50h-23v-45h23v-50zM91 307h-24v-24h-50v24 h-24v50h24v24h50v-24h24v-50zM91 -71h-24v-23h-50v23h-24v50h24v24h50v-24h24v-50z" />
<glyph unicode="4" d="M374 -71h-24v-44h24v-50h-24v-24h-50v24h-23v50h23v44h-23v50h23v45h-44v-24h-50v24h-45v-24h-50v24h-44v-24h-50v24h-24v50h24v44h-24v50h24v24h50v-24h24v-50h-24v-44h44v23h50v-23h45v23h50v-23h44v44h-23v50h23v44h-23v51h23v44h-44v-24h-50v24h-24v50h24v24h50v-24 h44v44h-23v50h23v24h50v-24h24v-50h-24v-44h24v-50h-24v-44h24v-51h-24v-44h24v-50h-24v-44h45v23h50v-23h23v-50h-23v-24h-50v24h-45v-45h24v-50zM185 212h-24v-23h-50v23h-23v51h23v23h50v-23h24v-51z" />
<glyph unicode="5" d="M91 212h-24v-44h44v24h50v-24h45v24h50v-24h44v24h50v-24h24v-50h-24v-24h-50v24h-44v-24h-50v24h-45v-24h-50v24h-44v-24h-50v24h-24v50h24v44h-24v51h24v44h-24v50h24v44h-24v50h24v24h50v-24h44v24h50v-24h45v24h50v-24h44v24h50v-24h45v24h50v-24h23v-50h-23v-23h-50 v23h-45v-23h-50v23h-44v-23h-50v23h-45v-23h-50v23h-44v-44h24v-50h-24v-44h24v-51zM374 -165h-24v-24h-50v24h-44v-24h-50v24h-45v-24h-50v24h-44v-24h-50v24h-24v50h24v23h50v-23h44v23h50v-23h45v23h50v-23h44v23h50v-23h24v-50zM468 24h-23v-45h23v-50h-23v-23h-50v23 h-24v50h24v45h-24v50h24v23h50v-23h23v-50z" />
<glyph unicode="6" d="M91 212h-24v-44h24v-50h-24v-24h-50v24h-24v50h24v44h-24v51h24v44h-24v50h24v44h-24v50h24v24h50v-24h24v-50h-24v-44h44v24h50v-24h45v24h50v-24h44v24h50v-24h24v-50h-24v-24h-50v24h-44v-24h-50v24h-45v-24h-50v24h-44v-44h24v-51zM374 24h-24v-24h-50v24h-44v-24 h-50v24h-45v-24h-50v24h-23v50h23v23h50v-23h45v23h50v-23h44v23h50v-23h24v-50zM468 212h-23v-44h23v-50h-23v-24h-50v24h-24v50h24v44h-24v51h24v23h50v-23h23v-51zM374 590h-24v-23h-50v23h-44v-23h-50v23h-24v50h24v24h50v-24h44v24h50v-24h24v-50zM185 496h-24v-24h-50 v24h-23v50h23v23h50v-23h24v-50z" />
<glyph unicode="7" d="M468 401h-23v-44h23v-50h-23v-24h-50v24h-24v50h24v44h-45v-23h-50v23h-44v-23h-50v23h-45v-23h-50v23h-44v-23h-50v23h-24v50h24v24h50v-24h44v24h50v-24h45v24h50v-24h44v24h50v-24h45v24h50v-24h23v-50zM185 -71h-24v-44h24v-50h-24v-24h-50v24h-23v50h23v44h-23v50 h23v45h-23v50h23v23h50v-23h24v-50h-24v-45h24v-50zM280 118h-24v-24h-50v24h-24v50h24v24h50v-24h24v-50zM374 212h-24v-23h-50v23h-23v51h23v23h50v-23h24v-51z" />
<glyph unicode="8" d="M374 307h-24v-24h-50v24h-44v-24h-50v24h-45v-24h-50v24h-23v50h23v24h50v-24h45v24h50v-24h44v24h50v-24h24v-50zM374 24h-24v-24h-50v24h-44v-24h-50v24h-45v-24h-50v24h-23v50h23v23h50v-23h45v23h50v-23h44v23h50v-23h24v-50zM374 590h-24v-23h-50v23h-44v-23h-50v23 h-45v-23h-50v23h-23v50h23v24h50v-24h45v24h50v-24h44v24h50v-24h24v-50zM91 212h-24v-44h24v-50h-24v-24h-50v24h-24v50h24v44h-24v51h24v23h50v-23h24v-51zM91 496h-24v-45h24v-50h-24v-23h-50v23h-24v50h24v45h-24v50h24v23h50v-23h24v-50zM468 212h-23v-44h23v-50h-23 v-24h-50v24h-24v50h24v44h-24v51h24v23h50v-23h23v-51zM468 496h-23v-45h23v-50h-23v-23h-50v23h-24v50h24v45h-24v50h24v23h50v-23h23v-50z" />
<glyph unicode="9" d="M468 118h-23v-44h23v-50h-23v-24h-50v24h-24v50h24v44h-45v-24h-50v24h-44v-24h-50v24h-45v-24h-50v24h-23v50h23v24h50v-24h45v24h50v-24h44v24h50v-24h45v44h-24v51h24v44h-24v50h24v24h50v-24h23v-50h-23v-44h23v-51h-23v-44h23v-50zM374 401h-24v-23h-50v23h-44v-23 h-50v23h-45v-23h-50v23h-23v50h23v24h50v-24h45v24h50v-24h44v24h50v-24h24v-50zM91 307h-24v-44h24v-51h-24v-23h-50v23h-24v51h24v44h-24v50h24v24h50v-24h24v-50zM280 -165h-24v-24h-50v24h-45v-24h-50v24h-23v50h23v23h50v-23h45v23h50v-23h24v-50zM374 -71h-24v-23h-50 v23h-23v50h23v24h50v-24h24v-50z" />
<glyph unicode=":" d="M280 118h-24v-44h24v-50h-24v-24h-50v24h-24v50h24v44h-24v50h24v24h50v-24h24v-50zM280 401h-24v-44h24v-50h-24v-24h-50v24h-24v50h24v44h-24v50h24v24h50v-24h24v-50z" />
<glyph unicode=";" d="M278 118h-23v-44h23v-50h-23v-24h-51v24h-23v50h23v44h-23v50h23v24h51v-24h23v-50zM278 401h-23v-44h23v-50h-23v-24h-51v24h-23v50h23v44h-23v50h23v24h51v-24h23v-50zM184 -71h-24v-23h-50v23h-24v50h24v24h50v-24h24v-50z" />
<glyph unicode="&#x3c;" d="M374 24h-24v-24h-50v24h-23v50h23v23h50v-23h24v-50zM280 118h-24v-24h-50v24h-24v50h24v24h50v-24h24v-50zM185 212h-24v-23h-50v23h-23v51h23v23h50v-23h24v-51zM280 307h-24v-24h-50v24h-24v50h24v24h50v-24h24v-50zM374 401h-24v-23h-50v23h-23v50h23v24h50v-24h24 v-50z" />
<glyph unicode="=" d="M468 307h-23v-24h-50v24h-45v-24h-50v24h-44v-24h-50v24h-45v-24h-50v24h-44v-24h-50v24h-24v50h24v24h50v-24h44v24h50v-24h45v24h50v-24h44v24h50v-24h45v24h50v-24h23v-50zM468 118h-23v-24h-50v24h-45v-24h-50v24h-44v-24h-50v24h-45v-24h-50v24h-44v-24h-50v24h-24 v50h24v24h50v-24h44v24h50v-24h45v24h50v-24h44v24h50v-24h45v24h50v-24h23v-50z" />
<glyph unicode="&#x3e;" d="M282 24h-23v-24h-50v24h-24v50h24v23h50v-23h23v-50zM377 118h-24v-24h-50v24h-24v50h24v24h50v-24h24v-50zM471 212h-23v-23h-50v23h-24v51h24v23h50v-23h23v-51zM377 307h-24v-24h-50v24h-24v50h24v24h50v-24h24v-50zM282 401h-23v-23h-50v23h-24v50h24v24h50v-24h23 v-50z" />
<glyph unicode="?" d="M374 590h-24v-23h-50v23h-44v-23h-50v23h-45v-23h-50v23h-23v50h23v24h50v-24h45v24h50v-24h44v24h50v-24h24v-50zM280 118h-24v-44h24v-50h-24v-24h-50v24h-24v50h24v44h-24v50h24v24h50v-24h24v-50zM374 307h-24v-24h-50v24h-44v-24h-50v24h-24v50h24v24h50v-24h44v24 h50v-24h24v-50zM468 496h-23v-45h23v-50h-23v-23h-50v23h-24v50h24v45h-24v50h24v23h50v-23h23v-50zM91 496h-24v-24h-50v24h-24v50h24v23h50v-23h24v-50z" />
<glyph unicode="@" d="M468 212h-23v-23h-50v23h-45v-23h-50v23h-44v-23h-50v23h-45v-23h-50v23h-44v-44h24v-50h-24v-24h-50v24h-24v50h24v44h-24v51h24v44h-24v50h24v44h-24v50h24v45h-24v50h24v23h50v-23h24v-50h-24v-45h24v-50h-24v-44h44v24h50v-24h24v-50h-24v-44h45v23h50v-23h44v44h-23 v50h23v44h-44v-23h-50v23h-24v50h24v24h50v-24h44v24h50v-24h45v45h-24v50h24v23h50v-23h23v-50h-23v-45h23v-50h-23v-44h23v-50h-23v-44h23v-51zM468 24h-23v-24h-50v24h-45v-24h-50v24h-44v-24h-50v24h-45v-24h-50v24h-23v50h23v23h50v-23h45v23h50v-23h44v23h50v-23h45 v23h50v-23h23v-50zM374 590h-24v-23h-50v23h-44v-23h-50v23h-45v-23h-50v23h-23v50h23v24h50v-24h45v24h50v-24h44v24h50v-24h24v-50zM395 401h-45v-44h45v44zM395 307h-45v-44h45v44zM111 307h-44v-44h44v44z" />
<glyph unicode="A" d="M90 120h-24v-45h24v-51h-24v-24h-51v24h-24v51h24v45h-24v51h24v45h-24v51h24v45h-24v51h24v45h-24v51h24v45h-24v51h24v24h51v-24h24v-51h-24v-45h24v-51h-24v-45h24v-51h-24v-45h45v24h51v-24h45v24h51v-24h45v24h51v-24h45v45h-24v51h24v45h-24v51h24v45h-24v51h24v24 h51v-24h24v-51h-24v-45h24v-51h-24v-45h24v-51h-24v-45h24v-51h-24v-45h24v-51h-24v-45h24v-51h-24v-24h-51v24h-24v51h24v45h-24v51h24v45h-45v-24h-51v24h-45v-24h-51v24h-45v-24h-51v24h-45v-45h24v-51zM378 600h-24v-24h-51v24h-45v-24h-51v24h-45v-24h-51v24h-24v51h24 v24h51v-24h45v24h51v-24h45v24h51v-24h24v-51z" />
<glyph unicode="B" d="M90 120h-24v-45h45v24h51v-24h45v24h51v-24h45v24h51v-24h24v-51h-24v-24h-51v24h-45v-24h-51v24h-45v-24h-51v24h-45v-24h-51v24h-24v51h24v45h-24v51h24v45h-24v51h24v45h-24v51h24v45h-24v51h24v45h-24v51h24v45h-24v51h24v24h51v-24h45v24h51v-24h45v24h51v-24h45v24 h51v-24h24v-51h-24v-24h-51v24h-45v-24h-51v24h-45v-24h-51v24h-45v-45h24v-51h-24v-45h24v-51h-24v-45h45v24h51v-24h45v24h51v-24h45v24h51v-24h24v-51h-24v-24h-51v24h-45v-24h-51v24h-45v-24h-51v24h-45v-45h24v-51h-24v-45h24v-51zM474 216h-24v-45h24v-51h-24v-24h-51 v24h-24v51h24v45h-24v51h24v24h51v-24h24v-51zM474 504h-24v-45h24v-51h-24v-24h-51v24h-24v51h24v45h-24v51h24v24h51v-24h24v-51z" />
<glyph unicode="C" d="M90 216h-24v-45h24v-51h-24v-24h-51v24h-24v51h24v45h-24v51h24v45h-24v51h24v45h-24v51h24v45h-24v51h24v24h51v-24h24v-51h-24v-45h24v-51h-24v-45h24v-51h-24v-45h24v-51zM378 24h-24v-24h-51v24h-45v-24h-51v24h-45v-24h-51v24h-24v51h24v24h51v-24h45v24h51v-24h45 v24h51v-24h24v-51zM378 600h-24v-24h-51v24h-45v-24h-51v24h-45v-24h-51v24h-24v51h24v24h51v-24h45v24h51v-24h45v24h51v-24h24v-51zM474 504h-24v-24h-51v24h-24v51h24v24h51v-24h24v-51zM474 120h-24v-24h-51v24h-24v51h24v24h51v-24h24v-51z" />
<glyph unicode="D" d="M90 120h-24v-45h45v24h51v-24h45v24h51v-24h45v24h51v-24h24v-51h-24v-24h-51v24h-45v-24h-51v24h-45v-24h-51v24h-45v-24h-51v24h-24v51h24v45h-24v51h24v45h-24v51h24v45h-24v51h24v45h-24v51h24v45h-24v51h24v45h-24v51h24v24h51v-24h45v24h51v-24h45v24h51v-24h45v24 h51v-24h24v-51h-24v-24h-51v24h-45v-24h-51v24h-45v-24h-51v24h-45v-45h24v-51h-24v-45h24v-51h-24v-45h24v-51h-24v-45h24v-51h-24v-45h24v-51zM474 216h-24v-45h24v-51h-24v-24h-51v24h-24v51h24v45h-24v51h24v45h-24v51h24v45h-24v51h24v45h-24v51h24v24h51v-24h24v-51 h-24v-45h24v-51h-24v-45h24v-51h-24v-45h24v-51z" />
<glyph unicode="E" d="M90 120h-24v-45h45v24h51v-24h45v24h51v-24h45v24h51v-24h45v24h51v-24h24v-51h-24v-24h-51v24h-45v-24h-51v24h-45v-24h-51v24h-45v-24h-51v24h-45v-24h-51v24h-24v51h24v45h-24v51h24v45h-24v51h24v45h-24v51h24v45h-24v51h24v45h-24v51h24v45h-24v51h24v24h51v-24h45 v24h51v-24h45v24h51v-24h45v24h51v-24h45v24h51v-24h24v-51h-24v-24h-51v24h-45v-24h-51v24h-45v-24h-51v24h-45v-24h-51v24h-45v-45h24v-51h-24v-45h24v-51h-24v-45h45v24h51v-24h45v24h51v-24h45v24h51v-24h24v-51h-24v-24h-51v24h-45v-24h-51v24h-45v-24h-51v24h-45v-45 h24v-51h-24v-45h24v-51z" />
<glyph unicode="F" d="M90 120h-24v-45h24v-51h-24v-24h-51v24h-24v51h24v45h-24v51h24v45h-24v51h24v45h-24v51h24v45h-24v51h24v45h-24v51h24v45h-24v51h24v24h51v-24h45v24h51v-24h45v24h51v-24h45v24h51v-24h45v24h51v-24h24v-51h-24v-24h-51v24h-45v-24h-51v24h-45v-24h-51v24h-45v-24h-51 v24h-45v-45h24v-51h-24v-45h24v-51h-24v-45h45v24h51v-24h45v24h51v-24h45v24h51v-24h24v-51h-24v-24h-51v24h-45v-24h-51v24h-45v-24h-51v24h-45v-45h24v-51h-24v-45h24v-51z" />
<glyph unicode="G" d="M474 24h-24v-24h-51v24h-45v-24h-51v24h-45v-24h-51v24h-45v-24h-51v24h-24v51h24v24h51v-24h45v24h51v-24h45v24h51v-24h45v45h-24v51h24v45h-45v-24h-51v24h-24v51h24v24h51v-24h45v24h51v-24h24v-51h-24v-45h24v-51h-24v-45h24v-51zM90 216h-24v-45h24v-51h-24v-24 h-51v24h-24v51h24v45h-24v51h24v45h-24v51h24v45h-24v51h24v45h-24v51h24v24h51v-24h24v-51h-24v-45h24v-51h-24v-45h24v-51h-24v-45h24v-51zM378 600h-24v-24h-51v24h-45v-24h-51v24h-45v-24h-51v24h-24v51h24v24h51v-24h45v24h51v-24h45v24h51v-24h24v-51zM474 504h-24 v-24h-51v24h-24v51h24v24h51v-24h24v-51z" />
<glyph unicode="H" d="M90 120h-24v-45h24v-51h-24v-24h-51v24h-24v51h24v45h-24v51h24v45h-24v51h24v45h-24v51h24v45h-24v51h24v45h-24v51h24v45h-24v51h24v24h51v-24h24v-51h-24v-45h24v-51h-24v-45h24v-51h-24v-45h45v24h51v-24h45v24h51v-24h45v24h51v-24h45v45h-24v51h24v45h-24v51h24v45 h-24v51h24v24h51v-24h24v-51h-24v-45h24v-51h-24v-45h24v-51h-24v-45h24v-51h-24v-45h24v-51h-24v-45h24v-51h-24v-45h24v-51h-24v-24h-51v24h-24v51h24v45h-24v51h24v45h-24v51h24v45h-45v-24h-51v24h-45v-24h-51v24h-45v-24h-51v24h-45v-45h24v-51h-24v-45h24v-51z" />
<glyph unicode="I" d="M474 24h-24v-24h-51v24h-45v-24h-51v24h-45v-24h-51v24h-45v-24h-51v24h-45v-24h-51v24h-24v51h24v24h51v-24h45v24h51v-24h45v45h-24v51h24v45h-24v51h24v45h-24v51h24v45h-24v51h24v45h-24v51h24v45h-45v-24h-51v24h-45v-24h-51v24h-24v51h24v24h51v-24h45v24h51v-24 h45v24h51v-24h45v24h51v-24h45v24h51v-24h24v-51h-24v-24h-51v24h-45v-24h-51v24h-45v-45h24v-51h-24v-45h24v-51h-24v-45h24v-51h-24v-45h24v-51h-24v-45h24v-51h-24v-45h45v24h51v-24h45v24h51v-24h24v-51z" />
<glyph unicode="J" d="M377 216h-24v-45h24v-51h-24v-24h-51v24h-24v51h24v45h-24v51h24v45h-24v51h24v45h-24v51h24v45h-24v51h24v45h-45v-24h-51v24h-45v-24h-51v24h-45v-24h-51v24h-24v51h24v24h51v-24h45v24h51v-24h45v24h51v-24h45v24h51v-24h24v-51h-24v-45h24v-51h-24v-45h24v-51h-24 v-45h24v-51h-24v-45h24v-51zM281 24h-24v-24h-51v24h-45v-24h-51v24h-24v51h24v24h51v-24h45v24h51v-24h24v-51zM89 120h-24v-24h-51v24h-24v51h24v24h51v-24h24v-51z" />
<glyph unicode="K" d="M90 120h-24v-45h24v-51h-24v-24h-51v24h-24v51h24v45h-24v51h24v45h-24v51h24v45h-24v51h24v45h-24v51h24v45h-24v51h24v45h-24v51h24v24h51v-24h24v-51h-24v-45h24v-51h-24v-45h24v-51h-24v-45h45v24h51v-24h45v24h51v-24h24v-51h-24v-24h-51v24h-45v-24h-51v24h-45v-45 h24v-51h-24v-45h24v-51zM474 600h-24v-45h24v-51h-24v-24h-51v24h-24v51h24v45h-24v51h24v24h51v-24h24v-51zM474 24h-24v-24h-51v24h-24v51h24v45h-24v51h24v24h51v-24h24v-51h-24v-45h24v-51zM378 216h-24v-24h-51v24h-24v51h24v24h51v-24h24v-51zM378 408h-24v-24h-51v24 h-24v51h24v24h51v-24h24v-51z" />
<glyph unicode="L" d="M90 120h-24v-45h45v24h51v-24h45v24h51v-24h45v24h51v-24h45v24h51v-24h24v-51h-24v-24h-51v24h-45v-24h-51v24h-45v-24h-51v24h-45v-24h-51v24h-45v-24h-51v24h-24v51h24v45h-24v51h24v45h-24v51h24v45h-24v51h24v45h-24v51h24v45h-24v51h24v45h-24v51h24v24h51v-24h24 v-51h-24v-45h24v-51h-24v-45h24v-51h-24v-45h24v-51h-24v-45h24v-51h-24v-45h24v-51z" />
<glyph unicode="M" d="M90 120h-24v-45h24v-51h-24v-24h-51v24h-24v51h24v45h-24v51h24v45h-24v51h24v45h-24v51h24v45h-24v51h24v45h-24v51h24v45h-24v51h24v24h51v-24h24v-51h-24v-45h45v24h51v-24h24v-51h-24v-45h24v-51h-24v-24h-51v24h-45v-45h24v-51h-24v-45h24v-51h-24v-45h24v-51z M474 120h-24v-45h24v-51h-24v-24h-51v24h-24v51h24v45h-24v51h24v45h-24v51h24v45h-24v51h24v45h-45v-24h-51v24h-24v51h24v45h-24v51h24v24h51v-24h45v45h-24v51h24v24h51v-24h24v-51h-24v-45h24v-51h-24v-45h24v-51h-24v-45h24v-51h-24v-45h24v-51h-24v-45h24v-51z M282 312h-24v-45h24v-51h-24v-24h-51v24h-24v51h24v45h-24v51h24v24h51v-24h24v-51zM111 459v45h-45v-45h45zM354 459h45v45h-45v-45z" />
<glyph unicode="N" d="M90 120h-24v-45h24v-51h-24v-24h-51v24h-24v51h24v45h-24v51h24v45h-24v51h24v45h-24v51h24v45h-24v51h24v45h-24v51h24v45h-24v51h24v24h51v-24h24v-51h-24v-45h45v24h51v-24h24v-51h-24v-24h-51v24h-45v-45h24v-51h-24v-45h24v-51h-24v-45h24v-51h-24v-45h24v-51z M474 120h-24v-45h24v-51h-24v-24h-51v24h-24v51h24v45h-24v51h24v45h-45v-24h-51v24h-24v51h24v24h51v-24h45v45h-24v51h24v45h-24v51h24v45h-24v51h24v45h-24v51h24v24h51v-24h24v-51h-24v-45h24v-51h-24v-45h24v-51h-24v-45h24v-51h-24v-45h24v-51h-24v-45h24v-51z M282 408h-24v-45h24v-51h-24v-24h-51v24h-24v51h24v45h-24v51h24v24h51v-24h24v-51z" />
<glyph unicode="O" d="M90 216h-24v-45h24v-51h-24v-24h-51v24h-24v51h24v45h-24v51h24v45h-24v51h24v45h-24v51h24v45h-24v51h24v24h51v-24h24v-51h-24v-45h24v-51h-24v-45h24v-51h-24v-45h24v-51zM474 216h-24v-45h24v-51h-24v-24h-51v24h-24v51h24v45h-24v51h24v45h-24v51h24v45h-24v51h24 v45h-24v51h24v24h51v-24h24v-51h-24v-45h24v-51h-24v-45h24v-51h-24v-45h24v-51zM378 24h-24v-24h-51v24h-45v-24h-51v24h-45v-24h-51v24h-24v51h24v24h51v-24h45v24h51v-24h45v24h51v-24h24v-51zM378 600h-24v-24h-51v24h-45v-24h-51v24h-45v-24h-51v24h-24v51h24v24h51 v-24h45v24h51v-24h45v24h51v-24h24v-51z" />
<glyph unicode="P" d="M90 120h-24v-45h24v-51h-24v-24h-51v24h-24v51h24v45h-24v51h24v45h-24v51h24v45h-24v51h24v45h-24v51h24v45h-24v51h24v45h-24v51h24v24h51v-24h45v24h51v-24h45v24h51v-24h45v24h51v-24h24v-51h-24v-24h-51v24h-45v-24h-51v24h-45v-24h-51v24h-45v-45h24v-51h-24v-45 h24v-51h-24v-45h24v-51h-24v-45h45v24h51v-24h45v24h51v-24h45v24h51v-24h24v-51h-24v-24h-51v24h-45v-24h-51v24h-45v-24h-51v24h-45v-45h24v-51zM474 408h-24v-45h24v-51h-24v-24h-51v24h-24v51h24v45h-24v51h24v45h-24v51h24v24h51v-24h24v-51h-24v-45h24v-51z" />
<glyph unicode="Q" d="M282 -72h-24v-24h-51v24h-24v51h24v45h-45v-24h-51v24h-24v51h24v24h51v-24h45v45h-24v51h24v24h51v-24h24v-51h-24v-45h45v24h51v-24h24v-51h-24v-24h-51v24h-45v-45h24v-51zM474 216h-24v-45h24v-51h-24v-24h-51v24h-24v51h24v45h-24v51h24v45h-24v51h24v45h-24v51h24 v45h-24v51h24v24h51v-24h24v-51h-24v-45h24v-51h-24v-45h24v-51h-24v-45h24v-51zM90 216h-24v-45h24v-51h-24v-24h-51v24h-24v51h24v45h-24v51h24v45h-24v51h24v45h-24v51h24v45h-24v51h24v24h51v-24h24v-51h-24v-45h24v-51h-24v-45h24v-51h-24v-45h24v-51zM378 600h-24v-24 h-51v24h-45v-24h-51v24h-45v-24h-51v24h-24v51h24v24h51v-24h45v24h51v-24h45v24h51v-24h24v-51zM378 -168h-24v-24h-51v24h-24v51h24v24h51v-24h24v-51z" />
<glyph unicode="R" d="M90 120h-24v-45h24v-51h-24v-24h-51v24h-24v51h24v45h-24v51h24v45h-24v51h24v45h-24v51h24v45h-24v51h24v45h-24v51h24v45h-24v51h24v24h51v-24h45v24h51v-24h45v24h51v-24h45v24h51v-24h24v-51h-24v-24h-51v24h-45v-24h-51v24h-45v-24h-51v24h-45v-45h24v-51h-24v-45 h24v-51h-24v-45h45v24h51v-24h45v24h51v-24h45v24h51v-24h24v-51h-24v-45h24v-51h-24v-24h-51v24h-24v51h24v45h-45v-24h-51v24h-45v-24h-51v24h-45v-45h24v-51h-24v-45h24v-51zM474 120h-24v-45h24v-51h-24v-24h-51v24h-24v51h24v45h-24v51h24v24h51v-24h24v-51zM474 504 h-24v-45h24v-51h-24v-24h-51v24h-24v51h24v45h-24v51h24v24h51v-24h24v-51z" />
<glyph unicode="S" d="M378 24h-24v-24h-51v24h-45v-24h-51v24h-45v-24h-51v24h-45v-24h-51v24h-24v51h24v24h51v-24h45v24h51v-24h45v24h51v-24h45v24h51v-24h24v-51zM474 600h-24v-24h-51v24h-45v-24h-51v24h-45v-24h-51v24h-45v-24h-51v24h-24v51h24v24h51v-24h45v24h51v-24h45v24h51v-24h45 v24h51v-24h24v-51zM378 312h-24v-24h-51v24h-45v-24h-51v24h-45v-24h-51v24h-24v51h24v24h51v-24h45v24h51v-24h45v24h51v-24h24v-51zM474 216h-24v-45h24v-51h-24v-24h-51v24h-24v51h24v45h-24v51h24v24h51v-24h24v-51zM90 504h-24v-45h24v-51h-24v-24h-51v24h-24v51h24v45 h-24v51h24v24h51v-24h24v-51z" />
<glyph unicode="T" d="M282 120h-24v-45h24v-51h-24v-24h-51v24h-24v51h24v45h-24v51h24v45h-24v51h24v45h-24v51h24v45h-24v51h24v45h-24v51h24v45h-45v-24h-51v24h-45v-24h-51v24h-24v51h24v24h51v-24h45v24h51v-24h45v24h51v-24h45v24h51v-24h45v24h51v-24h24v-51h-24v-24h-51v24h-45v-24 h-51v24h-45v-45h24v-51h-24v-45h24v-51h-24v-45h24v-51h-24v-45h24v-51h-24v-45h24v-51z" />
<glyph unicode="U" d="M90 216h-24v-45h24v-51h-24v-24h-51v24h-24v51h24v45h-24v51h24v45h-24v51h24v45h-24v51h24v45h-24v51h24v45h-24v51h24v24h51v-24h24v-51h-24v-45h24v-51h-24v-45h24v-51h-24v-45h24v-51h-24v-45h24v-51zM474 216h-24v-45h24v-51h-24v-24h-51v24h-24v51h24v45h-24v51h24 v45h-24v51h24v45h-24v51h24v45h-24v51h24v45h-24v51h24v24h51v-24h24v-51h-24v-45h24v-51h-24v-45h24v-51h-24v-45h24v-51h-24v-45h24v-51zM378 24h-24v-24h-51v24h-45v-24h-51v24h-45v-24h-51v24h-24v51h24v24h51v-24h45v24h51v-24h45v24h51v-24h24v-51z" />
<glyph unicode="V" d="M90 408h-24v-45h24v-51h-24v-24h-51v24h-24v51h24v45h-24v51h24v45h-24v51h24v45h-24v51h24v24h51v-24h24v-51h-24v-45h24v-51h-24v-45h24v-51zM474 408h-24v-45h24v-51h-24v-24h-51v24h-24v51h24v45h-24v51h24v45h-24v51h24v45h-24v51h24v24h51v-24h24v-51h-24v-45h24 v-51h-24v-45h24v-51zM378 216h-24v-45h24v-51h-24v-24h-51v24h-24v51h24v45h-24v51h24v24h51v-24h24v-51zM186 216h-24v-45h24v-51h-24v-24h-51v24h-24v51h24v45h-24v51h24v24h51v-24h24v-51zM282 24h-24v-24h-51v24h-24v51h24v24h51v-24h24v-51z" />
<glyph unicode="W" d="M90 312h-24v-45h24v-51h-24v-24h-51v24h-24v51h24v45h-24v51h24v45h-24v51h24v45h-24v51h24v45h-24v51h24v24h51v-24h24v-51h-24v-45h24v-51h-24v-45h24v-51h-24v-45h24v-51zM474 312h-24v-45h24v-51h-24v-24h-51v24h-24v51h24v45h-24v51h24v45h-24v51h24v45h-24v51h24 v45h-24v51h24v24h51v-24h24v-51h-24v-45h24v-51h-24v-45h24v-51h-24v-45h24v-51zM282 312h-24v-45h24v-51h-24v-24h-51v24h-24v51h24v45h-24v51h24v45h-24v51h24v45h-24v51h24v24h51v-24h24v-51h-24v-45h24v-51h-24v-45h24v-51zM186 120h-24v-45h24v-51h-24v-24h-51v24h-24 v51h24v45h-24v51h24v24h51v-24h24v-51zM378 120h-24v-45h24v-51h-24v-24h-51v24h-24v51h24v45h-24v51h24v24h51v-24h24v-51z" />
<glyph unicode="X" d="M90 120h-24v-45h24v-51h-24v-24h-51v24h-24v51h24v45h-24v51h24v24h51v-24h24v-51zM90 504h-24v-24h-51v24h-24v51h24v45h-24v51h24v24h51v-24h24v-51h-24v-45h24v-51zM474 120h-24v-45h24v-51h-24v-24h-51v24h-24v51h24v45h-24v51h24v24h51v-24h24v-51zM474 504h-24v-24 h-51v24h-24v51h24v45h-24v51h24v24h51v-24h24v-51h-24v-45h24v-51zM282 312h-24v-24h-51v24h-24v51h24v24h51v-24h24v-51zM378 408h-24v-24h-51v24h-24v51h24v24h51v-24h24v-51zM186 216h-24v-24h-51v24h-24v51h24v24h51v-24h24v-51zM186 408h-24v-24h-51v24h-24v51h24v24 h51v-24h24v-51zM378 216h-24v-24h-51v24h-24v51h24v24h51v-24h24v-51z" />
<glyph unicode="Y" d="M282 120h-24v-45h24v-51h-24v-24h-51v24h-24v51h24v45h-24v51h24v45h-24v51h24v24h51v-24h24v-51h-24v-45h24v-51zM474 504h-24v-45h24v-51h-24v-24h-51v24h-24v51h24v45h-24v51h24v45h-24v51h24v24h51v-24h24v-51h-24v-45h24v-51zM90 504h-24v-45h24v-51h-24v-24h-51v24 h-24v51h24v45h-24v51h24v45h-24v51h24v24h51v-24h24v-51h-24v-45h24v-51zM186 312h-24v-24h-51v24h-24v51h24v24h51v-24h24v-51zM378 312h-24v-24h-51v24h-24v51h24v24h51v-24h24v-51z" />
<glyph unicode="Z" d="M90 120h-24v-45h45v24h51v-24h45v24h51v-24h45v24h51v-24h45v24h51v-24h24v-51h-24v-24h-51v24h-45v-24h-51v24h-45v-24h-51v24h-45v-24h-51v24h-45v-24h-51v24h-24v51h24v45h-24v51h24v24h51v-24h24v-51zM474 600h-24v-45h24v-51h-24v-24h-51v24h-24v51h24v45h-45v-24 h-51v24h-45v-24h-51v24h-45v-24h-51v24h-45v-24h-51v24h-24v51h24v24h51v-24h45v24h51v-24h45v24h51v-24h45v24h51v-24h45v24h51v-24h24v-51zM378 408h-24v-24h-51v24h-24v51h24v24h51v-24h24v-51zM282 312h-24v-24h-51v24h-24v51h24v24h51v-24h24v-51zM186 216h-24v-24h-51 v24h-24v51h24v24h51v-24h24v-51z" />
<glyph unicode="[" d="M281 118h-24v-44h45v23h50v-23h23v-50h-23v-24h-50v24h-45v-24h-50v24h-23v50h23v44h-23v50h23v44h-23v51h23v44h-23v50h23v44h-23v50h23v45h-23v50h23v44h-23v50h23v24h50v-24h45v24h50v-24h23v-50h-23v-23h-50v23h-45v-44h24v-50h-24v-45h24v-50h-24v-44h24v-50h-24 v-44h24v-51h-24v-44h24v-50z" />
<glyph unicode="\" d="M375 307h-23v-44h23v-51h-23v-23h-50v23h-24v51h24v44h-24v50h24v24h50v-24h23v-50zM470 118h-24v-44h24v-50h-24v-24h-50v24h-23v50h23v44h-23v50h23v24h50v-24h24v-50zM186 590h-23v-44h23v-50h-23v-24h-50v24h-24v50h24v44h-24v50h24v24h50v-24h23v-50zM281 401h-24 v-23h-50v23h-23v50h23v24h50v-24h24v-50z" />
<glyph unicode="]" d="M375 24h-23v-24h-50v24h-45v-24h-50v24h-23v50h23v23h50v-23h45v44h-24v50h24v44h-24v51h24v44h-24v50h24v44h-24v50h24v45h-24v50h24v44h-45v-23h-50v23h-23v50h23v24h50v-24h45v24h50v-24h23v-50h-23v-44h23v-50h-23v-45h23v-50h-23v-44h23v-50h-23v-44h23v-51h-23v-44 h23v-50h-23v-44h23v-50z" />
<glyph unicode="^" d="M185 590h-24v-23h-50v23h-23v50h23v24h50v-24h24v-50zM374 590h-24v-23h-50v23h-23v50h23v24h50v-24h24v-50zM280 685h-24v-24h-50v24h-24v50h24v23h50v-23h24v-50z" />
<glyph unicode="_" d="M468 24h-23v-24h-50v24h-45v-24h-50v24h-44v-24h-50v24h-45v-24h-50v24h-44v-24h-50v24h-24v50h24v23h50v-23h44v23h50v-23h45v23h50v-23h44v23h50v-23h45v23h50v-23h23v-50z" />
<glyph unicode="`" d="M277 590h-24v-23h-50v23h-44v-23h-50v23h-24v50h24v24h50v-24h44v24h50v-24h24v-50zM88 685h-24v-24h-50v24h-23v50h23v23h50v-23h24v-50z" />
<glyph unicode="a" d="M468 24h-23v-24h-50v24h-45v-24h-50v24h-44v-24h-50v24h-45v-24h-50v24h-23v50h23v23h50v-23h45v23h50v-23h44v23h50v-23h45v44h-24v50h24v44h-45v-23h-50v23h-44v-23h-50v23h-45v-23h-50v23h-23v51h23v23h50v-23h45v23h50v-23h44v23h50v-23h45v44h-24v50h24v24h50v-24 h23v-50h-23v-44h23v-51h-23v-44h23v-50h-23v-44h23v-50zM374 401h-24v-23h-50v23h-44v-23h-50v23h-45v-23h-50v23h-23v50h23v24h50v-24h45v24h50v-24h44v24h50v-24h24v-50zM91 118h-24v-24h-50v24h-24v50h24v24h50v-24h24v-50z" />
<glyph unicode="b" d="M185 307h-24v-23h-50v23h-44v-44h24v-51h-24v-44h24v-50h-24v-44h44v23h50v-23h45v23h50v-23h44v23h50v-23h24v-50h-24v-24h-50v24h-44v-24h-50v24h-45v-24h-50v24h-44v-24h-50v24h-24v50h24v44h-24v50h24v44h-24v51h24v44h-24v50h24v44h-24v50h24v45h-24v50h24v44h-24 v50h24v24h50v-24h24v-50h-24v-44h24v-50h-24v-45h20v-50h-20v-44h44v24h50v-24h24v-50zM468 212h-23v-44h23v-50h-23v-24h-50v24h-24v50h24v44h-24v51h24v44h-24v50h24v24h50v-24h23v-50h-23v-44h23v-51zM185 401v50h21v24h50v-24h44v24h50v-24h24v-50h-24v-23h-50v23h-44 v-23h-50v23h-21z" />
<glyph unicode="c" d="M91 212h-24v-44h24v-50h-24v-24h-50v24h-24v50h24v44h-24v51h24v44h-24v50h24v24h50v-24h24v-50h-24v-44h24v-51zM374 24h-24v-24h-50v24h-44v-24h-50v24h-45v-24h-50v24h-23v50h23v23h50v-23h45v23h50v-23h44v23h50v-23h24v-50zM374 401h-24v-23h-50v23h-44v-23h-50v23 h-45v-23h-50v23h-23v50h23v24h50v-24h45v24h50v-24h44v24h50v-24h24v-50zM468 307h-23v-24h-50v24h-24v50h24v24h50v-24h23v-50zM468 118h-23v-24h-50v24h-24v50h24v24h50v-24h23v-50z" />
<glyph unicode="d" d="M468 118h-23v-44h23v-50h-23v-24h-50v24h-24v50h24v44h-45v-24h-50v24h-23v50h23v24h50v-24h45v44h-24v51h24v44h-24v50h24v44h-45v-23h-50v23h-44v-23h-50v23h-45v-23h-50v23h-23v50h23v24h50v-24h45v24h50v-24h44v24h50v-24h45v45h-24v50h24v44h-24v50h24v24h50v-24h23 v-50h-23v-44h23v-50h-23v-45h23v-50h-23v-44h23v-50h-23v-44h23v-51h-23v-44h23v-50zM91 212h-24v-44h24v-50h-24v-24h-50v24h-24v50h24v44h-24v51h24v44h-24v50h24v24h50v-24h24v-50h-24v-44h24v-51zM280 24h-24v-24h-50v24h-45v-24h-50v24h-23v50h23v23h50v-23h45v23h50 v-23h24v-50z" />
<glyph unicode="e" d="M468 212h-23v-23h-50v23h-45v-23h-50v23h-44v-23h-50v23h-45v-23h-50v23h-44v-44h24v-50h-24v-24h-50v24h-24v50h24v44h-24v51h24v44h-24v50h24v24h50v-24h24v-50h-24v-44h44v23h50v-23h45v23h50v-23h44v23h50v-23h45v44h-24v50h24v24h50v-24h23v-50h-23v-44h23v-51z M468 24h-23v-24h-50v24h-45v-24h-50v24h-44v-24h-50v24h-45v-24h-50v24h-23v50h23v23h50v-23h45v23h50v-23h44v23h50v-23h45v23h50v-23h23v-50zM374 401h-24v-23h-50v23h-44v-23h-50v23h-45v-23h-50v23h-23v50h23v24h50v-24h45v24h50v-24h44v24h50v-24h24v-50z" />
<glyph unicode="f" d="M468 24h-23v-24h-50v24h-45v-24h-50v24h-44v-24h-50v24h-45v-24h-50v24h-44v-24h-50v24h-24v50h24v23h50v-23h44v23h50v-23h45v44h-24v50h24v44h-24v51h24v44h-24v50h24v44h-45v-23h-50v23h-23v50h23v24h50v-24h45v45h-24v50h24v23h50v-23h24v-50h-24v-45h44v24h50v-24 h45v24h50v-24h23v-50h-23v-23h-50v23h-45v-23h-50v23h-44v-44h24v-50h-24v-44h24v-51h-24v-44h24v-50h-24v-44h44v23h50v-23h45v23h50v-23h23v-50zM468 590h-23v-23h-50v23h-45v-23h-50v23h-23v50h23v24h50v-24h45v24h50v-24h23v-50z" />
<glyph unicode="g" d="M468 118h-23v-44h23v-50h-23v-45h23v-50h-23v-23h-50v23h-24v50h24v45h-24v50h24v44h-45v-24h-50v24h-23v50h23v24h50v-24h45v44h-24v51h24v44h-24v50h24v44h-45v-23h-50v23h-44v-23h-50v23h-45v-23h-50v23h-23v50h23v24h50v-24h45v24h50v-24h44v24h50v-24h45v24h50v-24 h23v-50h-23v-44h23v-50h-23v-44h23v-51h-23v-44h23v-50zM91 212h-24v-44h24v-50h-24v-24h-50v24h-24v50h24v44h-24v51h24v44h-24v50h24v24h50v-24h24v-50h-24v-44h24v-51zM374 -165h-24v-24h-50v24h-44v-24h-50v24h-45v-24h-50v24h-23v50h23v23h50v-23h45v23h50v-23h44v23 h50v-23h24v-50zM280 24h-24v-24h-50v24h-45v-24h-50v24h-23v50h23v23h50v-23h45v23h50v-23h24v-50z" />
<glyph unicode="h" d="M91 118h-24v-44h24v-50h-24v-24h-50v24h-24v50h24v44h-24v50h24v44h-24v51h24v44h-24v50h24v44h-24v50h24v45h-24v50h24v44h-24v50h24v24h50v-24h24v-50h-24v-44h24v-50h-24v-45h44v24h50v-24h45v24h50v-24h44v24h50v-24h24v-50h-24v-23h-50v23h-44v-23h-50v23h-45v-23 h-50v23h-44v-44h24v-50h-24v-44h24v-51h-24v-44h24v-50zM468 118h-23v-44h23v-50h-23v-24h-50v24h-24v50h24v44h-24v50h24v44h-24v51h24v44h-24v50h24v24h50v-24h23v-50h-23v-44h23v-51h-23v-44h23v-50z" />
<glyph unicode="i" d="M468 24h-23v-24h-50v24h-45v-24h-50v24h-44v-24h-50v24h-45v-24h-50v24h-44v-24h-50v24h-24v50h24v23h50v-23h44v23h50v-23h45v44h-24v50h24v44h-24v51h24v44h-24v50h24v44h-45v-23h-50v23h-44v-23h-50v23h-24v50h24v24h50v-24h44v24h50v-24h45v24h50v-24h24v-50h-24v-44 h24v-50h-24v-44h24v-51h-24v-44h24v-50h-24v-44h44v23h50v-23h45v23h50v-23h23v-50zM280 590h-24v-23h-50v23h-24v50h24v24h50v-24h24v-50z" />
<glyph unicode="j" d="M468 118h-23v-44h23v-50h-23v-45h23v-50h-23v-23h-50v23h-24v50h24v45h-24v50h24v44h-24v50h24v44h-24v51h24v44h-24v50h24v44h-45v-23h-50v23h-44v-23h-50v23h-45v-23h-50v23h-23v50h23v24h50v-24h45v24h50v-24h44v24h50v-24h45v24h50v-24h23v-50h-23v-44h23v-50h-23 v-44h23v-51h-23v-44h23v-50zM374 -165h-24v-24h-50v24h-44v-24h-50v24h-45v-24h-50v24h-23v50h23v23h50v-23h45v23h50v-23h44v23h50v-23h24v-50zM91 -71h-24v-23h-50v23h-24v50h24v24h50v-24h24v-50zM468 590h-23v-23h-50v23h-24v50h24v24h50v-24h23v-50z" />
<glyph unicode="k" d="M91 118h-24v-44h24v-50h-24v-24h-50v24h-24v50h24v44h-24v50h24v44h-24v51h24v44h-24v50h24v44h-24v50h24v45h-24v50h24v44h-24v50h24v24h50v-24h24v-50h-24v-44h24v-50h-24v-45h24v-50h-24v-44h24v-50h-24v-44h44v23h50v-23h45v23h50v-23h24v-51h-24v-23h-50v23h-45v-23 h-50v23h-44v-44h24v-50zM374 401h-24v-44h24v-50h-24v-24h-50v24h-23v50h23v44h-23v50h23v24h50v-24h24v-50zM374 118h-24v-24h-50v24h-23v50h23v24h50v-24h24v-50zM468 24h-23v-24h-50v24h-24v50h24v23h50v-23h23v-50z" />
<glyph unicode="l" d="M468 24h-23v-24h-50v24h-45v-24h-50v24h-44v-24h-50v24h-45v-24h-50v24h-44v-24h-50v24h-24v50h24v23h50v-23h44v23h50v-23h45v44h-24v50h24v44h-24v51h24v44h-24v50h24v44h-24v50h24v45h-24v50h24v44h-45v-23h-50v23h-44v-23h-50v23h-24v50h24v24h50v-24h44v24h50v-24 h45v24h50v-24h24v-50h-24v-44h24v-50h-24v-45h24v-50h-24v-44h24v-50h-24v-44h24v-51h-24v-44h24v-50h-24v-44h44v23h50v-23h45v23h50v-23h23v-50z" />
<glyph unicode="m" d="M91 118h-24v-44h24v-50h-24v-24h-50v24h-24v50h24v44h-24v50h24v44h-24v51h24v44h-24v50h24v44h-24v50h24v24h50v-24h24v-50h-24v-44h44v24h50v-24h45v44h-24v50h24v24h50v-24h24v-50h-24v-44h44v24h50v-24h45v44h-24v50h24v24h50v-24h23v-50h-23v-44h23v-50h-23v-44h23 v-51h-23v-44h23v-50h-23v-44h23v-50h-23v-24h-50v24h-24v50h24v44h-24v50h24v44h-24v51h24v44h-45v-24h-50v24h-44v-44h24v-51h-24v-44h24v-50h-24v-44h24v-50h-24v-24h-50v24h-24v50h24v44h-24v50h24v44h-24v51h24v44h-45v-24h-50v24h-44v-44h24v-51h-24v-44h24v-50z" />
<glyph unicode="n" d="M91 118h-24v-44h24v-50h-24v-24h-50v24h-24v50h24v44h-24v50h24v44h-24v51h24v44h-24v50h24v44h-24v50h24v24h50v-24h24v-50h-24v-44h44v24h50v-24h24v-50h-24v-24h-50v24h-44v-44h24v-51h-24v-44h24v-50zM468 118h-23v-44h23v-50h-23v-24h-50v24h-24v50h24v44h-24v50h24 v44h-24v51h24v44h-24v50h24v24h50v-24h23v-50h-23v-44h23v-51h-23v-44h23v-50zM374 401h-24v-23h-50v23h-44v-23h-50v23h-24v50h24v24h50v-24h44v24h50v-24h24v-50z" />
<glyph unicode="o" d="M91 212h-24v-44h24v-50h-24v-24h-50v24h-24v50h24v44h-24v51h24v44h-24v50h24v24h50v-24h24v-50h-24v-44h24v-51zM468 212h-23v-44h23v-50h-23v-24h-50v24h-24v50h24v44h-24v51h24v44h-24v50h24v24h50v-24h23v-50h-23v-44h23v-51zM374 24h-24v-24h-50v24h-44v-24h-50v24 h-45v-24h-50v24h-23v50h23v23h50v-23h45v23h50v-23h44v23h50v-23h24v-50zM374 401h-24v-23h-50v23h-44v-23h-50v23h-45v-23h-50v23h-23v50h23v24h50v-24h45v24h50v-24h44v24h50v-24h24v-50z" />
<glyph unicode="p" d="M91 118h-24v-44h44v23h50v-23h45v23h50v-23h44v23h50v-23h24v-50h-24v-24h-50v24h-44v-24h-50v24h-45v-24h-50v24h-44v-45h24v-50h-24v-44h24v-50h-24v-24h-50v24h-24v50h24v44h-24v50h24v45h-24v50h24v44h-24v50h24v44h-24v51h24v44h-24v50h24v44h-24v50h24v24h50v-24 h24v-50h-24v-44h44v24h50v-24h24v-50h-24v-24h-50v24h-44v-44h24v-51h-24v-44h24v-50zM468 212h-23v-44h23v-50h-23v-24h-50v24h-24v50h24v44h-24v51h24v44h-24v50h24v24h50v-24h23v-50h-23v-44h23v-51zM374 401h-24v-23h-50v23h-44v-23h-50v23h-24v50h24v24h50v-24h44v24 h50v-24h24v-50z" />
<glyph unicode="q" d="M468 118h-23v-44h23v-50h-23v-45h23v-50h-23v-44h23v-50h-23v-24h-50v24h-24v50h24v44h-24v50h24v45h-24v50h24v44h-45v-24h-50v24h-23v50h23v24h50v-24h45v44h-24v51h24v44h-24v50h24v44h-45v-23h-50v23h-44v-23h-50v23h-45v-23h-50v23h-23v50h23v24h50v-24h45v24h50 v-24h44v24h50v-24h45v24h50v-24h23v-50h-23v-44h23v-50h-23v-44h23v-51h-23v-44h23v-50zM91 212h-24v-44h24v-50h-24v-24h-50v24h-24v50h24v44h-24v51h24v44h-24v50h24v24h50v-24h24v-50h-24v-44h24v-51zM280 24h-24v-24h-50v24h-45v-24h-50v24h-23v50h23v23h50v-23h45v23 h50v-23h24v-50z" />
<glyph unicode="r" d="M185 118h-24v-44h45v23h50v-23h44v23h50v-23h24v-50h-24v-24h-50v24h-44v-24h-50v24h-45v-24h-50v24h-44v-24h-50v24h-24v50h24v23h50v-23h44v44h-23v50h23v44h-23v51h23v44h-23v50h23v44h-44v-23h-50v23h-24v50h24v24h50v-24h44v24h50v-24h24v-50h-24v-44h45v24h50v-24 h24v-50h-24v-24h-50v24h-45v-44h24v-51h-24v-44h24v-50zM468 401h-23v-23h-50v23h-45v-23h-50v23h-23v50h23v24h50v-24h45v24h50v-24h23v-50z" />
<glyph unicode="s" d="M374 24h-24v-24h-50v24h-44v-24h-50v24h-45v-24h-50v24h-44v-24h-50v24h-24v50h24v23h50v-23h44v23h50v-23h45v23h50v-23h44v23h50v-23h24v-50zM468 401h-23v-23h-50v23h-45v-23h-50v23h-44v-23h-50v23h-45v-23h-50v23h-23v50h23v24h50v-24h45v24h50v-24h44v24h50v-24h45 v24h50v-24h23v-50zM374 212h-24v-23h-50v23h-44v-23h-50v23h-45v-23h-50v23h-23v51h23v23h50v-23h45v23h50v-23h44v23h50v-23h24v-51zM91 307h-24v-24h-50v24h-24v50h24v24h50v-24h24v-50zM468 118h-23v-24h-50v24h-24v50h24v24h50v-24h23v-50z" />
<glyph unicode="t" d="M280 212h-24v-44h24v-50h-24v-24h-50v24h-24v50h24v44h-24v51h24v44h-24v50h24v44h-45v-23h-50v23h-44v-23h-50v23h-24v50h24v24h50v-24h44v24h50v-24h45v45h-24v50h24v23h50v-23h24v-50h-24v-45h44v24h50v-24h45v24h50v-24h23v-50h-23v-23h-50v23h-45v-23h-50v23h-44 v-44h24v-50h-24v-44h24v-51zM468 24h-23v-24h-50v24h-45v-24h-50v24h-23v50h23v23h50v-23h45v23h50v-23h23v-50z" />
<glyph unicode="u" d="M468 118h-23v-44h23v-50h-23v-24h-50v24h-24v50h24v44h-45v-24h-50v24h-23v50h23v24h50v-24h45v44h-24v51h24v44h-24v50h24v44h-24v50h24v24h50v-24h23v-50h-23v-44h23v-50h-23v-44h23v-51h-23v-44h23v-50zM91 212h-24v-44h24v-50h-24v-24h-50v24h-24v50h24v44h-24v51h24 v44h-24v50h24v44h-24v50h24v24h50v-24h24v-50h-24v-44h24v-50h-24v-44h24v-51zM280 24h-24v-24h-50v24h-45v-24h-50v24h-23v50h23v23h50v-23h45v23h50v-23h24v-50z" />
<glyph unicode="v" d="M91 401h-24v-44h24v-50h-24v-24h-50v24h-24v50h24v44h-24v50h24v24h50v-24h24v-50zM374 212h-24v-44h24v-50h-24v-24h-50v24h-23v50h23v44h-23v51h23v23h50v-23h24v-51zM185 212h-24v-44h24v-50h-24v-24h-50v24h-23v50h23v44h-23v51h23v23h50v-23h24v-51zM468 401h-23 v-44h23v-50h-23v-24h-50v24h-24v50h24v44h-24v50h24v24h50v-24h23v-50zM280 24h-24v-24h-50v24h-24v50h24v23h50v-23h24v-50z" />
<glyph unicode="w" d="M91 307h-24v-44h24v-51h-24v-23h-50v23h-24v51h24v44h-24v50h24v44h-24v50h24v24h50v-24h24v-50h-24v-44h24v-50zM468 307h-23v-44h23v-51h-23v-23h-50v23h-24v51h24v44h-24v50h24v44h-24v50h24v24h50v-24h23v-50h-23v-44h23v-50zM280 307h-24v-44h24v-51h-24v-23h-50v23 h-24v51h24v44h-24v50h24v24h50v-24h24v-50zM185 118h-24v-44h24v-50h-24v-24h-50v24h-23v50h23v44h-23v50h23v24h50v-24h24v-50zM374 118h-24v-44h24v-50h-24v-24h-50v24h-23v50h23v44h-23v50h23v24h50v-24h24v-50z" />
<glyph unicode="x" d="M374 212h-24v-23h-50v23h-44v-23h-50v23h-45v-23h-50v23h-23v51h23v23h50v-23h45v23h50v-23h44v23h50v-23h24v-51zM91 307h-24v-24h-50v24h-24v50h24v44h-24v50h24v24h50v-24h24v-50h-24v-44h24v-50zM91 118h-24v-44h24v-50h-24v-24h-50v24h-24v50h24v44h-24v50h24v24h50 v-24h24v-50zM468 307h-23v-24h-50v24h-24v50h24v44h-24v50h24v24h50v-24h23v-50h-23v-44h23v-50zM468 118h-23v-44h23v-50h-23v-24h-50v24h-24v50h24v44h-24v50h24v24h50v-24h23v-50z" />
<glyph unicode="y" d="M91 401h-24v-44h24v-50h-24v-24h-50v24h-24v50h24v44h-24v50h24v24h50v-24h24v-50zM280 -71h-24v-23h-50v23h-24v50h24v45h-24v50h24v23h50v-23h24v-50h-24v-45h24v-50zM374 212h-24v-44h24v-50h-24v-24h-50v24h-23v50h23v44h-23v51h23v23h50v-23h24v-51zM185 212h-24 v-44h24v-50h-24v-24h-50v24h-23v50h23v44h-23v51h23v23h50v-23h24v-51zM468 401h-23v-44h23v-50h-23v-24h-50v24h-24v50h24v44h-24v50h24v24h50v-24h23v-50zM185 -165h-24v-24h-50v24h-44v-24h-50v24h-24v50h24v23h50v-23h44v23h50v-23h24v-50z" />
<glyph unicode="z" d="M468 24h-23v-24h-50v24h-45v-24h-50v24h-44v-24h-50v24h-45v-24h-50v24h-44v-24h-50v24h-24v50h24v23h50v-23h44v44h-23v50h23v24h50v-24h24v-50h-24v-44h45v23h50v-23h44v23h50v-23h45v23h50v-23h23v-50zM468 401h-23v-23h-50v23h-45v-44h24v-50h-24v-24h-50v24h-23v50 h23v44h-44v-23h-50v23h-45v-23h-50v23h-44v-23h-50v23h-24v50h24v24h50v-24h44v24h50v-24h45v24h50v-24h44v24h50v-24h45v24h50v-24h23v-50zM280 212h-24v-23h-50v23h-24v51h24v23h50v-23h24v-51z" />
<glyph unicode="{" d="M280 212h-24v-44h24v-50h-24v-24h-50v24h-24v50h24v44h-24v51h24v23h50v-23h24v-51zM280 496h-24v-45h24v-50h-24v-23h-50v23h-24v50h24v45h-24v50h24v23h50v-23h24v-50zM185 307h-24v-24h-50v24h-23v50h23v24h50v-24h24v-50zM374 24h-24v-24h-50v24h-23v50h23v23h50v-23 h24v-50zM374 590h-24v-23h-50v23h-23v50h23v24h50v-24h24v-50z" />
<glyph unicode="|" d="M280 118h-24v-44h24v-50h-24v-24h-50v24h-24v50h24v44h-24v50h24v44h-24v51h24v44h-24v50h24v44h-24v50h24v45h-24v50h24v44h-24v50h24v24h50v-24h24v-50h-24v-44h24v-50h-24v-45h24v-50h-24v-44h24v-50h-24v-44h24v-51h-24v-44h24v-50z" />
<glyph unicode="}" d="M377 212h-24v-44h24v-50h-24v-24h-50v24h-24v50h24v44h-24v51h24v23h50v-23h24v-51zM377 496h-24v-45h24v-50h-24v-23h-50v23h-24v50h24v45h-24v50h24v23h50v-23h24v-50zM471 307h-23v-24h-50v24h-24v50h24v24h50v-24h23v-50zM282 24h-23v-24h-50v24h-24v50h24v23h50v-23 h23v-50zM282 590h-23v-23h-50v23h-24v50h24v24h50v-24h23v-50z" />
<glyph unicode="~" d="M374 212h-24v-23h-50v23h-23v51h23v23h50v-23h24v-51zM91 307h-24v-24h-50v24h-24v50h24v24h50v-24h24v-50zM280 307h-24v-24h-50v24h-24v50h24v24h50v-24h24v-50zM468 307h-23v-24h-50v24h-24v50h24v24h50v-24h23v-50zM185 401h-24v-23h-50v23h-23v50h23v24h50v-24h24 v-50z" />
<glyph unicode="&#xa0;" />
<glyph unicode="&#xa1;" d="M256 263h24v-51h-24v-44h24v-50h-24v-44h24v-50h-24v-24h-50v24h-24v50h24v44h-24v50h24v44h-24v51h24v44h-24v50h24v24h50v-24h24v-50h-24v-44zM256 546h24v-50h-24v-24h-50v24h-24v50h24v44h-24v50h24v24h50v-24h24v-50h-24v-44z" />
<glyph unicode="&#xa2;" d="M280 -71h-24v-23h-50v23h-24v50h24v45h-45v-24h-50v24h-23v50h23v23h50v-23h45v44h-24v50h24v44h-24v51h24v44h-24v50h24v44h-45v-23h-50v23h-23v50h23v24h50v-24h45v45h-24v50h24v23h50v-23h24v-50h-24v-45h44v24h50v-24h24v-50h-24v-23h-50v23h-44v-44h24v-50h-24v-44 h24v-51h-24v-44h24v-50h-24v-44h44v23h50v-23h24v-50h-24v-24h-50v24h-44v-45h24v-50zM91 212h-24v-44h24v-50h-24v-24h-50v24h-24v50h24v44h-24v51h24v44h-24v50h24v24h50v-24h24v-50h-24v-44h24v-51zM468 307h-23v-24h-50v24h-24v50h24v24h50v-24h23v-50zM468 118h-23v-24 h-50v24h-24v50h24v24h50v-24h23v-50z" />
<glyph unicode="&#xa3;" d="M185 118h-24v-44h45v23h50v-23h44v23h50v-23h45v23h50v-23h23v-50h-23v-24h-50v24h-45v-24h-50v24h-44v-24h-50v24h-45v-24h-50v24h-44v-24h-50v24h-24v50h24v23h50v-23h44v44h-23v50h23v44h-23v51h23v44h-44v-24h-50v24h-24v50h24v24h50v-24h44v44h-23v50h23v45h-23v50 h23v23h50v-23h24v-50h-24v-45h24v-50h-24v-44h45v24h50v-24h44v24h50v-24h24v-50h-24v-24h-50v24h-44v-24h-50v24h-45v-44h24v-51h-24v-44h24v-50zM374 590h-24v-23h-50v23h-44v-23h-50v23h-24v50h24v24h50v-24h44v24h50v-24h24v-50zM468 496h-23v-24h-50v24h-24v50h24v23 h50v-23h23v-50z" />
<glyph unicode="&#xa4;" d="M374 118h-24v-24h-50v24h-44v-24h-50v24h-45v-24h-50v24h-23v50h23v44h-23v51h23v44h-23v50h23v24h50v-24h45v24h50v-24h44v24h50v-24h24v-50h-24v-44h24v-51h-24v-44h24v-50zM185 212h-24v-44h45v24h50v-24h44v44h-23v51h23v44h-44v-24h-50v24h-45v-44h24v-51zM91 24 h-24v-24h-50v24h-24v50h24v23h50v-23h24v-50zM91 401h-24v-23h-50v23h-24v50h24v24h50v-24h24v-50zM468 24h-23v-24h-50v24h-24v50h24v23h50v-23h23v-50zM468 401h-23v-23h-50v23h-24v50h24v24h50v-24h23v-50z" />
<glyph unicode="&#xa5;" d="M280 118h-24v-44h24v-50h-24v-24h-50v24h-24v50h24v44h-24v50h24v44h-45v-23h-50v23h-44v-23h-50v23h-24v51h24v23h50v-23h44v23h50v-23h45v44h-24v50h24v24h50v-24h24v-50h-24v-44h44v23h50v-23h45v23h50v-23h23v-51h-23v-23h-50v23h-45v-23h-50v23h-44v-44h24v-50z M91 590h-24v-44h24v-50h-24v-24h-50v24h-24v50h24v44h-24v50h24v24h50v-24h24v-50zM468 590h-23v-44h23v-50h-23v-24h-50v24h-24v50h24v44h-24v50h24v24h50v-24h23v-50zM374 401h-24v-23h-50v23h-23v50h23v24h50v-24h24v-50zM185 401h-24v-23h-50v23h-23v50h23v24h50v-24h24 v-50z" />
<glyph unicode="&#xa6;" d="M280 118h-24v-44h24v-50h-24v-24h-50v24h-24v50h24v44h-24v50h24v44h-24v51h24v23h50v-23h24v-51h-24v-44h24v-50zM280 496h-24v-45h24v-50h-24v-23h-50v23h-24v50h24v45h-24v50h24v44h-24v50h24v24h50v-24h24v-50h-24v-44h24v-50z" />
<glyph unicode="&#xa7;" d="M375 24h-23v-24h-50v24h-45v-24h-50v24h-44v-24h-50v24h-24v50h24v23h50v-23h44v23h50v-23h45v23h50v-23h23v-50zM470 590h-24v-23h-50v23h-44v-23h-50v23h-45v-23h-50v23h-23v50h23v24h50v-24h45v24h50v-24h44v24h50v-24h24v-50zM375 212h-23v-23h-50v23h-45v-23h-50v23 h-23v51h23v23h50v-23h45v23h50v-23h23v-51zM375 401h-23v-23h-50v23h-45v-23h-50v23h-23v50h23v24h50v-24h45v24h50v-24h23v-50zM470 307h-24v-24h-50v24h-23v50h23v24h50v-24h24v-50zM470 118h-24v-24h-50v24h-23v50h23v24h50v-24h24v-50zM186 307h-23v-24h-50v24h-24v50 h24v24h50v-24h23v-50zM186 496h-23v-24h-50v24h-24v50h24v23h50v-23h23v-50z" />
<glyph unicode="&#xa8;" d="M91 685h-24v-45h24v-50h-24v-23h-50v23h-24v50h24v45h-24v50h24v23h50v-23h24v-50zM468 685h-23v-45h23v-50h-23v-23h-50v23h-24v50h24v45h-24v50h24v23h50v-23h23v-50z" />
<glyph unicode="&#xa9;" d="M185 212h-24v-23h-50v23h-44v-44h24v-50h-24v-24h-50v24h-24v50h24v44h-24v51h24v44h-24v50h24v24h50v-24h24v-50h-24v-44h44v23h50v-23h24v-51zM374 24h-24v-24h-50v24h-44v-24h-50v24h-45v-24h-50v24h-23v50h23v23h50v-23h45v44h-24v50h24v24h50v-24h24v-50h-24v-44h44 v23h50v-23h24v-50zM374 401h-24v-23h-50v23h-44v-44h24v-50h-24v-24h-50v24h-24v50h24v44h-45v-23h-50v23h-23v50h23v24h50v-24h45v24h50v-24h44v24h50v-24h24v-50zM468 212h-23v-44h23v-50h-23v-24h-50v24h-24v50h24v44h-24v51h24v44h-24v50h24v24h50v-24h23v-50h-23v-44 h23v-51z" />
<glyph unicode="&#xaa;" d="M277 307h-24v-24h-50v24h-44v-24h-50v24h-24v50h24v44h-45v-23h-50v23h-23v50h23v24h50v-24h45v24h50v-24h44v45h-24v50h24v23h50v-23h24v-50h-24v-45h24v-50h-24v-44h24v-50zM182 590h-23v-23h-50v23h-24v50h24v24h50v-24h23v-50zM203 401h-44v-44h44v44z" />
<glyph unicode="&#xab;" d="M468 24h-23v-24h-50v24h-24v50h24v23h50v-23h23v-50zM374 118h-24v-24h-50v24h-23v50h23v24h50v-24h24v-50zM280 212h-24v-23h-50v23h-24v51h24v23h50v-23h24v-51zM374 307h-24v-24h-50v24h-23v50h23v24h50v-24h24v-50zM468 401h-23v-23h-50v23h-24v50h24v24h50v-24h23 v-50zM280 24h-24v-24h-50v24h-24v50h24v23h50v-23h24v-50zM185 118h-24v-24h-50v24h-23v50h23v24h50v-24h24v-50zM91 212h-24v-23h-50v23h-24v51h24v23h50v-23h24v-51zM185 307h-24v-24h-50v24h-23v50h23v24h50v-24h24v-50zM280 401h-24v-23h-50v23h-24v50h24v24h50v-24h24 v-50z" />
<glyph unicode="&#xac;" d="M468 212h-23v-44h23v-50h-23v-44h23v-50h-23v-24h-50v24h-24v50h24v44h-24v50h24v44h-45v-23h-50v23h-44v-23h-50v23h-45v-23h-50v23h-44v-23h-50v23h-24v51h24v23h50v-23h44v23h50v-23h45v23h50v-23h44v23h50v-23h45v23h50v-23h23v-51z" />
<glyph unicode="&#xad;" d="M374 212h-24v-23h-50v23h-44v-23h-50v23h-45v-23h-50v23h-23v51h23v23h50v-23h45v23h50v-23h44v23h50v-23h24v-51z" />
<glyph unicode="&#xae;" d="M374 212h-24v-23h-50v23h-44v-23h-50v23h-45v-23h-50v23h-23v51h23v23h50v-23h45v23h50v-23h44v44h-23v50h23v24h50v-24h45v44h-24v50h24v45h-45v-24h-50v24h-44v-45h24v-50h-24v-23h-50v23h-24v50h24v45h-24v50h24v44h-45v-23h-50v23h-23v50h23v24h50v-24h45v24h50v-24 h44v24h50v-24h24v-50h-24v-44h45v23h50v-23h23v-50h-23v-45h23v-50h-23v-44h23v-50h-23v-24h-50v24h-45v-44h24v-51zM91 401h-24v-44h24v-50h-24v-24h-50v24h-24v50h24v44h-24v50h24v45h-24v50h24v23h50v-23h24v-50h-24v-45h24v-50zM256 546h44v44h-44v-44z" />
<glyph unicode="&#xaf;" d="M374 590h-24v-23h-50v23h-44v-23h-50v23h-45v-23h-50v23h-23v50h23v24h50v-24h45v24h50v-24h44v24h50v-24h24v-50z" />
<glyph unicode="&#xb0;" d="M182 401h-23v-23h-50v23h-24v50h24v24h50v-24h23v-50zM88 496h-24v-24h-50v24h-23v50h23v23h50v-23h24v-50zM277 496h-24v-24h-50v24h-24v50h24v23h50v-23h24v-50zM182 590h-23v-23h-50v23h-24v50h24v24h50v-24h23v-50z" />
<glyph unicode="&#xb1;" d="M468 307h-23v-24h-50v24h-45v-24h-50v24h-44v-44h24v-51h-24v-23h-50v23h-24v51h24v44h-45v-24h-50v24h-44v-24h-50v24h-24v50h24v24h50v-24h44v24h50v-24h45v44h-24v50h24v24h50v-24h24v-50h-24v-44h44v24h50v-24h45v24h50v-24h23v-50zM468 24h-23v-24h-50v24h-45v-24 h-50v24h-44v-24h-50v24h-45v-24h-50v24h-44v-24h-50v24h-24v50h24v23h50v-23h44v23h50v-23h45v23h50v-23h44v23h50v-23h45v23h50v-23h23v-50z" />
<glyph unicode="&#xb2;" d="M86 401h-23v-44h44v24h50v-24h24v-50h-24v-24h-50v24h-44v-24h-50v24h-24v50h24v44h-24v50h24v24h50v-24h23v-50zM86 590h-23v-23h-50v23h-24v50h24v24h50v-24h23v-50zM181 496h-24v-24h-50v24h-23v50h23v23h50v-23h24v-50z" />
<glyph unicode="&#xb3;" d="M181 307h-24v-24h-50v24h-44v-24h-50v24h-24v50h24v24h50v-24h44v44h-23v50h23v45h-23v50h23v23h50v-23h24v-50h-24v-45h24v-50h-24v-44h24v-50zM86 590h-23v-23h-50v23h-24v50h24v24h50v-24h23v-50z" />
<glyph unicode="&#xb4;" d="M280 590h-24v-23h-50v23h-45v-23h-50v23h-23v50h23v24h50v-24h45v24h50v-24h24v-50zM374 685h-24v-24h-50v24h-23v50h23v23h50v-23h24v-50z" />
<glyph unicode="&#xb5;" d="M91 -165h-24v-24h-50v24h-24v50h24v44h-24v50h24v45h-24v50h24v44h-24v50h24v44h-24v51h24v44h-24v50h24v44h-24v50h24v24h50v-24h24v-50h-24v-44h24v-50h-24v-44h24v-51h-24v-44h24v-50h-24v-44h44v23h50v-23h45v23h50v-23h24v-50h-24v-24h-50v24h-45v-24h-50v24h-44 v-45h24v-50h-24v-44h24v-50zM468 24h-23v-24h-50v24h-24v50h24v44h-45v-24h-50v24h-23v50h23v24h50v-24h45v44h-24v51h24v44h-24v50h24v44h-24v50h24v24h50v-24h23v-50h-23v-44h23v-50h-23v-44h23v-51h-23v-44h23v-50h-23v-44h23v-50z" />
<glyph unicode="&#xb6;" d="M280 24h-24v-24h-50v24h-24v50h24v44h-24v50h24v44h-24v51h24v44h-45v-24h-50v24h-23v50h23v44h-44v-23h-50v23h-24v50h24v45h-24v50h24v23h50v-23h44v44h-23v50h23v24h50v-24h45v24h50v-24h24v-50h-24v-44h24v-50h-24v-45h24v-50h-24v-44h24v-50h-24v-44h24v-51h-24v-44 h24v-50h-24v-44h24v-50zM468 118h-23v-44h23v-50h-23v-24h-50v24h-24v50h24v44h-24v50h24v44h-24v51h24v44h-24v50h24v44h-24v50h24v45h-24v50h24v44h-24v50h24v24h50v-24h23v-50h-23v-44h23v-50h-23v-45h23v-50h-23v-44h23v-50h-23v-44h23v-51h-23v-44h23v-50zM161 496v-45 h45v45h-45zM67 496v-45h44v45h-44zM161 590v-44h45v44h-45zM161 401v-44h45v44h-45z" />
<glyph unicode="&#xb7;" d="M182 307h-23v-44h23v-51h-23v-23h-50v23h-24v51h24v44h-24v50h24v24h50v-24h23v-50z" />
<glyph unicode="&#xb8;" d="M278 -71h-23v-23h-51v23h-23v50h23v24h51v-24h23v-50zM184 -165h-24v-24h-50v24h-24v50h24v23h50v-23h24v-50z" />
<glyph unicode="&#xb9;" d="M277 307h-24v-24h-50v24h-44v-24h-50v24h-45v-24h-50v24h-23v50h23v24h50v-24h45v44h-24v50h24v45h-24v50h24v44h-45v-23h-50v23h-23v50h23v24h50v-24h45v24h50v-24h23v-50h-23v-44h23v-50h-23v-45h23v-50h-23v-44h44v24h50v-24h24v-50z" />
<glyph unicode="&#xba;" d="M182 401h-23v-23h-50v23h-24v50h24v24h50v-24h23v-50zM88 496h-24v-24h-50v24h-23v50h23v23h50v-23h24v-50zM277 496h-24v-24h-50v24h-24v50h24v23h50v-23h24v-50zM182 590h-23v-23h-50v23h-24v50h24v24h50v-24h23v-50z" />
<glyph unicode="&#xbb;" d="M91 24h-24v-24h-50v24h-24v50h24v23h50v-23h24v-50zM185 118h-24v-24h-50v24h-23v50h23v24h50v-24h24v-50zM280 212h-24v-23h-50v23h-24v51h24v23h50v-23h24v-51zM185 307h-24v-24h-50v24h-23v50h23v24h50v-24h24v-50zM91 401h-24v-23h-50v23h-24v50h24v24h50v-24h24v-50 zM280 24h-24v-24h-50v24h-24v50h24v23h50v-23h24v-50zM374 118h-24v-24h-50v24h-23v50h23v24h50v-24h24v-50zM468 212h-23v-23h-50v23h-24v51h24v23h50v-23h23v-51zM374 307h-24v-24h-50v24h-23v50h23v24h50v-24h24v-50zM280 401h-24v-23h-50v23h-24v50h24v24h50v-24h24v-50 z" />
<glyph unicode="&#xbc;" d="M564 118h-23v-44h23v-50h-23v-24h-50v24h-24v50h24v44h-24v50h24v44h-45v-23h-50v23h-23v51h23v23h50v-23h45v44h-24v50h24v24h50v-24h23v-50h-23v-44h23v-51h-23v-44h23v-50zM186 496h-23v-45h23v-50h-23v-23h-50v23h-24v50h24v45h-24v50h24v44h-45v-23h-50v23h-23v50 h23v24h50v-24h45v24h50v-24h23v-50h-23v-44h23v-50zM281 307h-24v-44h24v-51h-24v-23h-50v23h-23v51h23v44h-23v50h23v24h50v-24h24v-50zM186 118h-23v-44h23v-50h-23v-24h-50v24h-24v50h24v44h-24v50h24v24h50v-24h23v-50zM470 590h-24v-44h24v-50h-24v-24h-50v24h-23v50 h23v44h-23v50h23v24h50v-24h24v-50zM375 401h-23v-23h-50v23h-24v50h24v24h50v-24h23v-50z" />
<glyph unicode="&#xbd;" d="M186 496h-23v-45h23v-50h-23v-23h-50v23h-24v50h24v45h-24v50h24v44h-45v-23h-50v23h-23v50h23v24h50v-24h45v24h50v-24h23v-50h-23v-44h23v-50zM470 118h-24v-44h45v23h50v-23h23v-50h-23v-24h-50v24h-45v-24h-50v24h-23v50h23v44h-23v50h23v24h50v-24h24v-50zM281 307 h-24v-44h24v-51h-24v-23h-50v23h-23v51h23v44h-23v50h23v24h50v-24h24v-50zM186 118h-23v-44h23v-50h-23v-24h-50v24h-24v50h24v44h-24v50h24v24h50v-24h23v-50zM470 590h-24v-44h24v-50h-24v-24h-50v24h-23v50h23v44h-23v50h23v24h50v-24h24v-50zM470 307h-24v-24h-50v24 h-23v50h23v24h50v-24h24v-50zM564 212h-23v-23h-50v23h-24v51h24v23h50v-23h23v-51zM375 401h-23v-23h-50v23h-24v50h24v24h50v-24h23v-50z" />
<glyph unicode="&#xbe;" d="M281 307h-24v-44h24v-51h-24v-23h-50v23h-23v51h23v44h-44v-24h-50v24h-45v-24h-50v24h-23v50h23v24h50v-24h45v44h-24v50h24v45h-24v50h24v23h50v-23h23v-50h-23v-45h23v-50h-23v-44h44v24h50v-24h24v-50zM564 118h-23v-44h23v-50h-23v-24h-50v24h-24v50h24v44h-24v50 h24v44h-45v-23h-50v23h-23v51h23v23h50v-23h45v44h-24v50h24v24h50v-24h23v-50h-23v-44h23v-51h-23v-44h23v-50zM186 118h-23v-44h23v-50h-23v-24h-50v24h-24v50h24v44h-24v50h24v24h50v-24h23v-50zM470 590h-24v-44h24v-50h-24v-24h-50v24h-23v50h23v44h-23v50h23v24h50 v-24h24v-50zM92 590h-24v-23h-50v23h-23v50h23v24h50v-24h24v-50zM375 401h-23v-23h-50v23h-24v50h24v24h50v-24h23v-50z" />
<glyph unicode="&#xbf;" d="M88 74h23v23h50v-23h45v23h50v-23h44v23h50v-23h24v-50h-24v-24h-50v24h-44v-24h-50v24h-45v-24h-50v24h-23v50zM-7 168h24v44h-24v51h24v23h50v-23h24v-51h-24v-44h24v-50h-24v-24h-50v24h-24v50zM182 546h24v44h-24v50h24v24h50v-24h24v-50h-24v-44h24v-50h-24v-24h-50 v24h-24v50zM88 357h23v24h50v-24h45v24h50v-24h24v-50h-24v-24h-50v24h-45v-24h-50v24h-23v50zM371 168h24v24h50v-24h23v-50h-23v-24h-50v24h-24v50z" />
<glyph unicode="&#xc0;" d="M90 120h-24v-45h24v-51h-24v-24h-51v24h-24v51h24v45h-24v51h24v45h-24v51h24v45h-24v51h24v45h-24v51h24v45h-24v51h24v24h51v-24h24v-51h-24v-45h24v-51h-24v-45h24v-51h-24v-45h45v24h51v-24h45v24h51v-24h45v24h51v-24h45v45h-24v51h24v45h-24v51h24v45h-24v51h24v24 h51v-24h24v-51h-24v-45h24v-51h-24v-45h24v-51h-24v-45h24v-51h-24v-45h24v-51h-24v-45h24v-51h-24v-24h-51v24h-24v51h24v45h-24v51h24v45h-45v-24h-51v24h-45v-24h-51v24h-45v-24h-51v24h-45v-45h24v-51zM378 600h-24v-24h-51v24h-45v-24h-51v24h-45v-24h-51v24h-24v51h24 v24h51v-24h45v24h51v-24h45v24h51v-24h24v-51zM378 816h-24v-24h-51v24h-45v-24h-51v24h-24v51h24v24h51v-24h45v24h51v-24h24v-51zM186 912h-24v-24h-51v24h-24v51h24v24h51v-24h24v-51z" />
<glyph unicode="&#xc1;" d="M90 120h-24v-45h24v-51h-24v-24h-51v24h-24v51h24v45h-24v51h24v45h-24v51h24v45h-24v51h24v45h-24v51h24v45h-24v51h24v24h51v-24h24v-51h-24v-45h24v-51h-24v-45h24v-51h-24v-45h45v24h51v-24h45v24h51v-24h45v24h51v-24h45v45h-24v51h24v45h-24v51h24v45h-24v51h24v24 h51v-24h24v-51h-24v-45h24v-51h-24v-45h24v-51h-24v-45h24v-51h-24v-45h24v-51h-24v-45h24v-51h-24v-24h-51v24h-24v51h24v45h-24v51h24v45h-45v-24h-51v24h-45v-24h-51v24h-45v-24h-51v24h-45v-45h24v-51zM378 600h-24v-24h-51v24h-45v-24h-51v24h-45v-24h-51v24h-24v51h24 v24h51v-24h45v24h51v-24h45v24h51v-24h24v-51zM282 816h-24v-24h-51v24h-45v-24h-51v24h-24v51h24v24h51v-24h45v24h51v-24h24v-51zM378 912h-24v-24h-51v24h-24v51h24v24h51v-24h24v-51z" />
<glyph unicode="&#xc2;" d="M90 120h-24v-45h24v-51h-24v-24h-51v24h-24v51h24v45h-24v51h24v45h-24v51h24v45h-24v51h24v45h-24v51h24v45h-24v51h24v24h51v-24h24v-51h-24v-45h24v-51h-24v-45h24v-51h-24v-45h45v24h51v-24h45v24h51v-24h45v24h51v-24h45v45h-24v51h24v45h-24v51h24v45h-24v51h24v24 h51v-24h24v-51h-24v-45h24v-51h-24v-45h24v-51h-24v-45h24v-51h-24v-45h24v-51h-24v-45h24v-51h-24v-24h-51v24h-24v51h24v45h-24v51h24v45h-45v-24h-51v24h-45v-24h-51v24h-45v-24h-51v24h-45v-45h24v-51zM378 600h-24v-24h-51v24h-45v-24h-51v24h-45v-24h-51v24h-24v51h24 v24h51v-24h45v24h51v-24h45v24h51v-24h24v-51zM186 816h-24v-24h-51v24h-24v51h24v24h51v-24h24v-51zM378 816h-24v-24h-51v24h-24v51h24v24h51v-24h24v-51zM282 912h-24v-24h-51v24h-24v51h24v24h51v-24h24v-51z" />
<glyph unicode="&#xc3;" d="M90 120h-24v-45h24v-51h-24v-24h-51v24h-24v51h24v45h-24v51h24v45h-24v51h24v45h-24v51h24v45h-24v51h24v45h-24v51h24v24h51v-24h24v-51h-24v-45h24v-51h-24v-45h24v-51h-24v-45h45v24h51v-24h45v24h51v-24h45v24h51v-24h45v45h-24v51h24v45h-24v51h24v45h-24v51h24v24 h51v-24h24v-51h-24v-45h24v-51h-24v-45h24v-51h-24v-45h24v-51h-24v-45h24v-51h-24v-45h24v-51h-24v-24h-51v24h-24v51h24v45h-24v51h24v45h-45v-24h-51v24h-45v-24h-51v24h-45v-24h-51v24h-45v-45h24v-51zM378 600h-24v-24h-51v24h-45v-24h-51v24h-45v-24h-51v24h-24v51h24 v24h51v-24h45v24h51v-24h45v24h51v-24h24v-51zM378 816h-24v-24h-51v24h-45v-24h-51v24h-24v51h24v24h51v-24h45v24h51v-24h24v-51zM186 912h-24v-24h-51v24h-24v51h24v24h51v-24h24v-51zM474 912h-24v-24h-51v24h-24v51h24v24h51v-24h24v-51zM90 816h-24v-24h-51v24h-24v51 h24v24h51v-24h24v-51z" />
<glyph unicode="&#xc4;" d="M90 120h-24v-45h24v-51h-24v-24h-51v24h-24v51h24v45h-24v51h24v45h-24v51h24v45h-24v51h24v45h-24v51h24v45h-24v51h24v24h51v-24h24v-51h-24v-45h24v-51h-24v-45h24v-51h-24v-45h45v24h51v-24h45v24h51v-24h45v24h51v-24h45v45h-24v51h24v45h-24v51h24v45h-24v51h24v24 h51v-24h24v-51h-24v-45h24v-51h-24v-45h24v-51h-24v-45h24v-51h-24v-45h24v-51h-24v-45h24v-51h-24v-24h-51v24h-24v51h24v45h-24v51h24v45h-45v-24h-51v24h-45v-24h-51v24h-45v-24h-51v24h-45v-45h24v-51zM378 600h-24v-24h-51v24h-45v-24h-51v24h-45v-24h-51v24h-24v51h24 v24h51v-24h45v24h51v-24h45v24h51v-24h24v-51zM90 912h-24v-45h24v-51h-24v-24h-51v24h-24v51h24v45h-24v51h24v24h51v-24h24v-51zM474 912h-24v-45h24v-51h-24v-24h-51v24h-24v51h24v45h-24v51h24v24h51v-24h24v-51z" />
<glyph unicode="&#xc5;" d="M90 120h-24v-45h24v-51h-24v-24h-51v24h-24v51h24v45h-24v51h24v45h-24v51h24v45h-24v51h24v45h-24v51h24v45h-24v51h24v24h51v-24h24v-51h-24v-45h24v-51h-24v-45h24v-51h-24v-45h45v24h51v-24h45v24h51v-24h45v24h51v-24h45v45h-24v51h24v45h-24v51h24v45h-24v51h24v24 h51v-24h24v-51h-24v-45h24v-51h-24v-45h24v-51h-24v-45h24v-51h-24v-45h24v-51h-24v-45h24v-51h-24v-24h-51v24h-24v51h24v45h-24v51h24v45h-45v-24h-51v24h-45v-24h-51v24h-45v-24h-51v24h-45v-45h24v-51zM378 600h-24v-24h-51v24h-45v-24h-51v24h-45v-24h-51v24h-24v51h24 v24h51v-24h45v24h51v-24h45v24h51v-24h24v-51zM282 816h-24v-24h-51v24h-24v51h24v24h51v-24h24v-51zM186 912h-24v-24h-51v24h-24v51h24v24h51v-24h24v-51zM378 912h-24v-24h-51v24h-24v51h24v24h51v-24h24v-51zM282 1008h-24v-24h-51v24h-24v51h24v24h51v-24h24v-51z" />
<glyph unicode="&#xc6;" d="M90 120h-24v-45h24v-51h-24v-24h-51v24h-24v51h24v45h-24v51h24v45h-24v51h24v45h-24v51h24v45h-24v51h24v45h-24v51h24v24h51v-24h24v-51h-24v-45h24v-51h-24v-45h24v-51h-24v-45h45v24h51v-24h45v45h-24v51h24v45h-24v51h24v45h-24v51h24v45h-45v-24h-51v24h-24v51h24 v24h51v-24h45v24h51v-24h45v24h51v-24h45v24h51v-24h24v-51h-24v-24h-51v24h-45v-24h-51v24h-45v-45h24v-51h-24v-45h24v-51h-24v-45h45v24h51v-24h24v-51h-24v-24h-51v24h-45v-45h24v-51h-24v-45h24v-51h-24v-45h45v24h51v-24h45v24h51v-24h24v-51h-24v-24h-51v24h-45v-24 h-51v24h-45v-24h-51v24h-24v51h24v45h-24v51h24v45h-45v-24h-51v24h-45v-45h24v-51z" />
<glyph unicode="&#xc7;" d="M90 216h-24v-45h24v-51h-24v-24h-51v24h-24v51h24v45h-24v51h24v45h-24v51h24v45h-24v51h24v45h-24v51h24v24h51v-24h24v-51h-24v-45h24v-51h-24v-45h24v-51h-24v-45h24v-51zM282 -72h-24v-24h-51v24h-24v51h24v45h-45v-24h-51v24h-24v51h24v24h51v-24h45v24h51v-24h45 v24h51v-24h24v-51h-24v-24h-51v24h-45v-45h24v-51zM378 600h-24v-24h-51v24h-45v-24h-51v24h-45v-24h-51v24h-24v51h24v24h51v-24h45v24h51v-24h45v24h51v-24h24v-51zM474 504h-24v-24h-51v24h-24v51h24v24h51v-24h24v-51zM474 120h-24v-24h-51v24h-24v51h24v24h51v-24h24 v-51zM186 -168h-24v-24h-51v24h-24v51h24v24h51v-24h24v-51z" />
<glyph unicode="&#xc8;" d="M90 120h-24v-45h45v24h51v-24h45v24h51v-24h45v24h51v-24h45v24h51v-24h24v-51h-24v-24h-51v24h-45v-24h-51v24h-45v-24h-51v24h-45v-24h-51v24h-45v-24h-51v24h-24v51h24v45h-24v51h24v45h-24v51h24v45h-24v51h24v45h-24v51h24v45h-24v51h24v45h-24v51h24v24h51v-24h45 v24h51v-24h45v24h51v-24h45v24h51v-24h45v24h51v-24h24v-51h-24v-24h-51v24h-45v-24h-51v24h-45v-24h-51v24h-45v-24h-51v24h-45v-45h24v-51h-24v-45h24v-51h-24v-45h45v24h51v-24h45v24h51v-24h45v24h51v-24h24v-51h-24v-24h-51v24h-45v-24h-51v24h-45v-24h-51v24h-45v-45 h24v-51h-24v-45h24v-51zM378 816h-24v-24h-51v24h-45v-24h-51v24h-24v51h24v24h51v-24h45v24h51v-24h24v-51zM186 912h-24v-24h-51v24h-24v51h24v24h51v-24h24v-51z" />
<glyph unicode="&#xc9;" d="M90 120h-24v-45h45v24h51v-24h45v24h51v-24h45v24h51v-24h45v24h51v-24h24v-51h-24v-24h-51v24h-45v-24h-51v24h-45v-24h-51v24h-45v-24h-51v24h-45v-24h-51v24h-24v51h24v45h-24v51h24v45h-24v51h24v45h-24v51h24v45h-24v51h24v45h-24v51h24v45h-24v51h24v24h51v-24h45 v24h51v-24h45v24h51v-24h45v24h51v-24h45v24h51v-24h24v-51h-24v-24h-51v24h-45v-24h-51v24h-45v-24h-51v24h-45v-24h-51v24h-45v-45h24v-51h-24v-45h24v-51h-24v-45h45v24h51v-24h45v24h51v-24h45v24h51v-24h24v-51h-24v-24h-51v24h-45v-24h-51v24h-45v-24h-51v24h-45v-45 h24v-51h-24v-45h24v-51zM282 816h-24v-24h-51v24h-45v-24h-51v24h-24v51h24v24h51v-24h45v24h51v-24h24v-51zM378 912h-24v-24h-51v24h-24v51h24v24h51v-24h24v-51z" />
<glyph unicode="&#xca;" d="M90 120h-24v-45h45v24h51v-24h45v24h51v-24h45v24h51v-24h45v24h51v-24h24v-51h-24v-24h-51v24h-45v-24h-51v24h-45v-24h-51v24h-45v-24h-51v24h-45v-24h-51v24h-24v51h24v45h-24v51h24v45h-24v51h24v45h-24v51h24v45h-24v51h24v45h-24v51h24v45h-24v51h24v24h51v-24h45 v24h51v-24h45v24h51v-24h45v24h51v-24h45v24h51v-24h24v-51h-24v-24h-51v24h-45v-24h-51v24h-45v-24h-51v24h-45v-24h-51v24h-45v-45h24v-51h-24v-45h24v-51h-24v-45h45v24h51v-24h45v24h51v-24h45v24h51v-24h24v-51h-24v-24h-51v24h-45v-24h-51v24h-45v-24h-51v24h-45v-45 h24v-51h-24v-45h24v-51zM186 816h-24v-24h-51v24h-24v51h24v24h51v-24h24v-51zM378 816h-24v-24h-51v24h-24v51h24v24h51v-24h24v-51zM282 912h-24v-24h-51v24h-24v51h24v24h51v-24h24v-51z" />
<glyph unicode="&#xcb;" d="M474 24h-24v-24h-51v24h-45v-24h-51v24h-45v-24h-51v24h-45v-24h-51v24h-45v-24h-51v24h-24v51h24v45h-24v51h24v45h-24v51h24v45h-24v51h24v45h-24v51h24v45h-24v51h24v45h-24v51h24v24h51v-24h45v24h51v-24h45v24h51v-24h45v24h51v-24h45v24h51v-24h24v-51h-24v-24h-51 v24h-45v-24h-51v24h-45v-24h-51v24h-45v-24h-51v24h-45v-45h24v-51h-24v-45h24v-51h-24v-45h45v24h51v-24h45v24h51v-24h45v24h51v-24h24v-51h-24v-24h-51v24h-45v-24h-51v24h-45v-24h-51v24h-45v-45h24v-51h-24v-45h24v-51h-24v-45h45v24h51v-24h45v24h51v-24h45v24h51v-24 h45v24h51v-24h24v-51zM90 912h-24v-45h24v-51h-24v-24h-51v24h-24v51h24v45h-24v51h24v24h51v-24h24v-51zM474 912h-24v-45h24v-51h-24v-24h-51v24h-24v51h24v45h-24v51h24v24h51v-24h24v-51z" />
<glyph unicode="&#xcc;" d="M474 24h-24v-24h-51v24h-45v-24h-51v24h-45v-24h-51v24h-45v-24h-51v24h-45v-24h-51v24h-24v51h24v24h51v-24h45v24h51v-24h45v45h-24v51h24v45h-24v51h24v45h-24v51h24v45h-24v51h24v45h-24v51h24v45h-45v-24h-51v24h-45v-24h-51v24h-24v51h24v24h51v-24h45v24h51v-24 h45v24h51v-24h45v24h51v-24h45v24h51v-24h24v-51h-24v-24h-51v24h-45v-24h-51v24h-45v-45h24v-51h-24v-45h24v-51h-24v-45h24v-51h-24v-45h24v-51h-24v-45h24v-51h-24v-45h45v24h51v-24h45v24h51v-24h24v-51zM378 816h-24v-24h-51v24h-45v-24h-51v24h-24v51h24v24h51v-24h45 v24h51v-24h24v-51zM186 912h-24v-24h-51v24h-24v51h24v24h51v-24h24v-51z" />
<glyph unicode="&#xcd;" d="M474 24h-24v-24h-51v24h-45v-24h-51v24h-45v-24h-51v24h-45v-24h-51v24h-45v-24h-51v24h-24v51h24v24h51v-24h45v24h51v-24h45v45h-24v51h24v45h-24v51h24v45h-24v51h24v45h-24v51h24v45h-24v51h24v45h-45v-24h-51v24h-45v-24h-51v24h-24v51h24v24h51v-24h45v24h51v-24 h45v24h51v-24h45v24h51v-24h45v24h51v-24h24v-51h-24v-24h-51v24h-45v-24h-51v24h-45v-45h24v-51h-24v-45h24v-51h-24v-45h24v-51h-24v-45h24v-51h-24v-45h24v-51h-24v-45h45v24h51v-24h45v24h51v-24h24v-51zM282 816h-24v-24h-51v24h-45v-24h-51v24h-24v51h24v24h51v-24h45 v24h51v-24h24v-51zM378 912h-24v-24h-51v24h-24v51h24v24h51v-24h24v-51z" />
<glyph unicode="&#xce;" d="M474 24h-24v-24h-51v24h-45v-24h-51v24h-45v-24h-51v24h-45v-24h-51v24h-45v-24h-51v24h-24v51h24v24h51v-24h45v24h51v-24h45v45h-24v51h24v45h-24v51h24v45h-24v51h24v45h-24v51h24v45h-24v51h24v45h-45v-24h-51v24h-45v-24h-51v24h-24v51h24v24h51v-24h45v24h51v-24 h45v24h51v-24h45v24h51v-24h45v24h51v-24h24v-51h-24v-24h-51v24h-45v-24h-51v24h-45v-45h24v-51h-24v-45h24v-51h-24v-45h24v-51h-24v-45h24v-51h-24v-45h24v-51h-24v-45h45v24h51v-24h45v24h51v-24h24v-51zM186 816h-24v-24h-51v24h-24v51h24v24h51v-24h24v-51zM378 816 h-24v-24h-51v24h-24v51h24v24h51v-24h24v-51zM282 912h-24v-24h-51v24h-24v51h24v24h51v-24h24v-51z" />
<glyph unicode="&#xcf;" d="M474 24h-24v-24h-51v24h-45v-24h-51v24h-45v-24h-51v24h-45v-24h-51v24h-45v-24h-51v24h-24v51h24v24h51v-24h45v24h51v-24h45v45h-24v51h24v45h-24v51h24v45h-24v51h24v45h-24v51h24v45h-24v51h24v45h-45v-24h-51v24h-45v-24h-51v24h-24v51h24v24h51v-24h45v24h51v-24 h45v24h51v-24h45v24h51v-24h45v24h51v-24h24v-51h-24v-24h-51v24h-45v-24h-51v24h-45v-45h24v-51h-24v-45h24v-51h-24v-45h24v-51h-24v-45h24v-51h-24v-45h24v-51h-24v-45h45v24h51v-24h45v24h51v-24h24v-51zM90 912h-24v-45h24v-51h-24v-24h-51v24h-24v51h24v45h-24v51h24 v24h51v-24h24v-51zM474 912h-24v-45h24v-51h-24v-24h-51v24h-24v51h24v45h-24v51h24v24h51v-24h24v-51z" />
<glyph unicode="&#xd0;" d="M186 120h-24v-45h45v24h51v-24h45v24h51v-24h24v-51h-24v-24h-51v24h-45v-24h-51v24h-45v-24h-51v24h-24v51h24v45h-24v51h24v45h-24v51h24v45h-45v-24h-51v24h-24v51h24v24h51v-24h45v45h-24v51h24v45h-24v51h24v45h-24v51h24v24h51v-24h45v24h51v-24h45v24h51v-24h24 v-51h-24v-24h-51v24h-45v-24h-51v24h-45v-45h24v-51h-24v-45h24v-51h-24v-45h45v24h51v-24h24v-51h-24v-24h-51v24h-45v-45h24v-51h-24v-45h24v-51zM474 216h-24v-45h24v-51h-24v-24h-51v24h-24v51h24v45h-24v51h24v45h-24v51h24v45h-24v51h24v45h-24v51h24v24h51v-24h24 v-51h-24v-45h24v-51h-24v-45h24v-51h-24v-45h24v-51z" />
<glyph unicode="&#xd1;" d="M90 120h-24v-45h24v-51h-24v-24h-51v24h-24v51h24v45h-24v51h24v45h-24v51h24v45h-24v51h24v45h-24v51h24v45h-24v51h24v45h-24v51h24v24h51v-24h24v-51h-24v-45h45v24h51v-24h24v-51h-24v-24h-51v24h-45v-45h24v-51h-24v-45h24v-51h-24v-45h24v-51h-24v-45h24v-51z M474 120h-24v-45h24v-51h-24v-24h-51v24h-24v51h24v45h-24v51h24v45h-45v-24h-51v24h-24v51h24v24h51v-24h45v45h-24v51h24v45h-24v51h24v45h-24v51h24v45h-24v51h24v24h51v-24h24v-51h-24v-45h24v-51h-24v-45h24v-51h-24v-45h24v-51h-24v-45h24v-51h-24v-45h24v-51z M282 408h-24v-45h24v-51h-24v-24h-51v24h-24v51h24v45h-24v51h24v24h51v-24h24v-51zM378 816h-24v-24h-51v24h-45v-24h-51v24h-24v51h24v24h51v-24h45v24h51v-24h24v-51zM186 912h-24v-24h-51v24h-24v51h24v24h51v-24h24v-51zM474 912h-24v-24h-51v24h-24v51h24v24h51v-24 h24v-51zM90 816h-24v-24h-51v24h-24v51h24v24h51v-24h24v-51z" />
<glyph unicode="&#xd2;" d="M90 216h-24v-45h24v-51h-24v-24h-51v24h-24v51h24v45h-24v51h24v45h-24v51h24v45h-24v51h24v45h-24v51h24v24h51v-24h24v-51h-24v-45h24v-51h-24v-45h24v-51h-24v-45h24v-51zM474 216h-24v-45h24v-51h-24v-24h-51v24h-24v51h24v45h-24v51h24v45h-24v51h24v45h-24v51h24 v45h-24v51h24v24h51v-24h24v-51h-24v-45h24v-51h-24v-45h24v-51h-24v-45h24v-51zM378 600h-24v-24h-51v24h-45v-24h-51v24h-45v-24h-51v24h-24v51h24v24h51v-24h45v24h51v-24h45v24h51v-24h24v-51zM378 24h-24v-24h-51v24h-45v-24h-51v24h-45v-24h-51v24h-24v51h24v24h51 v-24h45v24h51v-24h45v24h51v-24h24v-51zM378 816h-24v-24h-51v24h-45v-24h-51v24h-24v51h24v24h51v-24h45v24h51v-24h24v-51zM186 912h-24v-24h-51v24h-24v51h24v24h51v-24h24v-51z" />
<glyph unicode="&#xd3;" d="M90 216h-24v-45h24v-51h-24v-24h-51v24h-24v51h24v45h-24v51h24v45h-24v51h24v45h-24v51h24v45h-24v51h24v24h51v-24h24v-51h-24v-45h24v-51h-24v-45h24v-51h-24v-45h24v-51zM474 216h-24v-45h24v-51h-24v-24h-51v24h-24v51h24v45h-24v51h24v45h-24v51h24v45h-24v51h24 v45h-24v51h24v24h51v-24h24v-51h-24v-45h24v-51h-24v-45h24v-51h-24v-45h24v-51zM378 600h-24v-24h-51v24h-45v-24h-51v24h-45v-24h-51v24h-24v51h24v24h51v-24h45v24h51v-24h45v24h51v-24h24v-51zM378 24h-24v-24h-51v24h-45v-24h-51v24h-45v-24h-51v24h-24v51h24v24h51 v-24h45v24h51v-24h45v24h51v-24h24v-51zM282 816h-24v-24h-51v24h-45v-24h-51v24h-24v51h24v24h51v-24h45v24h51v-24h24v-51zM378 912h-24v-24h-51v24h-24v51h24v24h51v-24h24v-51z" />
<glyph unicode="&#xd4;" d="M90 216h-24v-45h24v-51h-24v-24h-51v24h-24v51h24v45h-24v51h24v45h-24v51h24v45h-24v51h24v45h-24v51h24v24h51v-24h24v-51h-24v-45h24v-51h-24v-45h24v-51h-24v-45h24v-51zM474 216h-24v-45h24v-51h-24v-24h-51v24h-24v51h24v45h-24v51h24v45h-24v51h24v45h-24v51h24 v45h-24v51h24v24h51v-24h24v-51h-24v-45h24v-51h-24v-45h24v-51h-24v-45h24v-51zM378 600h-24v-24h-51v24h-45v-24h-51v24h-45v-24h-51v24h-24v51h24v24h51v-24h45v24h51v-24h45v24h51v-24h24v-51zM378 24h-24v-24h-51v24h-45v-24h-51v24h-45v-24h-51v24h-24v51h24v24h51 v-24h45v24h51v-24h45v24h51v-24h24v-51zM186 816h-24v-24h-51v24h-24v51h24v24h51v-24h24v-51zM378 816h-24v-24h-51v24h-24v51h24v24h51v-24h24v-51zM282 912h-24v-24h-51v24h-24v51h24v24h51v-24h24v-51z" />
<glyph unicode="&#xd5;" d="M90 216h-24v-45h24v-51h-24v-24h-51v24h-24v51h24v45h-24v51h24v45h-24v51h24v45h-24v51h24v45h-24v51h24v24h51v-24h24v-51h-24v-45h24v-51h-24v-45h24v-51h-24v-45h24v-51zM474 216h-24v-45h24v-51h-24v-24h-51v24h-24v51h24v45h-24v51h24v45h-24v51h24v45h-24v51h24 v45h-24v51h24v24h51v-24h24v-51h-24v-45h24v-51h-24v-45h24v-51h-24v-45h24v-51zM378 24h-24v-24h-51v24h-45v-24h-51v24h-45v-24h-51v24h-24v51h24v24h51v-24h45v24h51v-24h45v24h51v-24h24v-51zM378 600h-24v-24h-51v24h-45v-24h-51v24h-45v-24h-51v24h-24v51h24v24h51 v-24h45v24h51v-24h45v24h51v-24h24v-51zM378 816h-24v-24h-51v24h-45v-24h-51v24h-24v51h24v24h51v-24h45v24h51v-24h24v-51zM186 912h-24v-24h-51v24h-24v51h24v24h51v-24h24v-51zM90 816h-24v-24h-51v24h-24v51h24v24h51v-24h24v-51zM474 912h-24v-24h-51v24h-24v51h24v24 h51v-24h24v-51z" />
<glyph unicode="&#xd6;" d="M90 216h-24v-45h24v-51h-24v-24h-51v24h-24v51h24v45h-24v51h24v45h-24v51h24v45h-24v51h24v45h-24v51h24v24h51v-24h24v-51h-24v-45h24v-51h-24v-45h24v-51h-24v-45h24v-51zM474 216h-24v-45h24v-51h-24v-24h-51v24h-24v51h24v45h-24v51h24v45h-24v51h24v45h-24v51h24 v45h-24v51h24v24h51v-24h24v-51h-24v-45h24v-51h-24v-45h24v-51h-24v-45h24v-51zM378 600h-24v-24h-51v24h-45v-24h-51v24h-45v-24h-51v24h-24v51h24v24h51v-24h45v24h51v-24h45v24h51v-24h24v-51zM378 24h-24v-24h-51v24h-45v-24h-51v24h-45v-24h-51v24h-24v51h24v24h51 v-24h45v24h51v-24h45v24h51v-24h24v-51zM90 912h-24v-45h24v-51h-24v-24h-51v24h-24v51h24v45h-24v51h24v24h51v-24h24v-51zM474 912h-24v-45h24v-51h-24v-24h-51v24h-24v51h24v45h-24v51h24v24h51v-24h24v-51z" />
<glyph unicode="&#xd7;" d="M185 118h-24v-24h-50v24h-23v50h23v24h50v-24h24v-50zM374 118h-24v-24h-50v24h-23v50h23v24h50v-24h24v-50zM280 212h-24v-23h-50v23h-24v51h24v23h50v-23h24v-51zM185 307h-24v-24h-50v24h-23v50h23v24h50v-24h24v-50zM374 307h-24v-24h-50v24h-23v50h23v24h50v-24h24 v-50zM468 24h-23v-24h-50v24h-24v50h24v23h50v-23h23v-50zM91 24h-24v-24h-50v24h-24v50h24v23h50v-23h24v-50zM91 401h-24v-23h-50v23h-24v50h24v24h50v-24h24v-50zM468 401h-23v-23h-50v23h-24v50h24v24h50v-24h23v-50z" />
<glyph unicode="&#xd8;" d="M378 24h-24v-24h-51v24h-45v-24h-51v24h-45v-24h-51v24h-24v51h24v24h2v21h-47v-24h-51v24h-24v51h24v45h-24v51h24v45h-24v51h24v45h-24v51h24v45h-24v51h24v24h51v-24h24v-51h-24v-45h24v-51h-24v-45h24v-51h-24v-45h24v-51h-24v-45h47v24h51v-24h24v-51h-24v-24h-2 v-21h45v24h51v-24h45v24h51v-24h24v-51zM474 120h-24v-24h-51v24h-24v51h24v45h-24v51h24v45h-24v51h24v45h-24v51h24v45h-43v-24h-51v24h-24v51h24v21h-2v24h-45v-24h-51v24h-45v-24h-51v24h-24v51h24v24h51v-24h45v24h51v-24h45v24h51v-24h24v-51h-24v-21h2v-24h43v24h51 v-24h24v-51h-24v-45h24v-51h-24v-45h24v-51h-24v-45h24v-51h-24v-45h24v-51zM284 408h-24v-45h24v-51h-24v-45h24v-51h-24v-24h-51v24h-24v51h24v45h-24v51h24v45h-24v51h24v24h51v-24h24v-51z" />
<glyph unicode="&#xd9;" d="M90 216h-24v-45h24v-51h-24v-24h-51v24h-24v51h24v45h-24v51h24v45h-24v51h24v45h-24v51h24v45h-24v51h24v45h-24v51h24v24h51v-24h24v-51h-24v-45h24v-51h-24v-45h24v-51h-24v-45h24v-51h-24v-45h24v-51zM474 216h-24v-45h24v-51h-24v-24h-51v24h-24v51h24v45h-24v51h24 v45h-24v51h24v45h-24v51h24v45h-24v51h24v45h-24v51h24v24h51v-24h24v-51h-24v-45h24v-51h-24v-45h24v-51h-24v-45h24v-51h-24v-45h24v-51zM378 24h-24v-24h-51v24h-45v-24h-51v24h-45v-24h-51v24h-24v51h24v24h51v-24h45v24h51v-24h45v24h51v-24h24v-51zM378 816h-24v-24 h-51v24h-45v-24h-51v24h-24v51h24v24h51v-24h45v24h51v-24h24v-51zM186 912h-24v-24h-51v24h-24v51h24v24h51v-24h24v-51z" />
<glyph unicode="&#xda;" d="M90 216h-24v-45h24v-51h-24v-24h-51v24h-24v51h24v45h-24v51h24v45h-24v51h24v45h-24v51h24v45h-24v51h24v45h-24v51h24v24h51v-24h24v-51h-24v-45h24v-51h-24v-45h24v-51h-24v-45h24v-51h-24v-45h24v-51zM474 216h-24v-45h24v-51h-24v-24h-51v24h-24v51h24v45h-24v51h24 v45h-24v51h24v45h-24v51h24v45h-24v51h24v45h-24v51h24v24h51v-24h24v-51h-24v-45h24v-51h-24v-45h24v-51h-24v-45h24v-51h-24v-45h24v-51zM378 24h-24v-24h-51v24h-45v-24h-51v24h-45v-24h-51v24h-24v51h24v24h51v-24h45v24h51v-24h45v24h51v-24h24v-51zM282 816h-24v-24 h-51v24h-45v-24h-51v24h-24v51h24v24h51v-24h45v24h51v-24h24v-51zM378 912h-24v-24h-51v24h-24v51h24v24h51v-24h24v-51z" />
<glyph unicode="&#xdb;" d="M90 216h-24v-45h24v-51h-24v-24h-51v24h-24v51h24v45h-24v51h24v45h-24v51h24v45h-24v51h24v45h-24v51h24v45h-24v51h24v24h51v-24h24v-51h-24v-45h24v-51h-24v-45h24v-51h-24v-45h24v-51h-24v-45h24v-51zM474 216h-24v-45h24v-51h-24v-24h-51v24h-24v51h24v45h-24v51h24 v45h-24v51h24v45h-24v51h24v45h-24v51h24v45h-24v51h24v24h51v-24h24v-51h-24v-45h24v-51h-24v-45h24v-51h-24v-45h24v-51h-24v-45h24v-51zM378 24h-24v-24h-51v24h-45v-24h-51v24h-45v-24h-51v24h-24v51h24v24h51v-24h45v24h51v-24h45v24h51v-24h24v-51zM186 816h-24v-24 h-51v24h-24v51h24v24h51v-24h24v-51zM378 816h-24v-24h-51v24h-24v51h24v24h51v-24h24v-51zM282 912h-24v-24h-51v24h-24v51h24v24h51v-24h24v-51z" />
<glyph unicode="&#xdc;" d="M90 216h-24v-45h24v-51h-24v-24h-51v24h-24v51h24v45h-24v51h24v45h-24v51h24v45h-24v51h24v45h-24v51h24v45h-24v51h24v24h51v-24h24v-51h-24v-45h24v-51h-24v-45h24v-51h-24v-45h24v-51h-24v-45h24v-51zM474 216h-24v-45h24v-51h-24v-24h-51v24h-24v51h24v45h-24v51h24 v45h-24v51h24v45h-24v51h24v45h-24v51h24v45h-24v51h24v24h51v-24h24v-51h-24v-45h24v-51h-24v-45h24v-51h-24v-45h24v-51h-24v-45h24v-51zM378 24h-24v-24h-51v24h-45v-24h-51v24h-45v-24h-51v24h-24v51h24v24h51v-24h45v24h51v-24h45v24h51v-24h24v-51zM90 912h-24v-45h24 v-51h-24v-24h-51v24h-24v51h24v45h-24v51h24v24h51v-24h24v-51zM474 912h-24v-45h24v-51h-24v-24h-51v24h-24v51h24v45h-24v51h24v24h51v-24h24v-51z" />
<glyph unicode="&#xdd;" d="M282 120h-24v-45h24v-51h-24v-24h-51v24h-24v51h24v45h-24v51h24v45h-24v51h24v24h51v-24h24v-51h-24v-45h24v-51zM474 504h-24v-45h24v-51h-24v-24h-51v24h-24v51h24v45h-24v51h24v45h-24v51h24v24h51v-24h24v-51h-24v-45h24v-51zM90 504h-24v-45h24v-51h-24v-24h-51v24 h-24v51h24v45h-24v51h24v45h-24v51h24v24h51v-24h24v-51h-24v-45h24v-51zM282 816h-24v-24h-51v24h-45v-24h-51v24h-24v51h24v24h51v-24h45v24h51v-24h24v-51zM186 312h-24v-24h-51v24h-24v51h24v24h51v-24h24v-51zM378 312h-24v-24h-51v24h-24v51h24v24h51v-24h24v-51z M378 912h-24v-24h-51v24h-24v51h24v24h51v-24h24v-51z" />
<glyph unicode="&#xde;" d="M90 120h-24v-45h24v-51h-24v-24h-51v24h-24v51h24v45h-24v51h24v45h-24v51h24v45h-24v51h24v45h-24v51h24v45h-24v51h24v45h-24v51h24v24h51v-24h24v-51h-24v-45h45v24h51v-24h45v24h51v-24h45v24h51v-24h24v-51h-24v-24h-51v24h-45v-24h-51v24h-45v-24h-51v24h-45v-45 h24v-51h-24v-45h24v-51h-24v-45h45v24h51v-24h45v24h51v-24h45v24h51v-24h24v-51h-24v-24h-51v24h-45v-24h-51v24h-45v-24h-51v24h-45v-45h24v-51zM474 408h-24v-45h24v-51h-24v-24h-51v24h-24v51h24v45h-24v51h24v24h51v-24h24v-51z" />
<glyph unicode="&#xdf;" d="M91 118h-24v-44h24v-50h-24v-24h-50v24h-24v50h24v44h-24v50h24v44h-24v51h24v44h-24v50h24v44h-24v50h24v24h50v-24h24v-50h-24v-44h24v-50h-24v-44h24v-51h-24v-44h24v-50zM374 24h-24v-24h-50v24h-44v-24h-50v24h-24v50h24v23h50v-23h44v23h50v-23h24v-50zM374 496 h-24v-45h24v-50h-24v-23h-50v23h-23v50h23v45h-23v50h23v23h50v-23h24v-50zM280 307h-24v-24h-50v24h-24v50h24v24h50v-24h24v-50zM468 118h-23v-24h-50v24h-24v50h24v24h50v-24h23v-50zM280 590h-24v-23h-50v23h-24v50h24v24h50v-24h24v-50zM374 212h-24v-23h-50v23h-23v51 h23v23h50v-23h24v-51zM185 496h-24v-24h-50v24h-23v50h23v23h50v-23h24v-50z" />
<glyph unicode="&#xe0;" d="M468 24h-23v-24h-50v24h-45v-24h-50v24h-44v-24h-50v24h-45v-24h-50v24h-23v50h23v23h50v-23h45v23h50v-23h44v23h50v-23h45v44h-24v50h24v44h-45v-23h-50v23h-44v-23h-50v23h-45v-23h-50v23h-23v51h23v23h50v-23h45v23h50v-23h44v23h50v-23h45v44h-24v50h24v24h50v-24 h23v-50h-23v-44h23v-51h-23v-44h23v-50h-23v-44h23v-50zM374 401h-24v-23h-50v23h-44v-23h-50v23h-45v-23h-50v23h-23v50h23v24h50v-24h45v24h50v-24h44v24h50v-24h24v-50zM374 590h-24v-23h-50v23h-44v-23h-50v23h-24v50h24v24h50v-24h44v24h50v-24h24v-50zM91 118h-24v-24 h-50v24h-24v50h24v24h50v-24h24v-50zM185 685h-24v-24h-50v24h-23v50h23v23h50v-23h24v-50z" />
<glyph unicode="&#xe1;" d="M468 24h-23v-24h-50v24h-45v-24h-50v24h-44v-24h-50v24h-45v-24h-50v24h-23v50h23v23h50v-23h45v23h50v-23h44v23h50v-23h45v44h-24v50h24v44h-45v-23h-50v23h-44v-23h-50v23h-45v-23h-50v23h-23v51h23v23h50v-23h45v23h50v-23h44v23h50v-23h45v44h-24v50h24v24h50v-24 h23v-50h-23v-44h23v-51h-23v-44h23v-50h-23v-44h23v-50zM374 401h-24v-23h-50v23h-44v-23h-50v23h-45v-23h-50v23h-23v50h23v24h50v-24h45v24h50v-24h44v24h50v-24h24v-50zM280 590h-24v-23h-50v23h-45v-23h-50v23h-23v50h23v24h50v-24h45v24h50v-24h24v-50zM91 118h-24v-24 h-50v24h-24v50h24v24h50v-24h24v-50zM374 685h-24v-24h-50v24h-23v50h23v23h50v-23h24v-50z" />
<glyph unicode="&#xe2;" d="M468 24h-23v-24h-50v24h-45v-24h-50v24h-44v-24h-50v24h-45v-24h-50v24h-23v50h23v23h50v-23h45v23h50v-23h44v23h50v-23h45v44h-24v50h24v44h-45v-23h-50v23h-44v-23h-50v23h-45v-23h-50v23h-23v51h23v23h50v-23h45v23h50v-23h44v23h50v-23h45v44h-24v50h24v24h50v-24 h23v-50h-23v-44h23v-51h-23v-44h23v-50h-23v-44h23v-50zM374 401h-24v-23h-50v23h-44v-23h-50v23h-45v-23h-50v23h-23v50h23v24h50v-24h45v24h50v-24h44v24h50v-24h24v-50zM91 118h-24v-24h-50v24h-24v50h24v24h50v-24h24v-50z" />
<glyph unicode="&#xe3;" d="M468 24h-23v-24h-50v24h-45v-24h-50v24h-44v-24h-50v24h-45v-24h-50v24h-23v50h23v23h50v-23h45v23h50v-23h44v23h50v-23h45v44h-24v50h24v44h-45v-23h-50v23h-44v-23h-50v23h-45v-23h-50v23h-23v51h23v23h50v-23h45v23h50v-23h44v23h50v-23h45v44h-24v50h24v24h50v-24 h23v-50h-23v-44h23v-51h-23v-44h23v-50h-23v-44h23v-50zM374 401h-24v-23h-50v23h-44v-23h-50v23h-45v-23h-50v23h-23v50h23v24h50v-24h45v24h50v-24h44v24h50v-24h24v-50zM374 590h-24v-23h-50v23h-44v-23h-50v23h-24v50h24v24h50v-24h44v24h50v-24h24v-50zM91 118h-24v-24 h-50v24h-24v50h24v24h50v-24h24v-50zM91 590h-24v-23h-50v23h-24v50h24v24h50v-24h24v-50zM468 685h-23v-24h-50v24h-24v50h24v23h50v-23h23v-50zM185 685h-24v-24h-50v24h-23v50h23v23h50v-23h24v-50z" />
<glyph unicode="&#xe4;" d="M468 24h-23v-24h-50v24h-45v-24h-50v24h-44v-24h-50v24h-45v-24h-50v24h-23v50h23v23h50v-23h45v23h50v-23h44v23h50v-23h45v44h-24v50h24v44h-45v-23h-50v23h-44v-23h-50v23h-45v-23h-50v23h-23v51h23v23h50v-23h45v23h50v-23h44v23h50v-23h45v44h-24v50h24v24h50v-24 h23v-50h-23v-44h23v-51h-23v-44h23v-50h-23v-44h23v-50zM374 401h-24v-23h-50v23h-44v-23h-50v23h-45v-23h-50v23h-23v50h23v24h50v-24h45v24h50v-24h44v24h50v-24h24v-50zM91 685h-24v-45h24v-50h-24v-23h-50v23h-24v50h24v45h-24v50h24v23h50v-23h24v-50zM468 685h-23v-45 h23v-50h-23v-23h-50v23h-24v50h24v45h-24v50h24v23h50v-23h23v-50zM91 118h-24v-24h-50v24h-24v50h24v24h50v-24h24v-50z" />
<glyph unicode="&#xe5;" d="M468 24h-23v-24h-50v24h-45v-24h-50v24h-44v-24h-50v24h-45v-24h-50v24h-23v50h23v23h50v-23h45v23h50v-23h44v23h50v-23h45v44h-24v50h24v44h-45v-23h-50v23h-44v-23h-50v23h-45v-23h-50v23h-23v51h23v23h50v-23h45v23h50v-23h44v23h50v-23h45v44h-24v50h24v24h50v-24 h23v-50h-23v-44h23v-51h-23v-44h23v-50h-23v-44h23v-50zM374 401h-24v-23h-50v23h-44v-23h-50v23h-45v-23h-50v23h-23v50h23v24h50v-24h45v24h50v-24h44v24h50v-24h24v-50zM280 779h-24v-24h-50v24h-24v50h24v24h50v-24h24v-50zM91 118h-24v-24h-50v24h-24v50h24v24h50v-24 h24v-50zM280 590h-24v-23h-50v23h-24v50h24v24h50v-24h24v-50zM185 685h-24v-24h-50v24h-23v50h23v23h50v-23h24v-50zM374 685h-24v-24h-50v24h-23v50h23v23h50v-23h24v-50z" />
<glyph unicode="&#xe6;" d="M468 24h-23v-24h-50v24h-45v-24h-50v24h-44v-24h-50v24h-45v-24h-50v24h-23v50h23v23h50v-23h45v44h-24v50h24v44h-45v-23h-50v23h-23v51h23v23h50v-23h45v44h-24v50h24v24h50v-24h24v-50h-24v-44h44v23h50v-23h24v-51h-24v-23h-50v23h-44v-44h24v-50h-24v-44h44v23h50 v-23h45v23h50v-23h23v-50zM91 118h-24v-24h-50v24h-24v50h24v24h50v-24h24v-50zM468 307h-23v-24h-50v24h-24v50h24v24h50v-24h23v-50zM185 401h-24v-23h-50v23h-23v50h23v24h50v-24h24v-50zM374 401h-24v-23h-50v23h-23v50h23v24h50v-24h24v-50z" />
<glyph unicode="&#xe7;" d="M280 -71h-24v-23h-50v23h-24v50h24v45h-45v-24h-50v24h-23v50h23v23h50v-23h45v23h50v-23h44v23h50v-23h24v-50h-24v-24h-50v24h-44v-45h24v-50zM91 212h-24v-44h24v-50h-24v-24h-50v24h-24v50h24v44h-24v51h24v44h-24v50h24v24h50v-24h24v-50h-24v-44h24v-51zM374 401 h-24v-23h-50v23h-44v-23h-50v23h-45v-23h-50v23h-23v50h23v24h50v-24h45v24h50v-24h44v24h50v-24h24v-50zM468 307h-23v-24h-50v24h-24v50h24v24h50v-24h23v-50zM468 118h-23v-24h-50v24h-24v50h24v24h50v-24h23v-50zM185 -165h-24v-24h-50v24h-23v50h23v23h50v-23h24v-50z " />
<glyph unicode="&#xe8;" d="M468 212h-23v-23h-50v23h-45v-23h-50v23h-44v-23h-50v23h-45v-23h-50v23h-44v-44h24v-50h-24v-24h-50v24h-24v50h24v44h-24v51h24v44h-24v50h24v24h50v-24h24v-50h-24v-44h44v23h50v-23h45v23h50v-23h44v23h50v-23h45v44h-24v50h24v24h50v-24h23v-50h-23v-44h23v-51z M468 24h-23v-24h-50v24h-45v-24h-50v24h-44v-24h-50v24h-45v-24h-50v24h-23v50h23v23h50v-23h45v23h50v-23h44v23h50v-23h45v23h50v-23h23v-50zM374 401h-24v-23h-50v23h-44v-23h-50v23h-45v-23h-50v23h-23v50h23v24h50v-24h45v24h50v-24h44v24h50v-24h24v-50zM374 590h-24 v-23h-50v23h-44v-23h-50v23h-24v50h24v24h50v-24h44v24h50v-24h24v-50zM185 685h-24v-24h-50v24h-23v50h23v23h50v-23h24v-50z" />
<glyph unicode="&#xe9;" d="M468 212h-23v-23h-50v23h-45v-23h-50v23h-44v-23h-50v23h-45v-23h-50v23h-44v-44h24v-50h-24v-24h-50v24h-24v50h24v44h-24v51h24v44h-24v50h24v24h50v-24h24v-50h-24v-44h44v23h50v-23h45v23h50v-23h44v23h50v-23h45v44h-24v50h24v24h50v-24h23v-50h-23v-44h23v-51z M468 24h-23v-24h-50v24h-45v-24h-50v24h-44v-24h-50v24h-45v-24h-50v24h-23v50h23v23h50v-23h45v23h50v-23h44v23h50v-23h45v23h50v-23h23v-50zM374 401h-24v-23h-50v23h-44v-23h-50v23h-45v-23h-50v23h-23v50h23v24h50v-24h45v24h50v-24h44v24h50v-24h24v-50zM280 590h-24 v-23h-50v23h-45v-23h-50v23h-23v50h23v24h50v-24h45v24h50v-24h24v-50zM374 685h-24v-24h-50v24h-23v50h23v23h50v-23h24v-50z" />
<glyph unicode="&#xea;" d="M468 212h-23v-23h-50v23h-45v-23h-50v23h-44v-23h-50v23h-45v-23h-50v23h-44v-44h24v-50h-24v-24h-50v24h-24v50h24v44h-24v51h24v44h-24v50h24v24h50v-24h24v-50h-24v-44h44v23h50v-23h45v23h50v-23h44v23h50v-23h45v44h-24v50h24v24h50v-24h23v-50h-23v-44h23v-51z M468 24h-23v-24h-50v24h-45v-24h-50v24h-44v-24h-50v24h-45v-24h-50v24h-23v50h23v23h50v-23h45v23h50v-23h44v23h50v-23h45v23h50v-23h23v-50zM374 401h-24v-23h-50v23h-44v-23h-50v23h-45v-23h-50v23h-23v50h23v24h50v-24h45v24h50v-24h44v24h50v-24h24v-50zM280 685h-24 v-24h-50v24h-24v50h24v23h50v-23h24v-50zM374 590h-24v-23h-50v23h-23v50h23v24h50v-24h24v-50zM185 590h-24v-23h-50v23h-23v50h23v24h50v-24h24v-50z" />
<glyph unicode="&#xeb;" d="M468 212h-23v-23h-50v23h-45v-23h-50v23h-44v-23h-50v23h-45v-23h-50v23h-44v-44h24v-50h-24v-24h-50v24h-24v50h24v44h-24v51h24v44h-24v50h24v24h50v-24h24v-50h-24v-44h44v23h50v-23h45v23h50v-23h44v23h50v-23h45v44h-24v50h24v24h50v-24h23v-50h-23v-44h23v-51z M468 24h-23v-24h-50v24h-45v-24h-50v24h-44v-24h-50v24h-45v-24h-50v24h-23v50h23v23h50v-23h45v23h50v-23h44v23h50v-23h45v23h50v-23h23v-50zM374 401h-24v-23h-50v23h-44v-23h-50v23h-45v-23h-50v23h-23v50h23v24h50v-24h45v24h50v-24h44v24h50v-24h24v-50zM91 685h-24 v-45h24v-50h-24v-23h-50v23h-24v50h24v45h-24v50h24v23h50v-23h24v-50zM468 685h-23v-45h23v-50h-23v-23h-50v23h-24v50h24v45h-24v50h24v23h50v-23h23v-50z" />
<glyph unicode="&#xec;" d="M468 24h-23v-24h-50v24h-45v-24h-50v24h-44v-24h-50v24h-45v-24h-50v24h-44v-24h-50v24h-24v50h24v23h50v-23h44v23h50v-23h45v44h-24v50h24v44h-24v51h24v44h-24v50h24v44h-45v-23h-50v23h-44v-23h-50v23h-24v50h24v24h50v-24h44v24h50v-24h45v24h50v-24h24v-50h-24v-44 h24v-50h-24v-44h24v-51h-24v-44h24v-50h-24v-44h44v23h50v-23h45v23h50v-23h23v-50zM445 579h-24v-24h-50v24h-44v-24h-50v24h-24v50h24v24h50v-24h44v24h50v-24h24v-50zM256 673h-24v-23h-50v23h-23v50h23v24h50v-24h24v-50z" />
<glyph unicode="&#xed;" d="M468 24h-23v-24h-50v24h-45v-24h-50v24h-44v-24h-50v24h-45v-24h-50v24h-44v-24h-50v24h-24v50h24v23h50v-23h44v23h50v-23h45v44h-24v50h24v44h-24v51h24v44h-24v50h24v44h-45v-23h-50v23h-44v-23h-50v23h-24v50h24v24h50v-24h44v24h50v-24h45v24h50v-24h24v-50h-24v-44 h24v-50h-24v-44h24v-51h-24v-44h24v-50h-24v-44h44v23h50v-23h45v23h50v-23h23v-50zM350 579h-23v-24h-50v24h-45v-24h-50v24h-23v50h23v24h50v-24h45v24h50v-24h23v-50zM445 673h-24v-23h-50v23h-23v50h23v24h50v-24h24v-50z" />
<glyph unicode="&#xee;" d="M468 24h-23v-24h-50v24h-45v-24h-50v24h-44v-24h-50v24h-45v-24h-50v24h-44v-24h-50v24h-24v50h24v23h50v-23h44v23h50v-23h45v44h-24v50h24v44h-24v51h24v44h-24v50h24v44h-45v-23h-50v23h-44v-23h-50v23h-24v50h24v24h50v-24h44v24h50v-24h45v24h50v-24h24v-50h-24v-44 h24v-50h-24v-44h24v-51h-24v-44h24v-50h-24v-44h44v23h50v-23h45v23h50v-23h23v-50zM256 579h-24v-24h-50v24h-23v50h23v24h50v-24h24v-50zM445 579h-24v-24h-50v24h-23v50h23v24h50v-24h24v-50zM350 673h-23v-23h-50v23h-24v50h24v24h50v-24h23v-50z" />
<glyph unicode="&#xef;" d="M468 24h-23v-24h-50v24h-45v-24h-50v24h-44v-24h-50v24h-45v-24h-50v24h-44v-24h-50v24h-24v50h24v23h50v-23h44v23h50v-23h45v44h-24v50h24v44h-24v51h24v44h-24v50h24v44h-45v-23h-50v23h-44v-23h-50v23h-24v50h24v24h50v-24h44v24h50v-24h45v24h50v-24h24v-50h-24v-44 h24v-50h-24v-44h24v-51h-24v-44h24v-50h-24v-44h44v23h50v-23h45v23h50v-23h23v-50zM91 685h-24v-45h24v-50h-24v-23h-50v23h-24v50h24v45h-24v50h24v23h50v-23h24v-50zM468 685h-23v-45h23v-50h-23v-23h-50v23h-24v50h24v45h-24v50h24v23h50v-23h23v-50z" />
<glyph unicode="&#xf0;" d="M468 212h-23v-44h23v-50h-23v-24h-50v24h-24v50h24v44h-24v51h24v44h-45v-24h-50v24h-44v-24h-50v24h-45v-24h-50v24h-23v50h23v24h50v-24h45v44h-24v50h24v24h50v-24h24v-50h-24v-44h44v24h50v-24h45v44h-24v50h24v24h50v-24h23v-50h-23v-44h23v-50h-23v-44h23v-51z M374 24h-24v-24h-50v24h-44v-24h-50v24h-45v-24h-50v24h-23v50h23v23h50v-23h45v23h50v-23h44v23h50v-23h24v-50zM91 212h-24v-44h24v-50h-24v-24h-50v24h-24v50h24v44h-24v51h24v23h50v-23h24v-51zM280 590h-24v-23h-50v23h-45v-23h-50v23h-23v50h23v24h50v-24h45v24h50 v-24h24v-50zM468 590h-23v-23h-50v23h-24v50h24v24h50v-24h23v-50zM374 496h-24v-24h-50v24h-23v50h23v23h50v-23h24v-50z" />
<glyph unicode="&#xf1;" d="M91 118h-24v-44h24v-50h-24v-24h-50v24h-24v50h24v44h-24v50h24v44h-24v51h24v44h-24v50h24v44h-24v50h24v24h50v-24h24v-50h-24v-44h44v24h50v-24h24v-50h-24v-24h-50v24h-44v-44h24v-51h-24v-44h24v-50zM468 118h-23v-44h23v-50h-23v-24h-50v24h-24v50h24v44h-24v50h24 v44h-24v51h24v44h-24v50h24v24h50v-24h23v-50h-23v-44h23v-51h-23v-44h23v-50zM374 590h-24v-23h-50v23h-44v-23h-50v23h-24v50h24v24h50v-24h44v24h50v-24h24v-50zM374 401h-24v-23h-50v23h-44v-23h-50v23h-24v50h24v24h50v-24h44v24h50v-24h24v-50zM91 590h-24v-23h-50v23 h-24v50h24v24h50v-24h24v-50zM185 685h-24v-24h-50v24h-23v50h23v23h50v-23h24v-50zM468 685h-23v-24h-50v24h-24v50h24v23h50v-23h23v-50z" />
<glyph unicode="&#xf2;" d="M91 212h-24v-44h24v-50h-24v-24h-50v24h-24v50h24v44h-24v51h24v44h-24v50h24v24h50v-24h24v-50h-24v-44h24v-51zM468 212h-23v-44h23v-50h-23v-24h-50v24h-24v50h24v44h-24v51h24v44h-24v50h24v24h50v-24h23v-50h-23v-44h23v-51zM374 24h-24v-24h-50v24h-44v-24h-50v24 h-45v-24h-50v24h-23v50h23v23h50v-23h45v23h50v-23h44v23h50v-23h24v-50zM374 401h-24v-23h-50v23h-44v-23h-50v23h-45v-23h-50v23h-23v50h23v24h50v-24h45v24h50v-24h44v24h50v-24h24v-50zM374 590h-24v-23h-50v23h-44v-23h-50v23h-24v50h24v24h50v-24h44v24h50v-24h24v-50 zM185 685h-24v-24h-50v24h-23v50h23v23h50v-23h24v-50z" />
<glyph unicode="&#xf3;" d="M91 212h-24v-44h24v-50h-24v-24h-50v24h-24v50h24v44h-24v51h24v44h-24v50h24v24h50v-24h24v-50h-24v-44h24v-51zM468 212h-23v-44h23v-50h-23v-24h-50v24h-24v50h24v44h-24v51h24v44h-24v50h24v24h50v-24h23v-50h-23v-44h23v-51zM374 24h-24v-24h-50v24h-44v-24h-50v24 h-45v-24h-50v24h-23v50h23v23h50v-23h45v23h50v-23h44v23h50v-23h24v-50zM374 401h-24v-23h-50v23h-44v-23h-50v23h-45v-23h-50v23h-23v50h23v24h50v-24h45v24h50v-24h44v24h50v-24h24v-50zM280 590h-24v-23h-50v23h-45v-23h-50v23h-23v50h23v24h50v-24h45v24h50v-24h24v-50 zM374 685h-24v-24h-50v24h-23v50h23v23h50v-23h24v-50z" />
<glyph unicode="&#xf4;" d="M91 212h-24v-44h24v-50h-24v-24h-50v24h-24v50h24v44h-24v51h24v44h-24v50h24v24h50v-24h24v-50h-24v-44h24v-51zM468 212h-23v-44h23v-50h-23v-24h-50v24h-24v50h24v44h-24v51h24v44h-24v50h24v24h50v-24h23v-50h-23v-44h23v-51zM374 24h-24v-24h-50v24h-44v-24h-50v24 h-45v-24h-50v24h-23v50h23v23h50v-23h45v23h50v-23h44v23h50v-23h24v-50zM374 401h-24v-23h-50v23h-44v-23h-50v23h-45v-23h-50v23h-23v50h23v24h50v-24h45v24h50v-24h44v24h50v-24h24v-50zM280 685h-24v-24h-50v24h-24v50h24v23h50v-23h24v-50zM185 590h-24v-23h-50v23h-23 v50h23v24h50v-24h24v-50zM374 590h-24v-23h-50v23h-23v50h23v24h50v-24h24v-50z" />
<glyph unicode="&#xf5;" d="M91 212h-24v-44h24v-50h-24v-24h-50v24h-24v50h24v44h-24v51h24v44h-24v50h24v24h50v-24h24v-50h-24v-44h24v-51zM468 212h-23v-44h23v-50h-23v-24h-50v24h-24v50h24v44h-24v51h24v44h-24v50h24v24h50v-24h23v-50h-23v-44h23v-51zM374 24h-24v-24h-50v24h-44v-24h-50v24 h-45v-24h-50v24h-23v50h23v23h50v-23h45v23h50v-23h44v23h50v-23h24v-50zM374 401h-24v-23h-50v23h-44v-23h-50v23h-45v-23h-50v23h-23v50h23v24h50v-24h45v24h50v-24h44v24h50v-24h24v-50zM374 590h-24v-23h-50v23h-44v-23h-50v23h-24v50h24v24h50v-24h44v24h50v-24h24v-50 zM91 590h-24v-23h-50v23h-24v50h24v24h50v-24h24v-50zM185 685h-24v-24h-50v24h-23v50h23v23h50v-23h24v-50zM468 685h-23v-24h-50v24h-24v50h24v23h50v-23h23v-50z" />
<glyph unicode="&#xf6;" d="M91 212h-24v-44h24v-50h-24v-24h-50v24h-24v50h24v44h-24v51h24v44h-24v50h24v24h50v-24h24v-50h-24v-44h24v-51zM468 212h-23v-44h23v-50h-23v-24h-50v24h-24v50h24v44h-24v51h24v44h-24v50h24v24h50v-24h23v-50h-23v-44h23v-51zM374 24h-24v-24h-50v24h-44v-24h-50v24 h-45v-24h-50v24h-23v50h23v23h50v-23h45v23h50v-23h44v23h50v-23h24v-50zM374 401h-24v-23h-50v23h-44v-23h-50v23h-45v-23h-50v23h-23v50h23v24h50v-24h45v24h50v-24h44v24h50v-24h24v-50zM91 685h-24v-45h24v-50h-24v-23h-50v23h-24v50h24v45h-24v50h24v23h50v-23h24v-50z M468 685h-23v-45h23v-50h-23v-23h-50v23h-24v50h24v45h-24v50h24v23h50v-23h23v-50z" />
<glyph unicode="&#xf7;" d="M468 212h-23v-23h-50v23h-45v-23h-50v23h-44v-23h-50v23h-45v-23h-50v23h-44v-23h-50v23h-24v51h24v23h50v-23h44v23h50v-23h45v23h50v-23h44v23h50v-23h45v23h50v-23h23v-51zM280 24h-24v-24h-50v24h-24v50h24v23h50v-23h24v-50zM280 401h-24v-23h-50v23h-24v50h24v24 h50v-24h24v-50z" />
<glyph unicode="&#xf8;" d="M374 401h-24v-44h45v24h50v-24h23v-50h-23v-44h23v-51h-23v-44h23v-50h-23v-24h-50v24h-24v50h24v44h-24v51h24v44h-45v-24h-50v24h-23v50h23v44h-44v-23h-50v23h-45v-23h-50v23h-23v50h23v24h50v-24h45v24h50v-24h44v24h50v-24h24v-50zM280 118h-24v-44h44v23h50v-23h24 v-50h-24v-24h-50v24h-44v-24h-50v24h-45v-24h-50v24h-23v50h23v23h50v-23h45v44h-24v50h24v44h-24v51h24v23h50v-23h24v-51h-24v-44h24v-50zM91 118h-24v-24h-50v24h-24v50h24v44h-24v51h24v44h-24v50h24v24h50v-24h24v-50h-24v-44h24v-51h-24v-44h24v-50zM92 -71h-24v-23 h-50v23h-24v50h24v24h50v-24h24v-50zM468 496h-23v-24h-50v24h-24v50h24v23h50v-23h23v-50z" />
<glyph unicode="&#xf9;" d="M468 118h-23v-44h23v-50h-23v-24h-50v24h-24v50h24v44h-45v-24h-50v24h-23v50h23v24h50v-24h45v44h-24v51h24v44h-24v50h24v44h-24v50h24v24h50v-24h23v-50h-23v-44h23v-50h-23v-44h23v-51h-23v-44h23v-50zM91 212h-24v-44h24v-50h-24v-24h-50v24h-24v50h24v44h-24v51h24 v44h-24v50h24v44h-24v50h24v24h50v-24h24v-50h-24v-44h24v-50h-24v-44h24v-51zM280 24h-24v-24h-50v24h-45v-24h-50v24h-23v50h23v23h50v-23h45v23h50v-23h24v-50zM374 590h-24v-23h-50v23h-44v-23h-50v23h-24v50h24v24h50v-24h44v24h50v-24h24v-50zM185 685h-24v-24h-50v24 h-23v50h23v23h50v-23h24v-50z" />
<glyph unicode="&#xfa;" d="M468 118h-23v-44h23v-50h-23v-24h-50v24h-24v50h24v44h-45v-24h-50v24h-23v50h23v24h50v-24h45v44h-24v51h24v44h-24v50h24v44h-24v50h24v24h50v-24h23v-50h-23v-44h23v-50h-23v-44h23v-51h-23v-44h23v-50zM91 212h-24v-44h24v-50h-24v-24h-50v24h-24v50h24v44h-24v51h24 v44h-24v50h24v44h-24v50h24v24h50v-24h24v-50h-24v-44h24v-50h-24v-44h24v-51zM280 24h-24v-24h-50v24h-45v-24h-50v24h-23v50h23v23h50v-23h45v23h50v-23h24v-50zM280 590h-24v-23h-50v23h-45v-23h-50v23h-23v50h23v24h50v-24h45v24h50v-24h24v-50zM374 685h-24v-24h-50v24 h-23v50h23v23h50v-23h24v-50z" />
<glyph unicode="&#xfb;" d="M468 118h-23v-44h23v-50h-23v-24h-50v24h-24v50h24v44h-45v-24h-50v24h-23v50h23v24h50v-24h45v44h-24v51h24v44h-24v50h24v44h-24v50h24v24h50v-24h23v-50h-23v-44h23v-50h-23v-44h23v-51h-23v-44h23v-50zM91 212h-24v-44h24v-50h-24v-24h-50v24h-24v50h24v44h-24v51h24 v44h-24v50h24v44h-24v50h24v24h50v-24h24v-50h-24v-44h24v-50h-24v-44h24v-51zM280 24h-24v-24h-50v24h-45v-24h-50v24h-23v50h23v23h50v-23h45v23h50v-23h24v-50zM280 685h-24v-24h-50v24h-24v50h24v23h50v-23h24v-50zM374 590h-24v-23h-50v23h-23v50h23v24h50v-24h24v-50z M185 590h-24v-23h-50v23h-23v50h23v24h50v-24h24v-50z" />
<glyph unicode="&#xfc;" d="M468 118h-23v-44h23v-50h-23v-24h-50v24h-24v50h24v44h-45v-24h-50v24h-23v50h23v24h50v-24h45v44h-24v51h24v44h-24v50h24v44h-24v50h24v24h50v-24h23v-50h-23v-44h23v-50h-23v-44h23v-51h-23v-44h23v-50zM91 212h-24v-44h24v-50h-24v-24h-50v24h-24v50h24v44h-24v51h24 v44h-24v50h24v44h-24v50h24v24h50v-24h24v-50h-24v-44h24v-50h-24v-44h24v-51zM91 685h-24v-45h24v-50h-24v-23h-50v23h-24v50h24v45h-24v50h24v23h50v-23h24v-50zM280 24h-24v-24h-50v24h-45v-24h-50v24h-23v50h23v23h50v-23h45v23h50v-23h24v-50zM468 685h-23v-45h23v-50 h-23v-23h-50v23h-24v50h24v45h-24v50h24v23h50v-23h23v-50z" />
<glyph unicode="&#xfd;" d="M91 401h-24v-44h24v-50h-24v-24h-50v24h-24v50h24v44h-24v50h24v24h50v-24h24v-50zM280 -71h-24v-23h-50v23h-24v50h24v45h-24v50h24v23h50v-23h24v-50h-24v-45h24v-50zM374 212h-24v-44h24v-50h-24v-24h-50v24h-23v50h23v44h-23v51h23v23h50v-23h24v-51zM185 212h-24 v-44h24v-50h-24v-24h-50v24h-23v50h23v44h-23v51h23v23h50v-23h24v-51zM468 401h-23v-44h23v-50h-23v-24h-50v24h-24v50h24v44h-24v50h24v24h50v-24h23v-50zM280 590h-24v-23h-50v23h-45v-23h-50v23h-23v50h23v24h50v-24h45v24h50v-24h24v-50zM185 -165h-24v-24h-50v24h-44 v-24h-50v24h-24v50h24v23h50v-23h44v23h50v-23h24v-50zM374 685h-24v-24h-50v24h-23v50h23v23h50v-23h24v-50z" />
<glyph unicode="&#xfe;" d="M91 118h-24v-44h44v23h50v-23h45v23h50v-23h44v23h50v-23h24v-50h-24v-24h-50v24h-44v-24h-50v24h-45v-24h-50v24h-44v-45h24v-50h-24v-44h24v-50h-24v-24h-50v24h-24v50h24v44h-24v50h24v45h-24v50h24v44h-24v50h24v44h-24v51h24v44h-24v50h24v44h-24v50h24v45h-24v50 h24v44h-24v50h24v24h50v-24h24v-50h-24v-44h24v-50h-24v-45h44v24h50v-24h45v24h50v-24h44v24h50v-24h24v-50h-24v-23h-50v23h-44v-23h-50v23h-45v-23h-50v23h-44v-44h24v-50h-24v-44h24v-51h-24v-44h24v-50zM468 212h-23v-44h23v-50h-23v-24h-50v24h-24v50h24v44h-24v51h24 v44h-24v50h24v24h50v-24h23v-50h-23v-44h23v-51z" />
<glyph unicode="&#xff;" d="M91 401h-24v-44h24v-50h-24v-24h-50v24h-24v50h24v44h-24v50h24v24h50v-24h24v-50zM280 -71h-24v-23h-50v23h-24v50h24v45h-24v50h24v23h50v-23h24v-50h-24v-45h24v-50zM91 685h-24v-45h24v-50h-24v-23h-50v23h-24v50h24v45h-24v50h24v23h50v-23h24v-50zM374 212h-24v-44 h24v-50h-24v-24h-50v24h-23v50h23v44h-23v51h23v23h50v-23h24v-51zM185 212h-24v-44h24v-50h-24v-24h-50v24h-23v50h23v44h-23v51h23v23h50v-23h24v-51zM468 401h-23v-44h23v-50h-23v-24h-50v24h-24v50h24v44h-24v50h24v24h50v-24h23v-50zM185 -165h-24v-24h-50v24h-44v-24 h-50v24h-24v50h24v23h50v-23h44v23h50v-23h24v-50zM468 685h-23v-45h23v-50h-23v-23h-50v23h-24v50h24v45h-24v50h24v23h50v-23h23v-50z" />
<glyph unicode="&#x152;" d="M474 24h-24v-24h-51v24h-45v-24h-51v24h-45v-24h-51v24h-45v-24h-51v24h-24v51h24v24h51v-24h45v45h-24v51h24v45h-24v51h24v45h-24v51h24v45h-24v51h24v45h-24v51h24v45h-45v-24h-51v24h-24v51h24v24h51v-24h45v24h51v-24h45v24h51v-24h45v24h51v-24h24v-51h-24v-24h-51 v24h-45v-24h-51v24h-45v-45h24v-51h-24v-45h24v-51h-24v-45h45v24h51v-24h24v-51h-24v-24h-51v24h-45v-45h24v-51h-24v-45h24v-51h-24v-45h45v24h51v-24h45v24h51v-24h24v-51zM90 216h-24v-45h24v-51h-24v-24h-51v24h-24v51h24v45h-24v51h24v45h-24v51h24v45h-24v51h24v45 h-24v51h24v24h51v-24h24v-51h-24v-45h24v-51h-24v-45h24v-51h-24v-45h24v-51z" />
<glyph unicode="&#x153;" d="M468 212h-23v-23h-50v23h-45v-23h-50v23h-44v-44h24v-50h-24v-24h-50v24h-24v50h24v44h-24v51h24v44h-24v50h24v24h50v-24h24v-50h-24v-44h44v23h50v-23h45v44h-24v50h24v24h50v-24h23v-50h-23v-44h23v-51zM91 212h-24v-44h24v-50h-24v-24h-50v24h-24v50h24v44h-24v51h24 v44h-24v50h24v24h50v-24h24v-50h-24v-44h24v-51zM468 24h-23v-24h-50v24h-45v-24h-50v24h-23v50h23v23h50v-23h45v23h50v-23h23v-50zM185 24h-24v-24h-50v24h-23v50h23v23h50v-23h24v-50zM185 401h-24v-23h-50v23h-23v50h23v24h50v-24h24v-50zM374 401h-24v-23h-50v23h-23 v50h23v24h50v-24h24v-50z" />
<glyph unicode="&#x178;" d="M282 120h-24v-45h24v-51h-24v-24h-51v24h-24v51h24v45h-24v51h24v45h-24v51h24v24h51v-24h24v-51h-24v-45h24v-51zM474 504h-24v-45h24v-51h-24v-24h-51v24h-24v51h24v45h-24v51h24v45h-24v51h24v24h51v-24h24v-51h-24v-45h24v-51zM90 504h-24v-45h24v-51h-24v-24h-51v24 h-24v51h24v45h-24v51h24v45h-24v51h24v24h51v-24h24v-51h-24v-45h24v-51zM90 912h-24v-45h24v-51h-24v-24h-51v24h-24v51h24v45h-24v51h24v24h51v-24h24v-51zM474 912h-24v-45h24v-51h-24v-24h-51v24h-24v51h24v45h-24v51h24v24h51v-24h24v-51zM186 312h-24v-24h-51v24h-24 v51h24v24h51v-24h24v-51zM378 312h-24v-24h-51v24h-24v51h24v24h51v-24h24v-51z" />
<glyph unicode="&#x2c6;" d="M185 590h-24v-23h-50v23h-23v50h23v24h50v-24h24v-50zM374 590h-24v-23h-50v23h-23v50h23v24h50v-24h24v-50zM280 685h-24v-24h-50v24h-24v50h24v23h50v-23h24v-50z" />
<glyph unicode="&#x2dc;" d="M374 590h-24v-23h-50v23h-44v-23h-50v23h-24v50h24v24h50v-24h44v24h50v-24h24v-50zM91 590h-24v-23h-50v23h-24v50h24v24h50v-24h24v-50zM185 685h-24v-24h-50v24h-23v50h23v23h50v-23h24v-50zM468 685h-23v-24h-50v24h-24v50h24v23h50v-23h23v-50z" />
<glyph unicode="&#x2000;" horiz-adv-x="541" />
<glyph unicode="&#x2001;" horiz-adv-x="1083" />
<glyph unicode="&#x2002;" horiz-adv-x="541" />
<glyph unicode="&#x2003;" horiz-adv-x="1083" />
<glyph unicode="&#x2004;" horiz-adv-x="361" />
<glyph unicode="&#x2005;" horiz-adv-x="270" />
<glyph unicode="&#x2006;" horiz-adv-x="180" />
<glyph unicode="&#x2007;" horiz-adv-x="180" />
<glyph unicode="&#x2008;" horiz-adv-x="135" />
<glyph unicode="&#x2009;" horiz-adv-x="216" />
<glyph unicode="&#x200a;" horiz-adv-x="60" />
<glyph unicode="&#x2010;" d="M374 212h-24v-23h-50v23h-44v-23h-50v23h-45v-23h-50v23h-23v51h23v23h50v-23h45v23h50v-23h44v23h50v-23h24v-51z" />
<glyph unicode="&#x2011;" d="M374 212h-24v-23h-50v23h-44v-23h-50v23h-45v-23h-50v23h-23v51h23v23h50v-23h45v23h50v-23h44v23h50v-23h24v-51z" />
<glyph unicode="&#x2013;" d="M374 212h-24v-23h-50v23h-44v-23h-50v23h-45v-23h-50v23h-23v51h23v23h50v-23h45v23h50v-23h44v23h50v-23h24v-51z" />
<glyph unicode="&#x2014;" d="M468 212h-23v-23h-50v23h-45v-23h-50v23h-44v-23h-50v23h-45v-23h-50v23h-44v-23h-50v23h-24v51h24v23h50v-23h44v23h50v-23h45v23h50v-23h44v23h50v-23h45v23h50v-23h23v-51z" />
<glyph unicode="&#x2018;" d="M281 496h-24v-45h24v-50h-24v-23h-50v23h-23v50h23v45h-23v50h23v23h50v-23h24v-50zM375 590h-23v-23h-50v23h-24v50h24v24h50v-24h23v-50z" />
<glyph unicode="&#x2019;" d="M375 590h-23v-44h23v-50h-23v-24h-50v24h-24v50h24v44h-24v50h24v24h50v-24h23v-50zM281 401h-24v-23h-50v23h-23v50h23v24h50v-24h24v-50z" />
<glyph unicode="&#x201a;" d="M375 118h-23v-44h23v-50h-23v-24h-50v24h-24v50h24v44h-24v50h24v24h50v-24h23v-50zM281 -71h-24v-23h-50v23h-23v50h23v24h50v-24h24v-50z" />
<glyph unicode="&#x201c;" d="M186 496h-23v-45h23v-50h-23v-23h-50v23h-24v50h24v45h-24v50h24v23h50v-23h23v-50zM375 496h-23v-45h23v-50h-23v-23h-50v23h-24v50h24v45h-24v50h24v23h50v-23h23v-50zM281 590h-24v-23h-50v23h-23v50h23v24h50v-24h24v-50zM470 590h-24v-23h-50v23h-23v50h23v24h50 v-24h24v-50z" />
<glyph unicode="&#x201d;" d="M281 590h-24v-44h24v-50h-24v-24h-50v24h-23v50h23v44h-23v50h23v24h50v-24h24v-50zM470 590h-24v-44h24v-50h-24v-24h-50v24h-23v50h23v44h-23v50h23v24h50v-24h24v-50zM375 401h-23v-23h-50v23h-24v50h24v24h50v-24h23v-50zM186 401h-23v-23h-50v23h-24v50h24v24h50 v-24h23v-50z" />
<glyph unicode="&#x201e;" d="M281 118h-24v-44h24v-50h-24v-24h-50v24h-23v50h23v44h-23v50h23v24h50v-24h24v-50zM470 118h-24v-44h24v-50h-24v-24h-50v24h-23v50h23v44h-23v50h23v24h50v-24h24v-50zM375 -71h-23v-23h-50v23h-24v50h24v24h50v-24h23v-50zM186 -71h-23v-23h-50v23h-24v50h24v24h50 v-24h23v-50z" />
<glyph unicode="&#x2022;" d="M277 212h-24v-23h-50v23h-44v-23h-50v23h-45v-23h-50v23h-23v51h23v44h-23v50h23v44h-23v50h23v24h50v-24h45v24h50v-24h44v24h50v-24h24v-50h-24v-44h24v-50h-24v-44h24v-51zM64 307v-44h45v44h-45zM64 357h45v44h-45v-44zM203 307h-44v-44h44v44zM203 357v44h-44v-44 h44z" />
<glyph unicode="&#x2026;" d="M91 118h-24v-44h24v-50h-24v-24h-50v24h-24v50h24v44h-24v50h24v24h50v-24h24v-50zM280 118h-24v-44h24v-50h-24v-24h-50v24h-24v50h24v44h-24v50h24v24h50v-24h24v-50zM468 118h-23v-44h23v-50h-23v-24h-50v24h-24v50h24v44h-24v50h24v24h50v-24h23v-50z" />
<glyph unicode="&#x202f;" horiz-adv-x="216" />
<glyph unicode="&#x2039;" d="M374 24h-24v-24h-50v24h-23v50h23v23h50v-23h24v-50zM280 118h-24v-24h-50v24h-24v50h24v24h50v-24h24v-50zM185 212h-24v-23h-50v23h-23v51h23v23h50v-23h24v-51zM280 307h-24v-24h-50v24h-24v50h24v24h50v-24h24v-50zM374 401h-24v-23h-50v23h-23v50h23v24h50v-24h24 v-50z" />
<glyph unicode="&#x203a;" d="M282 24h-23v-24h-50v24h-24v50h24v23h50v-23h23v-50zM377 118h-24v-24h-50v24h-24v50h24v24h50v-24h24v-50zM471 212h-23v-23h-50v23h-24v51h24v23h50v-23h23v-51zM377 307h-24v-24h-50v24h-24v50h24v24h50v-24h24v-50zM282 401h-23v-23h-50v23h-24v50h24v24h50v-24h23 v-50z" />
<glyph unicode="&#x205f;" horiz-adv-x="270" />
<glyph unicode="&#x20ac;" d="M280 212h-24v-23h-50v23h-45v-44h24v-50h-24v-24h-50v24h-23v50h23v44h-44v-23h-50v23h-24v51h24v23h50v-23h44v44h-23v50h23v44h-44v-23h-50v23h-24v50h24v24h50v-24h44v45h-23v50h23v23h50v-23h24v-50h-24v-45h45v24h50v-24h44v24h50v-24h24v-50h-24v-23h-50v23h-44 v-23h-50v23h-45v-44h24v-50h-24v-44h45v23h50v-23h24v-51zM468 24h-23v-24h-50v24h-45v-24h-50v24h-44v-24h-50v24h-24v50h24v23h50v-23h44v23h50v-23h45v23h50v-23h23v-50zM468 590h-23v-23h-50v23h-45v-23h-50v23h-44v-23h-50v23h-24v50h24v24h50v-24h44v24h50v-24h45v24 h50v-24h23v-50z" />
<glyph unicode="&#x2122;" d="M186 496h-23v-45h23v-50h-23v-23h-50v23h-24v50h24v45h-24v50h24v44h-45v-23h-50v23h-23v50h23v24h50v-24h45v24h50v-24h44v24h50v-24h45v24h50v-24h23v-50h-23v-44h44v23h50v-23h45v44h-24v50h24v24h50v-24h23v-50h-23v-44h23v-50h-23v-45h23v-50h-23v-23h-50v23h-24v50 h24v45h-45v-24h-50v24h-44v-45h23v-50h-23v-23h-50v23h-24v50h24v45h-24v50h24v44h-45v-23h-50v23h-44v-44h23v-50z" />
</font>
</defs>
</svg>
